<?xml version="1.0" encoding="UTF-8"?>
<svg id="Layer_1" data-name="Layer 1" xmlns="http://www.w3.org/2000/svg" xmlns:xlink="http://www.w3.org/1999/xlink" viewBox="0 0 1920 1080">
  <defs>
    <style>
      .cls-1 {
        fill: #4c235d;
      }

      .cls-2 {
        fill: #f39954;
      }

      .cls-3 {
        fill: #f97864;
      }

      .cls-4 {
        fill: #f97d6b;
      }

      .cls-5 {
        fill: url(#radial-gradient);
      }

      .cls-6 {
        fill: #5b386c;
      }

      .cls-7 {
        fill: #fef8d2;
      }

      .cls-8 {
        fill: #4e245d;
      }

      .cls-9 {
        fill: #fbd554;
      }

      .cls-10 {
        fill: #fac747;
        stroke: #d88c1d;
        stroke-miterlimit: 10;
        stroke-width: 12px;
      }

      .cls-11 {
        fill: url(#radial-gradient-2);
      }

      .cls-12 {
        fill: #fefeef;
      }

      .cls-13 {
        fill: #d9a953;
      }

      .cls-14 {
        fill: #fdf8d0;
      }

      .cls-15 {
        fill: url(#linear-gradient);
      }

      .cls-16 {
        fill: #faedb3;
      }
    </style>
    <linearGradient id="linear-gradient" x1="525.22" y1="534.67" x2="1364.44" y2="534.67" gradientUnits="userSpaceOnUse">
      <stop offset="0" stop-color="#e0991b"/>
      <stop offset=".5" stop-color="#f8cc41"/>
      <stop offset=".98" stop-color="#fbe9a5"/>
    </linearGradient>
    <radialGradient id="radial-gradient" cx="1133.11" cy="329.5" fx="1133.11" fy="329.5" r="28.45" gradientUnits="userSpaceOnUse">
      <stop offset="0" stop-color="#80cfab"/>
      <stop offset="1" stop-color="#80d0ab"/>
    </radialGradient>
    <radialGradient id="radial-gradient-2" cx="772.78" cy="734.67" fx="772.78" fy="734.67" r="28.45" xlink:href="#radial-gradient"/>
  </defs>
  <path class="cls-15" d="M944.84,954.28c-112.09,0-217.46-43.65-296.72-122.9-79.25-79.25-122.9-184.62-122.9-296.7,0-47.39,7.85-93.9,23.32-138.24,58.68-168.3,217.94-281.38,396.29-281.38s337.6,113.08,396.28,281.4c15.47,44.33,23.32,90.84,23.32,138.22,0,112.08-43.65,217.45-122.9,296.7-79.25,79.25-184.62,122.9-296.7,122.9Z"/>
  <path class="cls-10" d="M1313.79,534.68c0,203.77-165.19,368.96-368.96,368.96s-368.97-165.19-368.97-368.96c0-42.59,7.21-83.48,20.49-121.55,50.22-144.05,187.27-247.42,348.48-247.42s298.24,103.37,348.46,247.42c13.29,38.07,20.49,78.96,20.49,121.55Z"/>
  <path class="cls-16" d="M1286.56,425.63c-49.29,142.8-183.73,245.25-341.85,245.25s-292.58-102.45-341.86-245.25c49.27-142.8,183.72-245.26,341.86-245.26s292.58,102.47,341.85,245.26Z"/>
  <path class="cls-6" d="M1001.08,766.34c-6.78,0-13.2-2.63-18.64-7.65-10.63-9.81-18.08-29.18-22.76-59.21-3.23-20.73-3.88-38.83-3.91-39.59l13.05-.45-.76-13.85,63.14-3.44,1.34,11.17c.09,.78,2.29,19.34,2.32,40.77,.03,31.18-4.47,51.67-13.75,62.64-5.02,5.93-11.53,9.24-18.81,9.58-.41,.02-.81,.03-1.22,.03Zm-20.76-97.35c1.96,27.2,8.24,62.66,18.42,72.05,1.44,1.32,2.15,1.29,2.46,1.28,.25-.01,.68-.03,1.58-1.1,8.42-9.95,9.17-46.4,7.02-73.83l-29.47,1.61Z"/>
  <path class="cls-9" d="M967.78,659.48s3.3,96.25,33.97,94.83c30.67-1.42,18.87-99.55,18.87-99.55l-51.9,2.83"/>
  <path class="cls-6" d="M906.88,768.23c-6.78,0-13.2-2.63-18.64-7.65-10.63-9.81-18.08-29.18-22.76-59.21-3.23-20.73-3.88-38.83-3.91-39.59l13.05-.45-.76-13.85,63.14-3.44,1.34,11.17c.09,.78,2.29,19.34,2.32,40.77,.03,31.18-4.47,51.67-13.75,62.64-5.02,5.93-11.53,9.24-18.81,9.58-.41,.02-.81,.03-1.22,.03Zm-20.76-97.35c1.96,27.2,8.24,62.66,18.42,72.05,1.44,1.32,2.15,1.29,2.46,1.28,.25-.01,.68-.03,1.58-1.1,8.42-9.95,9.17-46.4,7.02-73.83l-29.47,1.61Z"/>
  <path class="cls-9" d="M928.63,698.07c-.16,26.99-4.12,57.35-21.08,58.14-13.44,.62-21.62-17.51-26.57-38.08-6.36-26.37-7.4-56.76-7.4-56.76l.94-1.88,51.9-2.84s2.36,19.61,2.22,41.42Z"/>
  <path class="cls-6" d="M1040.19,567.42l28.54-24.38,.25-.19c7.8-5.99,48.01-35.85,73-35.85,11.73,0,17.68,6.15,20.19,9.82,6.12,8.97,7.78,19.84,4.78,31.45-6.4,24.82-33.5,50.36-76.3,71.92l-1.08,.54-33.76,9.21-15.63-62.53Z"/>
  <path class="cls-9" d="M1085.26,609.47l-20.76,5.66-10.86-43.41,2.53-2.16,20.11-17.19s31.14-23.88,54.16-31.23c9.66-3.09,17.9-3.27,21.81,2.45,13.2,19.35-4.25,54.26-67,85.87Z"/>
  <path class="cls-6" d="M849.47,567.42l-28.54-24.38-.25-.19c-7.8-5.99-48.01-35.85-73-35.85-11.73,0-17.68,6.15-20.19,9.82-6.12,8.97-7.78,19.84-4.78,31.45,6.4,24.82,33.5,50.36,76.3,71.92l1.08,.54,33.76,9.21,15.63-62.53Z"/>
  <path class="cls-9" d="M813.36,552.38s-62.75-48.12-75.96-28.78c-13.21,19.34,4.25,54.26,67,85.87l20.76,5.66,10.85-43.41-22.65-19.34Z"/>
  <path class="cls-13" d="M1130.91,521.07l-43.76,87.31s-17.78-7.55-17.93-8.02c-.1-.31-7.76-18.37-13.04-30.79l20.11-17.19s31.59-23.96,54.62-31.32Z"/>
  <path class="cls-13" d="M756.72,520.46l50.69,90.28s17.78-7.55,17.93-8.02c.1-.31,7.76-18.37,13.04-30.79l-20.11-17.19s-38.52-26.93-61.55-34.28Z"/>
  <path class="cls-13" d="M928.63,698.07l-47.66,20.06c-6.36-26.37-7.4-56.76-7.4-56.76l.94-1.88,51.9-2.84s2.36,19.61,2.22,41.42Z"/>
  <path class="cls-13" d="M971.08,693.34l50.65,22.44c6.36-26.37,7.4-56.76,7.4-56.76l-.94-1.88-71.5-6.02s12.03,20.64,14.39,42.23Z"/>
  <path class="cls-6" d="M843.39,720.28c-13.18,0-25.71-5.83-34.38-15.99-8.61-10.1-12.19-22.95-10.07-36.2l13.21-82.68c1.09-6.82-1.25-13.74-6.25-18.51l-60.62-57.75c-12.5-11.9-17.06-29.53-11.92-46.01,5.14-16.47,18.93-28.37,35.98-31.05l82.72-12.99c6.83-1.07,12.68-5.43,15.67-11.66l36.19-75.5c7.56-15.76,23.11-25.55,40.6-25.55s32.41,9.44,40.12,24.63l37.91,74.65c3.13,6.16,9.08,10.38,15.93,11.3l82.99,11.09c17.11,2.29,31.16,13.86,36.68,30.21,5.52,16.35,1.36,34.08-10.86,46.27l-59.29,59.13c-4.89,4.88-7.07,11.85-5.82,18.64l15.1,82.36c2.42,13.2-1.07,26.61-9.57,36.82-8.68,10.41-21.32,16.38-34.68,16.38-7.11,0-14.01-1.68-20.51-5.01l-74.55-38.11c-2.94-1.51-6.25-2.3-9.55-2.3-3.47,0-6.92,.87-9.98,2.52l-73.66,39.81c-6.73,3.64-13.93,5.49-21.39,5.49Z"/>
  <path class="cls-9" d="M1037.64,701.83l-74.55-38.11c-9.67-4.94-21.15-4.81-30.71,.35l-73.66,39.81c-24.06,13-52.59-7.23-48.27-34.23l13.21-82.68c1.71-10.72-1.96-21.61-9.82-29.1l-60.62-57.75c-19.8-18.86-9.38-52.25,17.64-56.49l82.72-12.99c10.73-1.68,19.94-8.54,24.64-18.33l36.19-75.5c11.82-24.66,46.79-25.06,59.18-.68l37.91,74.65c4.92,9.68,14.29,16.33,25.05,17.77l82.99,11.09c27.11,3.62,38.3,36.76,18.93,56.07l-59.28,59.13c-7.69,7.67-11.11,18.63-9.15,29.31l15.1,82.36c4.93,26.9-23.12,47.78-47.48,35.33Z"/>
  <g>
    <path class="cls-14" d="M759.41,505.97c-19.47-18.43-4.57-49.94,22-54.08l77.5-14.52c10.55-1.65,23.44-6.52,28.06-16.08l35.59-73.75c9.56-19.8,30.37-30.03,45.6-19.19-15.18-15.76-43.11-12.71-53.42,8.8l-36.19,75.5c-4.69,9.79-13.91,16.65-24.64,18.33l-82.72,12.99c-27.02,4.24-37.44,37.62-17.64,56.49"/>
    <path class="cls-14" d="M1038.82,435.31l81.6,10.83c16.31,2.16,26.73,15.12,28.03,29.17,1.21-16.33-9.91-32.82-28.57-35.32l-82.99-11.09c-6.11-.82-11.76-3.31-16.41-7.08,5.01,6.64,11.47,12.58,18.34,13.49Z"/>
    <path class="cls-14" d="M1039.89,702.25l-73.3-37.22c-2.13-1.08-4.36-1.9-6.63-2.49,1.18,.44,2.35,.95,3.49,1.53l74.55,38.11c5.43,2.77,11.03,3.88,16.42,3.65-4.8-.04-9.73-1.15-14.53-3.58Z"/>
  </g>
  <path class="cls-2" d="M1079.53,555.18c-7.69,7.67-11.12,18.63-9.16,29.31l4.14,22.58,10.96,59.78c4.93,26.9-23.12,47.78-47.47,35.33l-58.67-29.99-15.88-8.12c-9.66-4.94-21.15-4.81-30.7,.35l-73.66,39.8c-24.07,13.01-52.59-7.23-48.28-34.23l1.94-12.16,.7,8.83c.13,2.89,.63,5.21,1.71,7.57,2.28,4.99,7.97,10.95,12.15,14.48,5.08,4.28,10.05,7.56,16.1,7.56,3.43,0,6.78-.88,9.97-2.6l73.67-39.81c6.55-3.54,13.95-5.41,21.4-5.41s13.34,2.08,20.48,4.93l10.19,5.21v-.05s43.17,14.4,62.6-.47c19.3-14.77,21.98-33.85,20.79-49.99l-3.93-21.42c-2.68-14.57,2-29.52,12.48-39.99l58.97-58.81c5.83-5.81,8.02-14.47,5.27-22.23-2.69-7.55-9.01-12.68-16.99-13.74l-75.14-10.04c-9.08-1.22-17.21-6.29-22.23-13.96-4.69-7.17-9.18-16.55-13.93-26.32l4.85,9.56c4.92,9.68,14.28,16.33,25.05,17.77l83,11.09c27.1,3.62,38.29,36.76,18.92,56.08l-59.28,59.12Z"/>
  <ellipse class="cls-14" cx="920.07" cy="387.57" rx="12.18" ry="9.02" transform="translate(124.39 990.59) rotate(-60)"/>
  <circle class="cls-14" cx="907.54" cy="408.48" r="6.61"/>
  <polygon class="cls-14" points="799.3 467.93 793.13 471.31 789.75 477.48 786.37 471.31 780.19 467.93 786.37 464.55 789.75 458.37 793.13 464.55 799.3 467.93"/>
  <ellipse class="cls-7" cx="881.28" cy="490.81" rx="31.38" ry="39.16"/>
  <ellipse class="cls-8" cx="886.47" cy="490.1" rx="26.19" ry="35.39"/>
  <ellipse class="cls-12" cx="894.8" cy="477.21" rx="8.18" ry="10.54"/>
  <circle class="cls-12" cx="882.22" cy="495.29" r="4.4"/>
  <ellipse class="cls-7" cx="1007.41" cy="488.92" rx="31.38" ry="39.16"/>
  <ellipse class="cls-8" cx="1002.22" cy="488.22" rx="26.19" ry="35.39"/>
  <ellipse class="cls-12" cx="993.89" cy="475.32" rx="8.18" ry="10.54"/>
  <circle class="cls-12" cx="1006.47" cy="493.41" r="4.4"/>
  <ellipse class="cls-3" cx="867.75" cy="539.64" rx="26.58" ry="16.51"/>
  <ellipse class="cls-3" cx="1027.31" cy="538.23" rx="26.58" ry="16.51"/>
  <path class="cls-1" d="M949.85,539.41s22.65-2.12,29.72-3.54c7.08-1.42,18.16,3.07,17.22,13.68-.94,10.62-.24,21.47-17.93,32.79-17.69,11.32-34.21,10.38-46,5.19-11.8-5.19-25.48-15.57-29.25-33.73-3.77-18.16,14.86-18.16,26.66-16.28,11.8,1.89,19.58,1.89,19.58,1.89Z"/>
  <path class="cls-4" d="M919.89,571.88c-.76-.65,27.68-28.94,63.54-2.67,0,0-26.11,34.76-63.54,2.67Z"/>
  <polygon class="cls-2" points="797.77 326.91 779.69 337.53 770.19 356.22 759.57 338.14 740.88 328.64 758.96 318.02 768.46 299.33 779.08 317.41 797.77 326.91"/>
  <polygon class="cls-2" points="1194.32 715.7 1176.24 726.32 1166.74 745.01 1156.12 726.93 1137.43 717.43 1155.51 706.81 1165.01 688.12 1175.63 706.2 1194.32 715.7"/>
  <polygon class="cls-5" points="1161.56 328.64 1143.48 339.25 1133.98 357.95 1123.36 339.86 1104.67 330.36 1122.75 319.75 1132.25 301.05 1142.87 319.14 1161.56 328.64"/>
  <polygon class="cls-11" points="801.22 733.8 783.14 744.42 773.64 763.11 763.02 745.03 744.33 735.53 762.41 724.91 771.91 706.22 782.53 724.3 801.22 733.8"/>
</svg>