<?xml version="1.0" encoding="UTF-8"?>
<svg id="Layer_1" data-name="Layer 1" xmlns="http://www.w3.org/2000/svg" xmlns:xlink="http://www.w3.org/1999/xlink" viewBox="0 0 1920 1080">
  <defs>
    <style>
      .cls-1 {
        fill: #c5e6dc;
      }

      .cls-2 {
        fill: #f39954;
      }

      .cls-3 {
        fill: #f1ad50;
      }

      .cls-4 {
        fill: #ddf7e3;
      }

      .cls-5 {
        fill: #edebd9;
      }

      .cls-6 {
        fill: #f97864;
      }

      .cls-7 {
        fill: #b6b7b7;
      }

      .cls-8 {
        fill: #e8eaea;
      }

      .cls-9 {
        fill: #5b386c;
      }

      .cls-10 {
        fill: url(#linear-gradient);
        stroke: #5b386c;
        stroke-miterlimit: 10;
        stroke-width: 9px;
      }

      .cls-11 {
        fill: #fbd554;
      }

      .cls-12 {
        fill: #e52b68;
      }

      .cls-13 {
        fill: #f8d654;
      }

      .cls-14 {
        fill: #fff7e3;
      }

      .cls-15 {
        fill: #d9a953;
      }

      .cls-16 {
        fill: #fdf8d0;
      }
    </style>
    <linearGradient id="linear-gradient" x1="555.76" y1="530" x2="1364.91" y2="530" gradientUnits="userSpaceOnUse">
      <stop offset="0" stop-color="#e8eaea"/>
      <stop offset=".25" stop-color="#e4e6e6"/>
      <stop offset=".44" stop-color="#dbdddd"/>
      <stop offset=".62" stop-color="#cbcccc"/>
      <stop offset=".77" stop-color="#b6b7b7"/>
    </linearGradient>
  </defs>
  <path class="cls-10" d="M960.34,934.57c-108.07,0-209.67-42.08-286.08-118.49-76.41-76.41-118.5-178.01-118.5-286.07,0-45.69,7.57-90.53,22.49-133.28,56.57-162.26,210.13-271.3,382.09-271.3s325.5,109.03,382.08,271.31c14.92,42.74,22.48,87.58,22.48,133.27,0,108.06-42.08,209.66-118.49,286.07-76.41,76.41-178.01,118.49-286.07,118.49Z"/>
  <path class="cls-9" d="M960.34,901.29c-97.43,0-189.02-37.94-257.91-106.83-68.89-68.89-106.83-160.48-106.83-257.9,0-41.2,6.82-81.63,20.26-120.16,51-146.29,189.44-244.58,344.47-244.58s293.46,98.29,344.46,244.59c13.44,38.52,20.26,78.95,20.26,120.15,0,97.42-37.94,189.01-106.83,257.9-68.89,68.89-160.48,106.83-257.9,106.83Z"/>
  <path class="cls-7" d="M1309.51,536.57c0,192.84-156.33,349.17-349.17,349.17s-349.18-156.33-349.18-349.17c0-40.31,6.82-79,19.4-115.03,47.53-136.33,177.23-234.15,329.79-234.15s282.24,97.82,329.77,234.15c12.57,36.03,19.4,74.72,19.4,115.03Z"/>
  <path class="cls-8" d="M1289.94,424.87c-47.52,137.68-177.15,236.46-329.6,236.46s-282.09-98.78-329.61-236.46c47.5-137.68,177.13-236.47,329.61-236.47s282.09,98.79,329.6,236.47Z"/>
  <path class="cls-9" d="M1014.16,768.07c-6.54,0-12.73-2.54-17.97-7.37-10.25-9.46-17.43-28.13-21.95-57.09-3.12-19.98-3.74-37.44-3.77-38.17l12.58-.43-.73-13.35,60.87-3.32,1.29,10.77c.09,.75,2.21,18.64,2.23,39.31,.03,30.07-4.31,49.82-13.26,60.39-4.84,5.72-11.11,8.91-18.14,9.23-.39,.02-.78,.03-1.17,.03Zm-20.02-93.86c1.89,26.23,7.94,60.42,17.76,69.47,1.38,1.28,2.08,1.25,2.37,1.23,.24-.01,.65-.03,1.53-1.06,8.12-9.59,8.84-44.74,6.76-71.18l-28.42,1.55Z"/>
  <path class="cls-11" d="M982.05,665.04s3.18,92.8,32.75,91.44c29.57-1.36,18.2-95.98,18.2-95.98l-50.04,2.73"/>
  <path class="cls-9" d="M923.33,769.89c-6.54,0-12.73-2.54-17.97-7.37-10.25-9.46-17.43-28.13-21.95-57.09-3.12-19.98-3.74-37.44-3.77-38.17l12.58-.43-.73-13.35,60.87-3.32,1.29,10.77c.09,.75,2.21,18.64,2.23,39.31,.03,30.07-4.31,49.82-13.26,60.39-4.84,5.72-11.11,8.91-18.14,9.23-.39,.02-.78,.03-1.17,.03Zm-20.02-93.86c1.89,26.23,7.94,60.42,17.76,69.47,1.38,1.28,2.08,1.25,2.37,1.23,.24-.01,.65-.03,1.53-1.06,8.12-9.59,8.84-44.74,6.76-71.18l-28.42,1.55Z"/>
  <path class="cls-11" d="M944.31,702.24c-.15,26.02-3.97,55.3-20.33,56.05-12.96,.6-20.85-16.88-25.62-36.71-6.13-25.42-7.14-54.73-7.14-54.73l.91-1.82,50.04-2.73s2.27,18.9,2.14,39.94Z"/>
  <path class="cls-9" d="M1052.54,561.73l34.88-9.65,.3-.07c9.26-2.04,56.56-11.73,78.4-1.53,10.25,4.78,12.94,12.59,13.63,16.82,1.69,10.33-1.3,20.51-8.65,29.42-15.72,19.07-49.81,30.33-96,31.7l-1.16,.03-33.25-5.73,11.86-61Z"/>
  <path class="cls-11" d="M1074.76,616.86l-20.45-3.52,8.23-42.35,3.09-.86,24.58-6.81s36.94-8.15,60.06-5.18c9.7,1.25,16.97,4.44,18.05,11.04,3.64,22.29-25.85,45.66-93.56,47.68Z"/>
  <path class="cls-9" d="M869.91,563.76l-34.94-9.43-.3-.06c-9.27-1.98-56.64-11.36-78.41-1.02-10.21,4.85-12.85,12.67-13.52,16.91-1.62,10.34,1.43,20.5,8.84,29.37,15.85,18.97,50.01,30,96.2,31.08l1.16,.03,33.21-5.95-12.25-60.92Z"/>
  <path class="cls-11" d="M832.24,565.59s-74.56-15.95-78.06,6.36c-3.5,22.31,26.14,45.5,93.87,47.07l20.42-3.66-8.51-42.29-27.73-7.48Z"/>
  <path class="cls-15" d="M1150.71,558.25l-73.85,58.42s-12.45-13.85-12.39-14.32c.04-.32,.71-19.21,1.17-32.21l24.58-6.81s37.37-8.04,60.49-5.08Z"/>
  <path class="cls-15" d="M769.7,561.22l81.49,57.65s12.36-13.93,12.3-14.4c-.04-.32-.84-19.21-1.38-32.21l-24.63-6.65s-44.69-7.52-67.79-4.4Z"/>
  <path class="cls-15" d="M944.31,702.24l-45.95,19.34c-6.13-25.42-7.14-54.73-7.14-54.73l.91-1.82,50.04-2.73s2.27,18.9,2.14,39.94Z"/>
  <path class="cls-15" d="M985.24,697.68l48.84,21.63c6.13-25.42,7.14-54.73,7.14-54.73l-.91-1.82-68.94-5.8s11.6,19.9,13.87,40.71Z"/>
  <path class="cls-9" d="M862.12,723.66c-12.71,0-24.79-5.62-33.15-15.41-8.3-9.73-11.75-22.13-9.71-34.9l12.73-79.72c1.05-6.58-1.2-13.25-6.02-17.84l-58.45-55.68c-12.05-11.48-16.45-28.47-11.49-44.36,4.96-15.88,18.25-27.35,34.69-29.93l79.75-12.52c6.58-1.03,12.23-5.24,15.11-11.24l34.9-72.8c7.28-15.2,22.28-24.64,39.14-24.64s31.24,9.1,38.68,23.75l36.55,71.98c3.02,5.94,8.76,10.01,15.36,10.89l80.02,10.69c16.49,2.2,30.05,13.37,35.37,29.13,5.32,15.77,1.31,32.86-10.47,44.61l-57.16,57.01c-4.72,4.7-6.81,11.42-5.61,17.97l14.56,79.41c2.33,12.72-1.03,25.66-9.23,35.5-8.36,10.04-20.55,15.8-33.44,15.8-6.85,0-13.51-1.62-19.77-4.83l-71.88-36.75c-2.84-1.45-6.02-2.22-9.21-2.22-3.35,0-6.68,.84-9.62,2.43l-71.02,38.38c-6.49,3.51-13.43,5.29-20.63,5.29Z"/>
  <path class="cls-11" d="M1049.41,705.86l-71.88-36.75c-9.32-4.77-20.4-4.64-29.61,.34l-71.02,38.38c-23.2,12.54-50.7-6.97-46.54-33.01l12.73-79.72c1.65-10.34-1.89-20.83-9.47-28.05l-58.45-55.68c-19.09-18.19-9.04-50.37,17.01-54.47l79.75-12.52c10.34-1.62,19.23-8.23,23.75-17.68l34.9-72.8c11.4-23.78,45.12-24.16,57.06-.65l36.55,71.98c4.74,9.34,13.77,15.74,24.15,17.13l80.02,10.69c26.14,3.49,36.92,35.44,18.25,54.06l-57.16,57.01c-7.41,7.39-10.72,17.96-8.83,28.26l14.56,79.41c4.75,25.94-22.3,46.07-45.77,34.07Z"/>
  <g>
    <path class="cls-16" d="M781.15,517.02c-18.77-17.76-4.4-48.15,21.21-52.14l74.72-14c10.17-1.59,22.6-6.28,27.05-15.51l34.32-71.11c9.21-19.09,29.28-28.96,43.97-18.5-14.64-15.19-41.56-12.25-51.5,8.49l-34.9,72.8c-4.53,9.44-13.41,16.05-23.75,17.68l-79.75,12.52c-26.05,4.09-36.1,36.28-17.01,54.47"/>
    <path class="cls-16" d="M1050.55,448.89l78.68,10.44c15.72,2.09,25.78,14.57,27.02,28.12,1.17-15.75-9.55-31.65-27.55-34.05l-80.02-10.69c-5.89-.79-11.34-3.19-15.82-6.83,4.83,6.4,11.06,12.13,17.68,13.01Z"/>
    <path class="cls-16" d="M1051.58,706.27l-70.68-35.89c-2.06-1.04-4.2-1.84-6.39-2.4,1.14,.43,2.26,.91,3.36,1.47l71.88,36.75c5.23,2.67,10.64,3.74,15.83,3.52-4.62-.04-9.38-1.11-14.01-3.45Z"/>
  </g>
  <path class="cls-2" d="M1089.79,564.47c-7.41,7.39-10.72,17.96-8.83,28.26l3.99,21.77,10.57,57.64c4.76,25.93-22.29,46.07-45.77,34.07l-56.57-28.92-15.31-7.83c-9.32-4.77-20.39-4.64-29.6,.34l-71.02,38.38c-23.21,12.54-50.71-6.97-46.55-33.01l1.87-11.72,.68,8.51c.13,2.79,.61,5.03,1.65,7.3,2.2,4.81,7.68,10.56,11.71,13.96,4.89,4.13,9.69,7.29,15.52,7.29,3.31,0,6.54-.85,9.61-2.5l71.03-38.39c6.32-3.41,13.45-5.22,20.63-5.22s12.86,2.01,19.75,4.76l9.83,5.02v-.04s41.63,13.88,60.35-.45c18.61-14.24,21.19-32.64,20.05-48.2l-3.79-20.65c-2.58-14.05,1.92-28.46,12.04-38.56l56.85-56.7c5.62-5.6,7.73-13.95,5.08-21.43-2.59-7.28-8.69-12.22-16.38-13.25l-72.44-9.68c-8.76-1.18-16.6-6.07-21.43-13.46-4.53-6.91-8.85-15.96-13.43-25.38l4.68,9.22c4.75,9.34,13.77,15.74,24.15,17.13l80.03,10.69c26.13,3.49,36.92,35.44,18.24,54.07l-57.16,57.01Z"/>
  <ellipse class="cls-16" cx="936.05" cy="402.86" rx="11.75" ry="8.7" transform="translate(119.13 1012.08) rotate(-60)"/>
  <circle class="cls-16" cx="923.97" cy="423.03" r="6.37"/>
  <polygon class="cls-16" points="819.61 480.35 813.66 483.6 810.4 489.56 807.14 483.6 801.19 480.35 807.14 477.09 810.4 471.13 813.66 477.09 819.61 480.35"/>
  <ellipse class="cls-6" cx="885.61" cy="549.49" rx="25.63" ry="15.92"/>
  <ellipse class="cls-6" cx="1039.44" cy="548.13" rx="25.63" ry="15.92"/>
  <path class="cls-9" d="M885.04,518.21c-3.28,.56-6.43-1.37-6.7-4.15-.65-6.45-.43-17.59,6.88-25.56,5.06-5.52,12.45-8.56,21.98-9.05,9.17-.48,16.76,1.76,22.5,6.65,9.05,7.69,10.83,20.09,11.06,27.07,.09,2.78-2.72,5.01-6.05,4.78h0c-2.83-.19-5.06-2.12-5.14-4.48-.21-6.16-1.84-15.72-7.89-20.85-3.41-2.89-7.92-4.15-13.8-3.85-6.21,.32-10.71,2.08-13.74,5.38-5.08,5.52-5.15,14.05-4.64,19.08,.24,2.36-1.65,4.5-4.44,4.98h-.01Z"/>
  <path class="cls-9" d="M985.14,515.82c-3.28,.56-6.43-1.37-6.7-4.15-.65-6.45-.43-17.59,6.88-25.56,5.06-5.52,12.45-8.56,21.98-9.05,9.17-.48,16.76,1.76,22.5,6.65,9.05,7.69,10.83,20.09,11.06,27.07,.09,2.78-2.72,5.01-6.05,4.78h0c-2.83-.19-5.06-2.12-5.14-4.48-.21-6.16-1.84-15.72-7.89-20.85-3.41-2.89-7.92-4.15-13.8-3.85-6.21,.32-10.71,2.08-13.74,5.38-5.08,5.52-5.15,14.05-4.64,19.08,.24,2.36-1.65,4.5-4.44,4.98h-.01Z"/>
  <path class="cls-9" d="M964.23,573.31c-.41,0-.81,0-1.22-.02-12.35-.45-21.84-7.76-27.05-12.94-2.55-2.54-2.14-6.67,.88-8.68h0c2.38-1.59,5.62-1.31,7.64,.7,3.8,3.79,10.67,9.21,19.04,9.49,7.22,.25,14.55-3.39,21.87-10.83,2.13-2.17,5.64-2.39,8.05-.51h0c2.71,2.11,2.94,5.99,.54,8.42-9.41,9.54-19.39,14.37-29.74,14.37Z"/>
  <g>
    <polygon class="cls-9" points="943.68 373.31 943.24 373.28 903.49 368.05 900.12 365 899.21 361.14 899.11 359.92 903.89 296.34 910.53 293.64 964.48 341.33 1004.96 300.63 1011.45 301.81 1031.44 346.32 1030.99 350.36 1013.96 373.07 1010.67 374.67 943.68 373.31"/>
    <polygon class="cls-3" points="903.11 360.22 907.88 296.64 964.65 346.82 1007.8 303.45 1027.79 347.96 1010.75 370.67 943.76 369.31 904.01 364.08 903.11 360.22"/>
    <path class="cls-9" d="M961.92,414.88c-40.11,0-66.04-8.48-67.12-8.85l-2.6-2.77-20.89-79.03,5.54-4.66,45.38,20.78,33.57-54.66,6.85,.05,35.88,60.23,46.4-34.59,6.26,4.25-24.07,89.48-2.99,2.87c-20.41,4.59-41.34,6.92-62.2,6.92Z"/>
    <path class="cls-13" d="M875.17,323.21l20.89,79.03s54.5,18.17,127.18,1.82l24.07-89.48-49.96,37.24-38.15-64.04-35.43,57.68-48.6-22.26Z"/>
    <g>
      <polygon class="cls-3" points="921.87 344.59 875.17 323.21 921.34 345.46 921.87 344.59"/>
      <path class="cls-3" d="M1032.73,325.45l-18.8,75.88c-51.58,12.22-92.46,6.68-109.84,3.11,17.69,4.28,62.99,12.25,119.15-.38l24.07-89.48-14.58,10.87Z"/>
    </g>
    <g>
      <path class="cls-5" d="M886.11,328.22l-10.94-5.01,20.89,79.03s3.48,1.16,9.85,2.63l-19.81-76.65Z"/>
      <polygon class="cls-5" points="927.36 345.46 959.76 288.71 959.2 287.78 924.52 344.24 927.36 345.46"/>
    </g>
    <circle class="cls-9" cx="906.29" cy="292.09" r="5"/>
    <circle class="cls-9" cx="1008.94" cy="298.68" r="5"/>
    <circle class="cls-9" cx="871.09" cy="317.3" r="8.25"/>
    <circle class="cls-9" cx="959.2" cy="283.69" r="8.25"/>
    <circle class="cls-9" cx="1048.22" cy="310.94" r="8.25"/>
  </g>
  <rect class="cls-9" x="1101.49" y="495.44" width="107.51" height="128" rx="4.77" ry="4.77"/>
  <rect class="cls-4" x="1106.53" y="501.12" width="83.15" height="116.45" rx="4.77" ry="4.77"/>
  <path class="cls-14" d="M1111.16,610.16v-101.75c0-3.66,2.65-6.67,6.13-7.29h-3.35c-4.1,0-7.41,3.32-7.41,7.41v101.62c0,4.09,3.32,7.41,7.41,7.41h4.63c-4.09,0-7.41-3.32-7.41-7.41Z"/>
  <path class="cls-1" d="M1196.83,501.12h-14.56c4.09,0,7.41,3.32,7.41,7.41v101.62c0,4.1-3.32,7.41-7.41,7.41h-68.32c-4.09,0-7.41-3.32-7.41-7.41v-101.62c0-4.1,3.32-7.41,7.41-7.41h-.26c-4.09,0-7.41,3.32-7.41,7.41v101.82c0,4.1,3.32,7.41,7.41,7.41h83.15c4.09,0,7.41-3.32,7.41-7.41v-101.82c0-4.1-3.32-7.41-7.41-7.41Z"/>
  <path class="cls-12" d="M1145.4,549.9l-9.15-7.36c-1.67-1.35-1.94-3.79-.59-5.47h0c1.35-1.67,3.79-1.94,5.47-.59l3.94,3.17c1.5,1.21,3.65,1.13,5.07-.17l21.6-19.85c1.58-1.45,4.04-1.35,5.5,.23h0c1.45,1.58,1.35,4.04-.23,5.5l-26.53,24.38c-1.42,1.3-3.57,1.37-5.07,.17Z"/>
  <path class="cls-12" d="M1145.66,592l-9.15-7.36c-1.67-1.35-1.94-3.79-.59-5.47h0c1.35-1.67,3.79-1.94,5.47-.59l3.94,3.17c1.5,1.21,3.65,1.13,5.07-.17l21.6-19.85c1.58-1.45,4.04-1.35,5.5,.23h0c1.45,1.58,1.35,4.04-.23,5.5l-26.53,24.38c-1.42,1.3-3.57,1.37-5.07,.17Z"/>
</svg>