<?xml version="1.0" encoding="UTF-8"?>
<svg id="Layer_1" data-name="Layer 1" xmlns="http://www.w3.org/2000/svg" xmlns:xlink="http://www.w3.org/1999/xlink" viewBox="0 0 1920 1080">
  <defs>
    <style>
      .cls-1 {
        fill: #f39954;
      }

      .cls-2 {
        fill: #f97864;
      }

      .cls-3 {
        fill: #b6b7b7;
      }

      .cls-4 {
        fill: #e8eaea;
      }

      .cls-5 {
        fill: #5b386c;
      }

      .cls-6 {
        fill: #fef8d2;
      }

      .cls-7 {
        fill: #4e245d;
      }

      .cls-8 {
        fill: url(#linear-gradient);
        stroke: #5b386c;
        stroke-miterlimit: 10;
        stroke-width: 9px;
      }

      .cls-9 {
        fill: #fbd554;
      }

      .cls-10 {
        fill: #fefeef;
      }

      .cls-11 {
        fill: #d9a953;
      }

      .cls-12 {
        fill: #fdf8d0;
      }
    </style>
    <linearGradient id="linear-gradient" x1="540.31" y1="554.83" x2="1355.04" y2="554.83" gradientUnits="userSpaceOnUse">
      <stop offset="0" stop-color="#e8eaea"/>
      <stop offset=".25" stop-color="#e4e6e6"/>
      <stop offset=".44" stop-color="#dbdddd"/>
      <stop offset=".62" stop-color="#cbcccc"/>
      <stop offset=".77" stop-color="#b6b7b7"/>
    </linearGradient>
  </defs>
  <g>
    <path class="cls-8" d="M947.68,962.2c-108.81,0-211.12-42.37-288.06-119.31-76.94-76.94-119.32-179.24-119.32-288.04,0-46,7.62-91.16,22.64-134.21,56.96-163.38,211.58-273.17,384.73-273.17s327.75,109.78,384.72,273.18c15.02,43.03,22.64,88.19,22.64,134.19,0,108.81-42.37,211.1-119.31,288.04-76.94,76.94-179.24,119.31-288.04,119.31Z"/>
    <path class="cls-5" d="M947.68,928.7c-98.1,0-190.33-38.2-259.69-107.56-69.36-69.36-107.56-161.59-107.56-259.68,0-41.49,6.87-82.2,20.4-120.99,51.35-147.3,190.75-246.27,346.85-246.27s295.48,98.97,346.84,246.28c13.54,38.79,20.4,79.49,20.4,120.98,0,98.09-38.2,190.32-107.56,259.68-69.36,69.36-161.59,107.56-259.68,107.56Z"/>
    <path class="cls-3" d="M1299.26,561.45c0,194.17-157.41,351.58-351.58,351.58s-351.59-157.41-351.59-351.58c0-40.59,6.87-79.55,19.53-115.83,47.86-137.27,178.45-235.77,332.06-235.77s284.19,98.5,332.05,235.77c12.66,36.28,19.53,75.24,19.53,115.83Z"/>
    <path class="cls-4" d="M1279.55,448.98c-47.85,138.63-178.37,238.09-331.87,238.09s-284.04-99.46-331.89-238.09c47.83-138.63,178.36-238.11,331.89-238.11s284.04,99.48,331.87,238.11Z"/>
  </g>
  <path class="cls-5" d="M747.35,842.73l-13.77-.27-1.9-61.86c0-57.6,46.86-104.45,104.45-104.45h209.62c57.6,0,104.45,46.86,104.45,104.45l-2.82,61.33-12.85,.8h-387.2Z"/>
  <path class="cls-4" d="M811.04,697.93h259.4c31.28,0,56.68,25.4,56.68,56.68v78.58h-372.77v-78.58c0-31.28,25.4-56.68,56.68-56.68Z"/>
  <path class="cls-3" d="M1056.87,690.79h-50.39c40.65,0,73.6,34.69,73.6,77.48v64.92h50.39v-64.92c0-42.79-32.95-77.48-73.6-77.48Z"/>
  <g>
    <path class="cls-5" d="M994.68,766.55c-6.58,0-12.81-2.55-18.1-7.43-10.32-9.52-17.55-28.32-22.1-57.48-3.14-20.12-3.77-37.7-3.79-38.43l12.67-.43-.73-13.44,61.29-3.34,1.3,10.85c.09,.76,2.23,18.77,2.25,39.58,.03,30.27-4.34,50.16-13.35,60.81-4.87,5.76-11.19,8.97-18.26,9.3-.39,.02-.79,.03-1.18,.03Zm-20.16-94.51c1.9,26.41,8,60.84,17.88,69.95,1.39,1.29,2.09,1.25,2.39,1.24,.25-.01,.66-.03,1.54-1.07,8.18-9.66,8.91-45.05,6.81-71.68l-28.61,1.56Z"/>
    <path class="cls-9" d="M962.34,662.81s3.21,93.44,32.98,92.07c29.77-1.37,18.32-96.65,18.32-96.65l-50.38,2.75"/>
    <path class="cls-5" d="M903.22,768.38c-6.58,0-12.81-2.55-18.1-7.43-10.32-9.52-17.55-28.32-22.1-57.48-3.14-20.12-3.77-37.7-3.79-38.43l12.67-.43-.73-13.44,61.29-3.34,1.3,10.85c.09,.76,2.23,18.77,2.25,39.58,.03,30.27-4.34,50.16-13.35,60.81-4.87,5.76-11.19,8.97-18.26,9.3-.39,.02-.79,.03-1.18,.03Zm-20.16-94.51c1.9,26.41,8,60.84,17.88,69.95,1.39,1.29,2.09,1.25,2.39,1.24,.25-.01,.66-.03,1.54-1.07,8.18-9.66,8.91-45.05,6.81-71.68l-28.61,1.56Z"/>
    <path class="cls-9" d="M924.34,700.27c-.15,26.2-4,55.68-20.47,56.44-13.05,.6-20.99-17-25.8-36.97-6.17-25.6-7.19-55.1-7.19-55.1l.91-1.83,50.38-2.75s2.29,19.03,2.15,40.21Z"/>
    <path class="cls-5" d="M1066.29,542.14l32.73,16.02,.27,.15c8.34,4.64,50.46,28.94,60.1,51.21,4.52,10.45,1.34,18.13-.96,21.77-5.63,8.92-14.68,14.59-26.17,16.39-24.58,3.87-57.79-10.41-93.51-40.22l-.9-.75-21.23-26.53,49.67-38.05Z"/>
    <path class="cls-9" d="M1046.21,598.51l-13.06-16.31,34.48-26.42,2.9,1.42,23.07,11.29s33.28,18.53,48.72,36.2c6.48,7.42,9.82,14.68,6.23,20.37-12.14,19.23-49.97,17.15-102.35-26.55Z"/>
    <path class="cls-5" d="M807.86,536.07l-30.54,19.88-.25,.18c-7.72,5.62-46.56,34.86-53.42,58.14-3.22,10.92,.88,18.16,3.6,21.5,6.67,8.16,16.34,12.69,27.97,13.09,24.87,.85,56.1-17.37,87.92-51.3l.8-.85,17.85-28.91-53.93-31.72Z"/>
    <path class="cls-9" d="M783.94,565.56s-62.04,45.22-47.66,62.83c14.39,17.61,51.69,10.94,98.36-38.81l10.97-17.78-37.44-22.02-24.23,15.78Z"/>
    <path class="cls-11" d="M1142.58,605.07l-94.66-5.3s-.13-18.75,.23-19.07c.24-.21,13.37-14,22.4-23.49l23.07,11.29s33.53,18.9,48.97,36.57Z"/>
    <path class="cls-11" d="M738.66,609.54l97.98-22.41s-2.15-18.63-2.54-18.9c-.26-.18-14.97-12.27-25.09-20.59l-21.53,14.01s-35.65,28.48-48.83,47.9Z"/>
    <path class="cls-11" d="M924.34,700.27l-46.27,19.47c-6.17-25.6-7.19-55.1-7.19-55.1l.91-1.83,50.38-2.75s2.29,19.03,2.15,40.21Z"/>
    <path class="cls-11" d="M965.55,695.67l49.17,21.78c6.17-25.6,7.19-55.1,7.19-55.1l-.91-1.83-69.42-5.84s11.68,20.04,13.97,41Z"/>
    <path class="cls-5" d="M841.58,721.83c-12.8,0-24.96-5.66-33.38-15.52-8.36-9.8-11.83-22.28-9.78-35.14l12.82-80.27c1.06-6.62-1.21-13.34-6.07-17.97l-58.85-56.07c-12.13-11.56-16.56-28.67-11.57-44.66,4.99-15.99,18.38-27.54,34.93-30.14l80.3-12.61c6.63-1.04,12.31-5.27,15.21-11.32l35.14-73.3c7.33-15.3,22.44-24.81,39.41-24.81s31.46,9.16,38.95,23.91l36.81,72.48c3.04,5.98,8.82,10.08,15.47,10.97l80.57,10.77c16.61,2.22,30.25,13.46,35.61,29.33,5.36,15.87,1.32,33.08-10.54,44.92l-57.56,57.4c-4.75,4.74-6.86,11.5-5.65,18.1l14.66,79.95c2.35,12.81-1.04,25.84-9.29,35.74-8.42,10.11-20.7,15.91-33.67,15.91-6.9,0-13.6-1.64-19.91-4.86l-72.38-37c-2.86-1.46-6.06-2.23-9.27-2.23-3.37,0-6.72,.85-9.69,2.45l-71.51,38.65c-6.54,3.53-13.53,5.33-20.77,5.33Z"/>
    <path class="cls-9" d="M1030.16,703.92l-72.38-37c-9.39-4.8-20.54-4.67-29.81,.34l-71.51,38.65c-23.36,12.62-51.05-7.02-46.86-33.24l12.82-80.27c1.66-10.41-1.9-20.97-9.54-28.25l-58.85-56.07c-19.22-18.31-9.1-50.72,17.13-54.84l80.3-12.61c10.42-1.64,19.36-8.29,23.92-17.8l35.14-73.3c11.48-23.94,45.43-24.33,57.45-.66l36.81,72.48c4.77,9.4,13.87,15.85,24.32,17.25l80.57,10.77c26.32,3.52,37.18,35.68,18.38,54.43l-57.55,57.4c-7.47,7.45-10.79,18.09-8.89,28.46l14.66,79.95c4.79,26.12-22.45,46.39-46.09,34.3Z"/>
    <g>
      <path class="cls-12" d="M760.06,513.77c-18.9-17.89-4.44-48.48,21.36-52.5l75.24-14.1c10.24-1.6,22.76-6.33,27.24-15.61l34.55-71.6c9.28-19.22,29.48-29.16,44.27-18.63-14.74-15.3-41.85-12.34-51.86,8.55l-35.14,73.3c-4.56,9.51-13.5,16.16-23.92,17.8l-80.3,12.61c-26.23,4.12-36.35,36.53-17.13,54.84"/>
      <path class="cls-12" d="M1031.31,445.17l79.22,10.51c15.83,2.1,25.95,14.67,27.21,28.31,1.17-15.86-9.62-31.86-27.74-34.29l-80.57-10.77c-5.93-.79-11.42-3.21-15.93-6.87,4.87,6.45,11.14,12.22,17.81,13.1Z"/>
      <path class="cls-12" d="M1032.35,704.33l-71.16-36.13c-2.07-1.05-4.23-1.85-6.44-2.42,1.15,.43,2.28,.92,3.39,1.48l72.38,37c5.27,2.69,10.71,3.77,15.94,3.54-4.66-.04-9.45-1.11-14.1-3.48Z"/>
    </g>
    <path class="cls-1" d="M1070.83,561.55c-7.46,7.45-10.79,18.08-8.89,28.45l4.02,21.92,10.64,58.04c4.79,26.11-22.44,46.38-46.09,34.3l-56.96-29.12-15.42-7.88c-9.38-4.8-20.53-4.67-29.81,.34l-71.51,38.64c-23.37,12.63-51.06-7.01-46.87-33.23l1.88-11.8,.68,8.57c.13,2.81,.61,5.06,1.66,7.35,2.21,4.85,7.73,10.63,11.79,14.05,4.93,4.15,9.76,7.34,15.63,7.34,3.33,0,6.58-.85,9.68-2.52l71.52-38.65c6.36-3.44,13.54-5.26,20.77-5.26s12.95,2.02,19.89,4.79l9.89,5.06v-.04s41.91,13.98,60.77-.45c18.73-14.34,21.34-32.86,20.19-48.53l-3.81-20.79c-2.6-14.15,1.94-28.66,12.12-38.82l57.25-57.09c5.66-5.64,7.79-14.05,5.11-21.58-2.61-7.33-8.75-12.31-16.5-13.34l-72.94-9.75c-8.82-1.18-16.71-6.11-21.58-13.55-4.56-6.96-8.91-16.07-13.53-25.56l4.71,9.28c4.78,9.4,13.87,15.85,24.32,17.25l80.58,10.76c26.31,3.52,37.17,35.68,18.37,54.44l-57.55,57.4Z"/>
    <ellipse class="cls-12" cx="916.02" cy="398.83" rx="11.83" ry="8.76" transform="translate(112.62 992.71) rotate(-60)"/>
    <circle class="cls-12" cx="903.86" cy="419.13" r="6.41"/>
    <polygon class="cls-12" points="798.78 476.84 792.78 480.12 789.51 486.12 786.23 480.12 780.23 476.84 786.23 473.56 789.51 467.57 792.78 473.56 798.78 476.84"/>
    <ellipse class="cls-6" cx="878.37" cy="499.06" rx="30.46" ry="38.02"/>
    <ellipse class="cls-7" cx="883.4" cy="498.37" rx="25.42" ry="34.35"/>
    <ellipse class="cls-10" cx="891.5" cy="485.85" rx="7.94" ry="10.23"/>
    <circle class="cls-10" cx="879.28" cy="503.41" r="4.28"/>
    <ellipse class="cls-6" cx="1000.82" cy="497.23" rx="30.46" ry="38.02"/>
    <ellipse class="cls-7" cx="995.78" cy="496.54" rx="25.42" ry="34.35"/>
    <ellipse class="cls-10" cx="987.69" cy="484.02" rx="7.94" ry="10.23"/>
    <circle class="cls-10" cx="999.9" cy="501.58" r="4.28"/>
    <ellipse class="cls-2" cx="865.24" cy="546.47" rx="25.8" ry="16.03"/>
    <ellipse class="cls-2" cx="1020.13" cy="545.09" rx="25.8" ry="16.03"/>
    <path class="cls-5" d="M942.22,567.7c-.42,0-.85,0-1.28-.02-12.94-.47-22.87-8.13-28.33-13.56-2.67-2.66-2.24-6.99,.92-9.09h0c2.5-1.67,5.89-1.37,8,.73,3.98,3.97,11.17,9.65,19.94,9.95,7.56,.27,15.25-3.55,22.91-11.34,2.23-2.27,5.91-2.5,8.43-.53h0c2.84,2.21,3.08,6.27,.56,8.82-9.86,9.99-20.32,15.05-31.16,15.04Z"/>
  </g>
</svg>