<?xml version="1.0" encoding="UTF-8"?>
<svg xmlns="http://www.w3.org/2000/svg" xmlns:xlink="http://www.w3.org/1999/xlink" viewBox="0 0 1920 1080">
  <defs>
    <style>
      .cls-1 {
        fill: #4c235d;
      }

      .cls-2 {
        fill: #f39954;
      }

      .cls-3 {
        isolation: isolate;
      }

      .cls-4 {
        fill: #f97864;
      }

      .cls-5 {
        fill: #5b386c;
      }

      .cls-6 {
        fill: #fef8d2;
      }

      .cls-7 {
        fill: #4e245d;
      }

      .cls-8 {
        fill: url(#linear-gradient);
        stroke: #5b386c;
        stroke-miterlimit: 10;
        stroke-width: 9px;
      }

      .cls-9 {
        fill: #fbd554;
      }

      .cls-10 {
        fill: #fbd261;
      }

      .cls-11 {
        fill: #f47964;
      }

      .cls-12 {
        fill: #fefeef;
      }

      .cls-13 {
        fill: url(#radial-gradient);
        mix-blend-mode: screen;
        opacity: .48;
      }

      .cls-14 {
        fill: #d9a953;
      }

      .cls-15 {
        fill: #fdf8d0;
      }

      .cls-16 {
        fill: #fbeeba;
      }
    </style>
    <linearGradient id="linear-gradient" x1="947.97" y1="132.62" x2="946.82" y2="945.29" gradientUnits="userSpaceOnUse">
      <stop offset="0" stop-color="#f75b4e"/>
      <stop offset=".07" stop-color="#f75e4e"/>
      <stop offset=".12" stop-color="#f76750"/>
      <stop offset=".17" stop-color="#f87852"/>
      <stop offset=".21" stop-color="#f98f56"/>
      <stop offset=".26" stop-color="#faad5a"/>
      <stop offset=".26" stop-color="#fbb45c"/>
      <stop offset=".32" stop-color="#fab85b"/>
      <stop offset=".38" stop-color="#f9c758"/>
      <stop offset=".45" stop-color="#f7de54"/>
      <stop offset=".49" stop-color="#f6ef52"/>
      <stop offset=".57" stop-color="#e3ed5b"/>
      <stop offset=".7" stop-color="#b8ea71"/>
      <stop offset=".74" stop-color="#b5e973"/>
      <stop offset=".76" stop-color="#afe77c"/>
      <stop offset=".78" stop-color="#a4e38c"/>
      <stop offset=".8" stop-color="#94dea1"/>
      <stop offset=".82" stop-color="#80d7bd"/>
      <stop offset=".84" stop-color="#67cfdf"/>
      <stop offset=".84" stop-color="#67cfe0"/>
      <stop offset="1" stop-color="#bc6be4"/>
    </linearGradient>
    <radialGradient id="radial-gradient" cx="946.19" cy="509.36" fx="946.19" fy="509.36" r="263.97" gradientTransform="translate(1228.09 1565.58) rotate(-135) scale(1 1.07)" gradientUnits="userSpaceOnUse">
      <stop offset="0" stop-color="#fff"/>
      <stop offset=".16" stop-color="#fdeeba"/>
      <stop offset=".41" stop-color="#fbd554"/>
      <stop offset=".65" stop-color="#907a30"/>
      <stop offset=".89" stop-color="#29220d"/>
      <stop offset="1" stop-color="#000"/>
    </radialGradient>
  </defs>
  <g class="cls-3">
    <g id="Layer_1" data-name="Layer 1">
      <path class="cls-8" d="M947.43,927.46c-108.54,0-210.58-42.26-287.33-119.01-76.75-76.74-119.01-178.78-119.01-287.31,0-45.89,7.6-90.93,22.59-133.87,56.82-162.97,211.04-272.48,383.76-272.48s326.92,109.51,383.75,272.49c14.98,42.92,22.58,87.96,22.58,133.85,0,108.53-42.27,210.57-119.01,287.31-76.75,76.75-178.78,119.01-287.31,119.01Z"/>
      <path class="cls-5" d="M947.43,894.04c-97.85,0-189.84-38.1-259.03-107.29-69.19-69.19-107.29-161.18-107.29-259.02,0-41.38,6.85-81.99,20.35-120.68,51.22-146.93,190.26-245.65,345.97-245.65s294.73,98.72,345.96,245.65c13.5,38.69,20.35,79.29,20.35,120.68,0,97.84-38.1,189.83-107.29,259.02-69.19,69.19-161.18,107.29-259.02,107.29Z"/>
      <path class="cls-10" d="M1298.12,527.72c0,193.68-157.01,350.69-350.69,350.69s-350.7-157.01-350.7-350.69c0-40.48,6.85-79.35,19.48-115.53,47.74-136.92,178-235.17,331.22-235.17s283.47,98.25,331.21,235.17c12.63,36.18,19.48,75.05,19.48,115.53Z"/>
      <path class="cls-16" d="M1276.57,416.23c-47.68,139.73-177.75,239.98-330.72,239.98s-283.05-100.25-330.73-239.98c47.67-139.73,177.74-240,330.73-240s283.05,100.27,330.72,240Z"/>
      <g>
        <path class="cls-5" d="M1150.37,733.9c-5.97,4.74-13.46,6.91-21.75,6.3-16.21-1.2-36.3-13.04-61.42-36.2-17.33-15.98-30.56-31.46-31.11-32.11l11.17-9.51-10.34-11.66,53.16-47.16,8.99,8.89c.63,.62,15.53,15.41,30.53,34.26,21.82,27.43,32.18,48.6,31.68,64.74-.27,8.73-3.68,16.19-9.86,21.58-.34,.3-.7,.59-1.05,.88Zm-86.32-71.17c20.74,22.57,51.05,49.39,66.56,50.54,2.19,.16,2.8-.37,3.06-.59,.21-.19,.57-.5,.62-2.08,.46-14.65-24.36-47.25-45.43-69.88l-24.82,22.01Z"/>
        <path class="cls-9" d="M1046.37,663.13s70.18,82.4,96.18,59.72c26-22.68-52.97-100.81-52.97-100.81l-43.7,38.77"/>
        <path class="cls-5" d="M910.87,804.08c-7.46-1.57-13.91-5.94-18.73-12.72-9.42-13.25-13.14-36.27-11.35-70.38,1.24-23.54,4.71-43.6,4.85-44.45l14.45,2.52,2.37-15.4,70.24,10.81-1.11,12.6c-.08,.88-1.95,21.8-6.88,45.38-7.18,34.31-16.86,55.8-29.6,65.71-6.89,5.36-14.81,7.5-22.9,6.19-.45-.07-.9-.16-1.35-.25Zm-.33-111.87c-4.13,30.37-5.42,70.83,3.6,83.5,1.27,1.79,2.07,1.92,2.41,1.97,.28,.05,.75,.12,2-.85,11.57-9,20.82-48.92,24.78-79.58l-32.79-5.05Z"/>
        <path class="cls-9" d="M951.02,731.94c-6.41,29.65-17.79,62.12-36.63,59.07-14.93-2.43-19.73-24.26-20.42-48.02-.9-30.47,4.98-64.14,4.98-64.14l1.47-1.86,57.74,8.88s-1.94,22.11-7.14,46.07Z"/>
        <path class="cls-5" d="M833.23,554.73l-41.13-9.39-.35-.06c-10.89-1.89-66.48-10.66-91.37,2.37-11.68,6.11-14.4,15.35-14.98,20.3-1.42,12.12,2.6,23.81,11.63,33.8,19.32,21.37,59.61,32.68,113.46,31.83l1.36-.02,38.42-8.43-17.03-70.4Z"/>
        <path class="cls-9" d="M789.44,558.58s-87.57-15.2-90.64,10.95c-3.07,26.15,32.51,51.81,111.47,50.57l23.62-5.19-11.83-48.88-32.63-7.45Z"/>
        <g>
          <path class="cls-5" d="M1056.02,494.19l28.56-31.05,.25-.25c7.9-7.73,48.72-46.47,76.61-49.85,13.09-1.58,20.56,4.48,23.85,8.23,8.04,9.18,11.36,21.09,9.58,34.44-3.79,28.56-30.58,60.72-75.42,90.55l-1.13,.75-36.43,14.83-25.88-67.65Z"/>
          <path class="cls-9" d="M1111.98,535.03l-22.4,9.12-17.97-46.97,2.53-2.75,20.12-21.89s31.52-30.84,56.22-42.16c10.37-4.75,19.53-6.07,24.66-.21,17.34,19.81,2.58,61.11-63.16,104.86Z"/>
          <path class="cls-14" d="M1150.98,430.22l-37.04,103.32s-20.85-6.02-21.09-6.53c-.16-.34-11.14-19.45-18.7-32.59l20.12-21.89s32.01-31,56.71-42.31Z"/>
        </g>
        <path class="cls-14" d="M716.4,556.32l97.54,63.46s13.76-16.78,13.67-17.33c-.06-.37-1.85-22.33-3.07-37.45l-28.99-6.62s-52.39-6.73-79.15-2.05Z"/>
        <path class="cls-14" d="M951.02,731.94l-57.05,11.04c-.9-30.47,4.98-64.14,4.98-64.14l1.47-1.86,57.74,8.88s-1.94,22.11-7.14,46.07Z"/>
        <path class="cls-14" d="M1072.93,690.61l60.26-15.66c-12.84-27.65-33.16-55.13-33.16-55.13l-2.15-1-67.14,44.68s25.02,9.76,42.18,27.11Z"/>
        <path class="cls-5" d="M894.34,753.12c-14.22,4.17-29.57,1.85-42.13-6.36-12.48-8.16-20.4-20.89-22.31-35.85l-11.91-93.34c-.98-7.7-5.69-14.42-12.59-17.98l-83.65-43.1c-17.24-8.88-27.74-26.45-27.41-45.84,.34-19.39,11.44-36.58,28.98-44.87l85.09-40.17c7.02-3.31,11.96-9.87,13.21-17.53l15.15-92.87c3.16-19.39,16.84-34.87,35.7-40.4,18.37-5.39,37.93-.07,51.06,13.87l64.5,68.51c5.32,5.65,13.08,8.32,20.76,7.15l93.01-14.29c19.17-2.95,37.99,5.09,49.12,20.98,11.13,15.89,12.25,36.32,2.93,53.33l-45.23,82.52c-3.73,6.81-3.87,15.01-.38,21.95l42.34,84.04c6.78,13.47,7.27,29.04,1.33,42.73-6.06,13.97-17.81,24.41-32.22,28.64-7.67,2.25-15.64,2.61-23.7,1.09l-92.46-17.52c-3.65-.69-7.46-.5-11.03,.54-3.75,1.1-7.19,3.13-9.96,5.88l-66.85,66.23c-6.11,6.06-13.29,10.32-21.33,12.68Z"/>
        <path class="cls-9" d="M1097.99,671.76l-92.46-17.52c-11.99-2.27-24.34,1.5-33.01,10.09l-66.84,66.23c-21.83,21.63-59,8.84-62.89-21.65l-11.91-93.34c-1.55-12.11-8.95-22.68-19.8-28.27l-83.65-43.11c-27.32-14.08-26.64-53.38,1.15-66.5l85.09-40.17c11.04-5.21,18.8-15.52,20.77-27.57l15.15-92.87c4.95-30.34,42.53-41.83,63.6-19.45l64.5,68.52c8.37,8.89,20.57,13.09,32.64,11.23l93.01-14.29c30.38-4.67,52.93,27.53,38.15,54.48l-45.23,82.52c-5.87,10.7-6.09,23.61-.6,34.51l42.34,84.04c13.83,27.45-9.82,58.84-40.02,53.12Z"/>
        <path class="cls-13" d="M1100.11,673.88l-92.46-17.52c-11.99-2.27-24.34,1.5-33.01,10.09l-66.84,66.23c-21.83,21.63-59,8.84-62.89-21.65l-11.91-93.34c-1.55-12.11-8.95-22.68-19.8-28.27l-83.65-43.11c-27.32-14.08-26.64-53.38,1.15-66.5l85.09-40.17c11.04-5.21,18.8-15.52,20.77-27.57l15.15-92.87c4.95-30.34,42.53-41.83,63.6-19.45l64.5,68.52c8.37,8.89,20.57,13.09,32.64,11.23l93.01-14.29c30.38-4.67,52.93,27.53,38.15,54.48l-45.23,82.52c-5.87,10.7-6.09,23.61-.6,34.51l42.34,84.04c13.83,27.45-9.82,58.84-40.02,53.12Z"/>
        <g>
          <path class="cls-15" d="M735.98,548.56c-26.83-13.71-20.72-52.41,6.61-65.28l78.99-40.18c10.86-5.11,23.22-14.44,25.17-26.22l15.05-90.8c4.04-24.38,23.25-42,43.11-35.12-21.36-12.19-50.51-.07-54.82,26.39l-15.15,92.87c-1.96,12.05-9.73,22.36-20.77,27.57l-85.09,40.17c-27.8,13.12-28.48,52.42-1.15,66.5"/>
          <path class="cls-15" d="M1014.95,383.96l91.43-14.14c18.27-2.83,33.61,7.84,39.45,22.59-3.86-18-21.07-32.26-41.99-29.05l-93.01,14.29c-6.84,1.05-13.73,.15-19.93-2.44,7.51,5.58,16.35,9.94,24.05,8.75Z"/>
          <path class="cls-15" d="M1100.55,671.51l-90.83-16.95c-2.64-.49-5.3-.67-7.94-.58,1.42,.1,2.83,.28,4.25,.55l92.46,17.52c6.73,1.27,13.13,.7,18.86-1.26-5.18,1.48-10.86,1.84-16.8,.73Z"/>
        </g>
        <path class="cls-2" d="M1096.77,500.36c-5.86,10.7-6.09,23.6-.6,34.5l11.61,23.04,30.73,61c13.83,27.45-9.82,58.84-40.02,53.12l-72.76-13.78-19.7-3.73c-11.99-2.27-24.33,1.5-33,10.09l-66.84,66.23c-21.84,21.64-59,8.85-62.89-21.65l-1.75-13.73,3.55,9.3c1.06,3.07,2.33,5.42,4.24,7.62,4.04,4.66,12.06,9.29,17.68,11.77,6.83,3.01,13.23,4.97,19.75,3.06,3.7-1.08,7.04-3.09,9.93-5.95l66.85-66.24c5.95-5.89,13.33-10.25,21.36-12.61,7.64-2.24,15.04-1.97,23.65-1.16l12.64,2.4v-.05s51.1,1.87,67.34-20.31c16.14-22.03,12.99-43.46,6.61-60.49l-11.01-21.86c-7.5-14.87-7.19-32.47,.81-47.07l44.99-82.08c4.45-8.11,4.07-18.14-1.35-25.64-5.29-7.29-13.73-10.82-22.67-9.44l-84.21,12.94c-10.18,1.56-20.55-1.34-28.39-8.02-7.33-6.25-15.13-14.94-23.35-23.98l8.26,8.78c8.37,8.88,20.57,13.09,32.63,11.24l93.02-14.3c30.37-4.67,52.92,27.53,38.15,54.49l-45.23,82.52Z"/>
        <ellipse class="cls-15" cx="871.78" cy="370.05" rx="13.69" ry="10.14" transform="translate(306.44 1129.86) rotate(-76.35)"/>
        <circle class="cls-15" cx="864.88" cy="396.56" r="7.42"/>
        <polygon class="cls-15" points="766.96 494.92 761.37 500.51 759.68 508.24 754.08 502.65 746.35 500.96 751.94 495.37 753.63 487.64 759.23 493.23 766.96 494.92"/>
        <polygon class="cls-15" points="1118.69 378.29 1102.36 394.63 1097.42 417.2 1081.08 400.87 1058.51 395.94 1074.84 379.6 1079.77 357.03 1096.12 373.36 1118.69 378.29"/>
        <polygon class="cls-15" points="1113.32 613.89 1099.9 627.31 1095.85 645.86 1082.42 632.44 1063.88 628.39 1077.29 614.96 1081.35 596.42 1094.78 609.83 1113.32 613.89"/>
        <ellipse class="cls-6" cx="862.61" cy="493.66" rx="35.26" ry="44.01" transform="translate(-104.08 262.77) rotate(-16.35)"/>
        <ellipse class="cls-7" cx="867.98" cy="491.26" rx="29.43" ry="39.77" transform="translate(-103.19 264.19) rotate(-16.35)"/>
        <circle class="cls-12" cx="863.72" cy="512.51" r="4.95"/>
        <ellipse class="cls-6" cx="998.03" cy="451.72" rx="35.26" ry="44.01" transform="translate(-86.8 299.2) rotate(-16.35)"/>
        <ellipse class="cls-7" cx="992.21" cy="452.6" rx="29.43" ry="39.77" transform="translate(-87.28 297.6) rotate(-16.35)"/>
        <circle class="cls-12" cx="1005.15" cy="466.75" r="4.95"/>
        <ellipse class="cls-4" cx="863.47" cy="550.6" rx="29.87" ry="18.56" transform="translate(-120.07 265.32) rotate(-16.35)"/>
        <ellipse class="cls-4" cx="1035.09" cy="498.6" rx="29.87" ry="18.56" transform="translate(-98.5 311.53) rotate(-16.35)"/>
        <polygon class="cls-12" points="873.37 504.41 862.75 491.51 846.86 486.38 859.75 475.76 864.89 459.87 875.5 472.76 891.4 477.89 878.5 488.51 873.37 504.41"/>
        <polygon class="cls-12" points="991.88 468.09 981.27 455.19 965.37 450.06 978.27 439.44 983.4 423.54 994.02 436.44 1009.91 441.57 997.02 452.19 991.88 468.09"/>
        <path class="cls-1" d="M907.29,526.82c2.13-.51,73.98-27.38,73.98-27.38,0,0,20.02-.97,19.04,42.91s-25.45,50.63-25.45,50.63c0,0-29.24,16-57.79-21.49-28.54-37.49-9.79-44.67-9.79-44.67Z"/>
        <path class="cls-11" d="M930.04,571.82c.57-.33,17.42-39.4,60.42-21.04,0,0,2.39,25.44-21.07,34.22-23.46,8.78-39.36-13.18-39.36-13.18Z"/>
      </g>
    </g>
  </g>
</svg>