<?xml version="1.0" encoding="UTF-8"?>
<svg id="Layer_1" data-name="Layer 1" xmlns="http://www.w3.org/2000/svg" xmlns:xlink="http://www.w3.org/1999/xlink" viewBox="0 0 1920 1080">
  <defs>
    <style>
      .cls-1 {
        fill: #40b8a5;
      }

      .cls-2 {
        fill: #4c235d;
      }

      .cls-3 {
        fill: #f39954;
      }

      .cls-4 {
        fill: #6ff0d1;
      }

      .cls-5 {
        fill: #f97864;
      }

      .cls-6 {
        fill: #e19e73;
      }

      .cls-7 {
        fill: #dd9a73;
      }

      .cls-8 {
        fill: #ffdfa2;
      }

      .cls-9 {
        fill: #f97d6b;
      }

      .cls-10 {
        fill: #5b386c;
      }

      .cls-11 {
        fill: url(#linear-gradient);
        stroke: #5b386c;
        stroke-miterlimit: 10;
        stroke-width: 9px;
      }

      .cls-12 {
        fill: #fbd554;
      }

      .cls-13 {
        fill: #fefdff;
      }

      .cls-14 {
        fill: #471743;
      }

      .cls-15 {
        fill: #f2b275;
      }

      .cls-16 {
        fill: #d9a953;
      }

      .cls-17 {
        fill: #fdf8d0;
      }

      .cls-18 {
        fill: #b9795d;
      }
    </style>
    <linearGradient id="linear-gradient" x1="428.35" y1="540.8" x2="1308.96" y2="540.8" gradientUnits="userSpaceOnUse">
      <stop offset="0" stop-color="#6ff0d1"/>
      <stop offset=".24" stop-color="#6cecce"/>
      <stop offset=".43" stop-color="#64e3c6"/>
      <stop offset=".6" stop-color="#56d2b9"/>
      <stop offset=".75" stop-color="#43bba7"/>
      <stop offset=".77" stop-color="#40b8a5"/>
    </linearGradient>
  </defs>
  <path class="cls-11" d="M868.66,981.11c-117.61,0-228.19-45.8-311.35-128.96-83.16-83.16-128.96-193.73-128.96-311.34,0-49.72,8.23-98.53,24.47-145.06,61.57-176.6,228.69-295.26,415.84-295.26s354.25,118.66,415.83,295.28c16.23,46.51,24.47,95.32,24.47,145.04,0,117.61-45.8,228.18-128.96,311.34-83.16,83.16-193.73,128.96-311.34,128.96Z"/>
  <path class="cls-10" d="M868.66,944.89c-106.03,0-205.72-41.29-280.69-116.26-74.97-74.97-116.26-174.65-116.26-280.68,0-44.84,7.42-88.84,22.05-130.77,55.51-159.21,206.17-266.19,374.9-266.19s319.38,106.97,374.89,266.19c14.63,41.92,22.05,85.92,22.05,130.77,0,106.03-41.29,205.71-116.26,280.68-74.97,74.97-174.65,116.26-280.68,116.26Z"/>
  <path class="cls-1" d="M1248.67,547.95c0,209.87-170.14,380.01-380.01,380.01s-380.03-170.14-380.03-380.01c0-43.87,7.42-85.98,21.11-125.19,51.73-148.37,192.88-254.83,358.92-254.83s307.17,106.46,358.9,254.83c13.68,39.21,21.11,81.32,21.11,125.19Z"/>
  <path class="cls-4" d="M1231.27,429.84c-51.72,149.84-192.8,257.34-358.71,257.34s-307.01-107.5-358.73-257.34c51.7-149.84,192.78-257.36,358.73-257.36s307.01,107.52,358.71,257.36Z"/>
  <g>
    <path class="cls-10" d="M939.14,829.68c-7.6,0-14.8-2.95-20.9-8.58-11.92-11-20.27-32.71-25.52-66.38-3.62-23.24-4.35-43.53-4.38-44.38l14.63-.5-.85-15.52,70.78-3.86,1.51,12.53c.11,.87,2.57,21.68,2.6,45.71,.03,34.96-5.01,57.93-15.41,70.22-5.63,6.65-12.92,10.36-21.09,10.74-.46,.02-.91,.03-1.36,.03Zm-23.28-109.14c2.2,30.5,9.24,70.25,20.65,80.77,1.61,1.48,2.41,1.45,2.76,1.43,.28-.01,.76-.03,1.78-1.24,9.45-11.16,10.28-52.02,7.87-82.77l-33.04,1.8Z"/>
    <path class="cls-12" d="M901.8,709.88s3.7,107.91,38.08,106.32c34.38-1.59,21.16-111.61,21.16-111.61l-58.18,3.17"/>
    <path class="cls-10" d="M833.53,831.79c-7.6,0-14.8-2.95-20.9-8.58-11.92-11-20.27-32.71-25.52-66.38-3.62-23.24-4.35-43.53-4.38-44.38l14.63-.5-.85-15.52,70.78-3.86,1.51,12.53c.11,.87,2.57,21.68,2.6,45.71,.03,34.96-5.01,57.93-15.41,70.22-5.63,6.65-12.92,10.36-21.09,10.74-.46,.02-.91,.03-1.36,.03Zm-23.28-109.14c2.2,30.5,9.24,70.25,20.65,80.77,1.61,1.48,2.41,1.45,2.76,1.43,.28-.01,.76-.03,1.78-1.24,9.45-11.16,10.28-52.02,7.87-82.77l-33.04,1.8Z"/>
    <path class="cls-12" d="M857.92,753.14c-.18,30.26-4.62,64.3-23.64,65.18-15.07,.69-24.24-19.63-29.79-42.69-7.13-29.56-8.3-63.63-8.3-63.63l1.06-2.11,58.18-3.18s2.64,21.98,2.49,46.44Z"/>
    <path class="cls-10" d="M1021.84,570.52l37.8,18.5,.31,.17c9.64,5.36,58.27,33.42,69.4,59.13,5.23,12.07,1.55,20.93-1.11,25.14-6.5,10.3-16.95,16.84-30.22,18.93-28.39,4.47-66.74-12.02-107.99-46.45l-1.04-.87-24.52-30.63,57.36-43.94Z"/>
    <path class="cls-12" d="M998.66,635.63l-15.08-18.84,39.82-30.51,3.35,1.64,26.64,13.04s38.44,21.4,56.26,41.81c7.48,8.57,11.34,16.95,7.2,23.52-14.02,22.2-57.71,19.8-118.19-30.66Z"/>
    <path class="cls-10" d="M765.02,608.93l-31.49-27.92-.28-.22c-8.62-6.87-53.06-41.18-81.08-41.7-13.15-.24-19.95,6.53-22.83,10.59-7.05,9.92-9.13,22.08-6.02,35.15,6.66,27.96,36.5,57.15,84.02,82.21l1.2,.63,37.65,11.03,18.82-69.76Z"/>
    <path class="cls-12" d="M724.86,591.32s-69.33-55.25-84.55-33.84c-15.21,21.41,3.63,60.91,73.31,97.65l23.15,6.78,13.07-48.43-24.98-22.16Z"/>
    <path class="cls-16" d="M1109.95,643.19l-109.32-6.12s-.15-21.65,.26-22.02c.28-.24,15.44-16.17,25.86-27.13l26.64,13.04s38.73,21.82,56.55,42.23Z"/>
    <path class="cls-16" d="M662.04,554.35l54.94,102.25s20.08-8.09,20.27-8.62c.12-.35,9.08-20.43,15.26-34.24l-22.19-19.68s-42.62-30.99-68.27-39.71Z"/>
    <path class="cls-16" d="M857.92,753.14l-53.43,22.49c-7.13-29.56-8.3-63.63-8.3-63.63l1.06-2.11,58.18-3.18s2.64,21.98,2.49,46.44Z"/>
    <path class="cls-16" d="M905.51,747.83l56.79,25.15c7.13-29.56,8.3-63.63,8.3-63.63l-1.06-2.11-80.16-6.75s13.49,23.14,16.13,47.34Z"/>
    <path class="cls-14" d="M1013.55,455.69c-12.55,.26-31.95-1.05-56.51-2.71-24-1.63-53.88-3.65-87.4-4.86-90.84-3.29-159.51-42.91-160.19-43.31l-8.31-4.87,21.34-13.61,.73-.15c44.55-9.26,45.7-9.29,46.14-9.3,1.25-.03,44.87,.8,53.6,.96,17.64,.1,59.2,.45,62.98,1.42,2.87,.72,53.17,9.17,86.27,14.68l.79,.13,.71,.44c.14,.09,14.34,8.91,28.53,18.94,30.39,21.48,31.23,27.57,31.68,30.83,.34,2.46-.27,4.87-1.68,6.6-2.65,3.26-7.71,4.55-18.67,4.78h0Z"/>
    <path class="cls-18" d="M705.74,398.54s69.34,36.91,162.96,39.83c93.62,2.92,157.29,11.31,163.91,3.89,6.62-7.42-58.92-44.41-58.92-44.41,0,0-85.36-12.8-89.18-13.69s-63.95-1.1-63.95-1.1c0,0-53.78-.83-55.05-.8-1.27,.03-46.81,8.74-46.81,8.74l-12.97,7.55Z"/>
    <path class="cls-10" d="M762.35,778.04c-14.78,0-28.83-6.53-38.54-17.92-9.65-11.32-13.66-25.73-11.29-40.58l14.81-92.69c1.22-7.65-1.4-15.4-7-20.75l-67.96-64.75c-14.01-13.35-19.13-33.11-13.36-51.58,5.77-18.47,21.23-31.81,40.34-34.81l92.73-14.56c7.65-1.2,14.22-6.09,17.57-13.07l40.58-84.65c8.47-17.67,25.91-28.65,45.51-28.65s36.33,10.58,44.98,27.61l42.5,83.69c3.51,6.91,10.18,11.64,17.86,12.67l93.04,12.43c19.18,2.56,34.94,15.54,41.12,33.87,6.19,18.33,1.52,38.21-12.17,51.87l-66.46,66.29c-5.48,5.47-7.92,13.28-6.53,20.9l16.93,92.33c2.71,14.79-1.2,29.84-10.73,41.27-9.73,11.67-23.9,18.37-38.88,18.37-7.97,0-15.7-1.89-22.99-5.61l-83.58-42.73c-3.3-1.69-7-2.58-10.71-2.58-3.89,0-7.76,.98-11.19,2.83l-82.58,44.63c-7.55,4.08-15.62,6.15-23.98,6.15Z"/>
    <path class="cls-12" d="M980.13,757.35l-83.58-42.73c-10.84-5.54-23.72-5.39-34.43,.39l-82.58,44.63c-26.97,14.58-58.96-8.1-54.12-38.38l14.81-92.69c1.92-12.02-2.2-24.22-11.01-32.62l-67.96-64.75c-22.2-21.15-10.51-58.57,19.78-63.33l92.73-14.56c12.03-1.89,22.36-9.58,27.62-20.55l40.58-84.65c13.25-27.65,52.46-28.1,66.34-.76l42.5,83.69c5.51,10.86,16.02,18.3,28.08,19.92l93.04,12.43c30.39,4.06,42.93,41.21,21.22,62.86l-66.46,66.29c-8.62,8.6-12.46,20.89-10.26,32.86l16.93,92.33c5.53,30.16-25.92,53.57-53.23,39.61Z"/>
    <g>
      <path class="cls-17" d="M668.21,537.77c-21.83-20.66-5.12-55.98,24.66-60.63l86.89-16.28c11.83-1.85,26.28-7.31,31.45-18.03l39.9-82.68c10.71-22.2,34.04-33.67,51.12-21.51-17.02-17.66-48.33-14.25-59.89,9.87l-40.58,84.65c-5.26,10.98-15.59,18.67-27.62,20.55l-92.73,14.56c-30.29,4.76-41.98,42.18-19.78,63.33"/>
      <path class="cls-17" d="M981.45,458.55l91.48,12.14c18.28,2.43,29.97,16.95,31.42,32.7,1.36-18.31-11.11-36.8-32.03-39.59l-93.04-12.43c-6.84-.91-13.18-3.71-18.4-7.94,5.62,7.45,12.86,14.11,20.56,15.13Z"/>
      <path class="cls-17" d="M982.65,757.82l-82.18-41.73c-2.39-1.21-4.89-2.13-7.44-2.79,1.33,.49,2.63,1.06,3.91,1.71l83.58,42.73c6.08,3.11,12.37,4.35,18.41,4.09-5.38-.04-10.91-1.29-16.29-4.02Z"/>
    </g>
    <path class="cls-3" d="M1027.08,592.94c-8.62,8.6-12.46,20.88-10.27,32.86l4.64,25.32,12.29,67.02c5.53,30.15-25.92,53.56-53.22,39.61l-65.78-33.62-17.81-9.11c-10.84-5.54-23.71-5.4-34.42,.39l-82.58,44.62c-26.98,14.58-58.96-8.1-54.12-38.38l2.18-13.63,.78,9.89c.15,3.24,.71,5.84,1.91,8.48,2.56,5.6,8.93,12.28,13.62,16.23,5.69,4.8,11.27,8.47,18.04,8.47,3.84,0,7.6-.98,11.18-2.91l82.59-44.64c7.34-3.97,15.64-6.07,23.99-6.07s14.95,2.33,22.96,5.53l11.43,5.84v-.05s48.4,16.14,70.18-.52c21.63-16.56,24.64-37.95,23.31-56.04l-4.4-24.01c-3-16.34,2.24-33.1,13.99-44.83l66.11-65.93c6.54-6.52,8.99-16.22,5.9-24.92-3.01-8.46-10.1-14.21-19.05-15.4l-84.24-11.26c-10.18-1.37-19.3-7.05-24.92-15.65-5.26-8.04-10.29-18.55-15.62-29.51l5.44,10.72c5.52,10.86,16.01,18.3,28.08,19.92l93.05,12.43c30.38,4.06,42.93,41.21,21.21,62.87l-66.46,66.28Z"/>
    <ellipse class="cls-17" cx="848.32" cy="405.03" rx="13.66" ry="10.11" transform="translate(73.39 937.18) rotate(-60)"/>
    <circle class="cls-17" cx="834.27" cy="428.48" r="7.41"/>
    <polygon class="cls-17" points="712.92 495.12 706 498.91 702.21 505.83 698.43 498.91 691.5 495.12 698.43 491.34 702.21 484.41 706 491.34 712.92 495.12"/>
    <ellipse class="cls-5" cx="789.67" cy="575.52" rx="29.8" ry="18.51"/>
    <ellipse class="cls-5" cx="968.54" cy="573.94" rx="29.8" ry="18.51"/>
    <path class="cls-10" d="M905.8,535.86c-3.54,.61-6.94-1.48-7.24-4.48-.7-6.97-.47-19,7.43-27.61,5.47-5.96,13.45-9.25,23.74-9.78,9.9-.52,18.11,1.91,24.31,7.18,9.78,8.31,11.7,21.7,11.95,29.24,.1,3-2.94,5.41-6.53,5.16h0c-3.06-.21-5.46-2.29-5.55-4.84-.22-6.65-1.98-16.98-8.53-22.52-3.69-3.12-8.55-4.48-14.91-4.16-6.71,.34-11.57,2.25-14.85,5.81-5.49,5.96-5.56,15.18-5.01,20.61,.26,2.55-1.79,4.86-4.8,5.38h-.02Z"/>
    <path class="cls-10" d="M784.79,536.32c-3.54,.61-6.94-1.48-7.24-4.48-.7-6.97-.47-19,7.43-27.61,5.47-5.96,13.45-9.25,23.74-9.78,9.9-.52,18.11,1.91,24.31,7.18,9.78,8.31,11.7,21.7,11.95,29.24,.1,3-2.94,5.41-6.53,5.16h0c-3.06-.21-5.46-2.29-5.55-4.84-.22-6.65-1.98-16.98-8.53-22.52-3.69-3.12-8.55-4.48-14.91-4.16-6.71,.34-11.57,2.25-14.85,5.81-5.49,5.96-5.56,15.18-5.01,20.61,.26,2.55-1.79,4.86-4.8,5.38h-.02Z"/>
    <path class="cls-2" d="M878.73,573.32s25.47-2.39,33.43-3.98c7.96-1.59,20.43,3.45,19.37,15.39s-.27,24.14-20.16,36.88c-19.9,12.74-38.47,11.67-51.74,5.84-13.27-5.84-28.65-17.51-32.9-37.94-4.25-20.43,16.72-20.43,29.98-18.31,13.27,2.12,22.02,2.12,22.02,2.12Z"/>
    <path class="cls-9" d="M845.03,609.85c-.85-.73,31.13-32.55,71.46-3.01,0,0-29.36,39.09-71.46,3.01Z"/>
    <g>
      <path class="cls-14" d="M901.82,360.8c-3.25-.08-4.11-.19-4.68-.37-1.71-.3-11.87-.87-20.86-1.38-17.3-.98-29.8-1.73-33.1-2.46-6-1.33-30.31-8.92-31.34-9.24l-2.54-.79-.66-11.89,.4-.95c2.54-6.03,25.45-58.91,47.97-58.36,1.75,.04,3.47,.4,5.11,1.06l.34,.14,.31,.2c9.64,6.42,21.6,13.49,24.75,14.11,.82-.31,2.43-1.04,4-1.74,6.99-3.14,18.68-8.39,26.35-8.21,1.41,.03,2.64,.24,3.75,.62,9.46,3.26,34.38,30.25,37.05,74.59l.26,4.35-3.97,.06c-1.64,.02-40.4,.56-53.13,.25Z"/>
      <path class="cls-15" d="M812.45,335.43s26.88-63.85,48.37-55.15c0,0,23.66,15.77,27.3,14.69,3.64-1.08,24.34-12.26,32.36-9.5,8.02,2.77,31.87,28.12,34.44,70.95,0,0-54.7,.77-56.81,.02-2.11-.75-48.24-2.58-54.16-3.89-5.93-1.31-31.06-9.17-31.06-9.17l-.44-7.96Z"/>
      <g>
        <path class="cls-7" d="M812.52,335.26c-.05,.11-.07,.17-.07,.17l.34,6.11-.27-6.28Z"/>
        <path class="cls-7" d="M812.85,342.68l.04,.71s5.67,1.77,12.26,3.78c-6.34-2.27-12.13-4.42-12.3-4.48Z"/>
        <path class="cls-7" d="M920.48,285.47c-1.63-.56-3.78-.54-6.21-.16,9.09,9.91,22.77,34.32,24.45,70.62,0,0-25.68,.56-40.39,.56,4.24,.67,56.59-.07,56.59-.07-2.57-42.83-26.43-68.19-34.44-70.95Z"/>
      </g>
      <g>
        <path class="cls-8" d="M891.68,293.7c1.11-.36,3.88-1.78,7.37-3.45-3.08,1.3-5.86,2.58-7.92,3.49,.21,.01,.4,0,.55-.04Z"/>
        <path class="cls-8" d="M901.1,356.5c-2-.76-45.73-2.5-51.35-3.83-5.62-1.33-29.43-9.29-29.43-9.29l-.41-8.13s18.22-46.61,36.15-55.77c-20.5,1.04-43.61,55.94-43.61,55.94l.44,7.96s25.13,7.86,31.06,9.17c5.93,1.31,52.05,3.14,54.16,3.89,.41,.15,2.85,.24,6.48,.28-1.96-.05-3.22-.12-3.5-.23Z"/>
        <path class="cls-8" d="M926.23,356.73c14.3-.1,28.69-.3,28.69-.3,0-.03,0-.07,0-.1-.84,.01-15.06,.27-28.68,.4Z"/>
      </g>
      <path class="cls-14" d="M793.81,367.69l11.86-32.64,2.75,.02s3.32,.03,8.99,.17c35.64,.87,121.09,4.75,144.69,21.96l1.58,1.15,2.34,27.06-172.21-17.72Z"/>
      <path class="cls-6" d="M799.51,363.85l8.86-24.37s123.68,1.1,151.5,21.39l1.7,19.66-162.06-16.68Z"/>
      <path class="cls-18" d="M937.42,360.32l1.27,17.85,22.88,2.35-1.7-19.66c-23.64-17.24-116.47-20.63-143.85-21.26,25.98,.67,101.73,4.06,121.4,20.71Z"/>
      <path class="cls-14" d="M1025.6,438.79c-52.66-32.56-134.98-41.13-194.76-42.59-63.67-1.55-115.37,4.45-115.89,4.51l-14.45,1.71,11.65-9.6c23.05-19.01,37.9-27.37,81.04-29.86,19.46-1.12,44.69-1.04,79.02-.21,4.58,.11,9.34,.24,14.26,.38,126.08,3.58,144.26,67.85,144.97,70.59l2.69,10.34-8.53-5.27Z"/>
      <path class="cls-15" d="M714.54,396.34s210.38-24.87,313.04,38.61c0,0-16.65-63.88-141.24-67.42-124.6-3.53-138.83,1.62-171.8,28.8Z"/>
      <g>
        <path class="cls-7" d="M872.71,367.2c78.23,2.25,110.15,32.68,122.55,51.79,11.58,4.57,22.45,9.86,32.32,15.96,0,0-16.65-63.88-141.24-67.42-7.24-.2-14.08-.38-20.6-.52,2.29,.06,4.6,.12,6.97,.19Z"/>
        <path class="cls-7" d="M714.54,396.34s48.96-5.79,111.17-4.65c-61.38-1.84-111.17,4.65-111.17,4.65Z"/>
      </g>
    </g>
    <rect class="cls-10" x="627.68" y="518.09" width="15.7" height="62.81" transform="translate(-200.37 465.16) rotate(-35.09)"/>
    <circle class="cls-10" cx="602.28" cy="497.77" r="38.8"/>
    <circle class="cls-4" cx="602.28" cy="497.77" r="29.1"/>
    <path class="cls-13" d="M577.95,497.77c0-15.65,11.35-28.38,25.57-29.03-.42-.02-.82-.06-1.24-.06-16.07,0-29.1,13.03-29.1,29.1s13.03,29.1,29.1,29.1c.42,0,.83-.05,1.24-.06-14.22-.66-25.57-13.38-25.57-29.03Z"/>
  </g>
</svg>