<?xml version="1.0" encoding="UTF-8"?>
<svg id="Layer_1" data-name="Layer 1" xmlns="http://www.w3.org/2000/svg" xmlns:xlink="http://www.w3.org/1999/xlink" viewBox="0 0 1920 1080">
  <defs>
    <style>
      .cls-1 {
        fill: #f39954;
      }

      .cls-2 {
        fill: #242652;
      }

      .cls-3 {
        fill: #f97864;
      }

      .cls-4 {
        fill: #5b386c;
      }

      .cls-5 {
        fill: #fef8d2;
      }

      .cls-6 {
        fill: #4e245d;
      }

      .cls-7 {
        fill: #35336d;
      }

      .cls-8 {
        fill: #fbd554;
      }

      .cls-9 {
        fill: #dfe1e1;
      }

      .cls-10 {
        fill: #fefeef;
      }

      .cls-11 {
        fill: #d9a953;
      }

      .cls-12 {
        fill: url(#linear-gradient);
        stroke: #000;
        stroke-miterlimit: 10;
        stroke-width: 5px;
      }

      .cls-13 {
        fill: #fdf8d0;
      }
    </style>
    <linearGradient id="linear-gradient" x1="548" y1="525.22" x2="1348.44" y2="525.22" gradientUnits="userSpaceOnUse">
      <stop offset="0" stop-color="#20214b"/>
      <stop offset=".5" stop-color="#3a347b"/>
      <stop offset=".98" stop-color="#424c8b"/>
    </linearGradient>
  </defs>
  <path class="cls-12" d="M948.23,925.44c-106.91,0-207.41-41.63-283-117.22-75.59-75.59-117.22-176.09-117.22-282.99,0-45.2,7.48-89.56,22.25-131.85,55.96-160.52,207.87-268.38,377.98-268.38s322,107.86,377.97,268.39c14.76,42.28,22.24,86.64,22.24,131.84,0,106.9-41.63,207.4-117.22,282.99s-176.09,117.22-282.99,117.22Z"/>
  <path class="cls-9" d="M948.23,892.52c-96.38,0-186.99-37.53-255.14-105.68-68.15-68.15-105.68-158.75-105.68-255.12,0-40.76,6.75-80.75,20.05-118.87,50.45-144.72,187.4-241.95,340.77-241.95s290.3,97.23,340.76,241.96c13.3,38.11,20.04,78.1,20.04,118.86,0,96.37-37.53,186.98-105.68,255.12s-158.75,105.68-255.12,105.68Z"/>
  <path class="cls-2" d="M1293.64,531.72c0,190.76-154.65,345.41-345.41,345.41s-345.43-154.65-345.43-345.41c0-39.88,6.75-78.15,19.19-113.79,47.02-134.86,175.32-231.63,326.24-231.63s279.21,96.77,326.22,231.63c12.44,35.64,19.19,73.92,19.19,113.79Z"/>
  <path class="cls-7" d="M1274.28,421.22c-47.01,136.2-175.24,233.91-326.05,233.91s-279.06-97.72-326.07-233.91c46.99-136.2,175.23-233.93,326.07-233.93s279.06,97.73,326.05,233.93Z"/>
  <g>
    <path class="cls-4" d="M1001.47,762.3c-6.47,0-12.59-2.51-17.78-7.3-10.14-9.35-17.24-27.83-21.71-56.47-3.08-19.77-3.7-37.03-3.73-37.76l12.45-.43-.72-13.21,60.22-3.28,1.28,10.66c.09,.74,2.19,18.44,2.21,38.89,.03,29.74-4.26,49.28-13.11,59.74-4.79,5.66-10.99,8.81-17.94,9.14-.39,.02-.78,.03-1.16,.03Zm-19.8-92.85c1.87,25.95,7.86,59.77,17.56,68.72,1.37,1.26,2.05,1.23,2.34,1.22,.24-.01,.65-.03,1.51-1.05,8.04-9.49,8.75-44.26,6.69-70.42l-28.11,1.53Z"/>
    <path class="cls-8" d="M969.71,660.38s3.15,91.8,32.4,90.45c29.25-1.35,18-94.95,18-94.95l-49.5,2.7"/>
    <path class="cls-4" d="M911.62,764.1c-6.47,0-12.59-2.51-17.78-7.3-10.14-9.35-17.24-27.83-21.71-56.47-3.08-19.77-3.7-37.03-3.73-37.76l12.45-.43-.72-13.21,60.22-3.28,1.28,10.66c.09,.74,2.19,18.44,2.21,38.89,.03,29.74-4.26,49.28-13.11,59.74-4.79,5.66-10.99,8.81-17.94,9.14-.39,.02-.78,.03-1.16,.03Zm-19.8-92.85c1.87,25.95,7.86,59.77,17.56,68.72,1.37,1.26,2.05,1.23,2.34,1.22,.24-.01,.65-.03,1.51-1.05,8.04-9.49,8.75-44.26,6.69-70.42l-28.11,1.53Z"/>
    <path class="cls-8" d="M932.37,697.19c-.15,25.74-3.93,54.7-20.11,55.45-12.82,.59-20.62-16.7-25.35-36.32-6.06-25.15-7.06-54.14-7.06-54.14l.9-1.8,49.5-2.71s2.25,18.7,2.11,39.51Z"/>
    <path class="cls-4" d="M1071.83,541.82l32.16,15.74,.26,.15c8.2,4.56,49.57,28.43,59.05,50.31,4.45,10.27,1.32,17.81-.95,21.39-5.53,8.76-14.42,14.33-25.71,16.11-24.15,3.8-56.78-10.23-91.87-39.52l-.88-.74-20.86-26.06,48.8-37.38Z"/>
    <path class="cls-8" d="M1052.11,597.21l-12.83-16.02,33.88-25.96,2.85,1.4,22.67,11.09s32.7,18.2,47.86,35.57c6.36,7.29,9.65,14.42,6.12,20.01-11.93,18.89-49.1,16.85-100.55-26.09Z"/>
    <path class="cls-4" d="M817.94,535.86l-30,19.54-.24,.18c-7.58,5.53-45.74,34.25-52.49,57.12-3.16,10.73,.86,17.84,3.54,21.12,6.55,8.02,16.05,12.47,27.48,12.86,24.44,.84,55.11-17.06,86.38-50.4l.79-.84,17.53-28.4-52.99-31.17Z"/>
    <path class="cls-8" d="M794.44,564.83s-60.96,44.42-46.82,61.73c14.13,17.3,50.78,10.75,96.63-38.13l10.78-17.46-36.78-21.64-23.81,15.5Z"/>
    <path class="cls-11" d="M1146.79,603.65l-93-5.21s-.13-18.42,.22-18.74c.24-.21,13.13-13.76,22-23.08l22.67,11.09s32.95,18.57,48.11,35.93Z"/>
    <path class="cls-11" d="M749.95,608.04l96.26-22.02s-2.11-18.3-2.5-18.57c-.26-.18-14.71-12.06-24.65-20.23l-21.15,13.77s-35.03,27.98-47.97,47.06Z"/>
    <path class="cls-11" d="M932.37,697.19l-45.46,19.13c-6.06-25.15-7.06-54.14-7.06-54.14l.9-1.8,49.5-2.71s2.25,18.7,2.11,39.51Z"/>
    <path class="cls-11" d="M972.86,692.67l48.31,21.4c6.06-25.15,7.06-54.14,7.06-54.14l-.9-1.8-68.2-5.74s11.48,19.69,13.73,40.28Z"/>
    <path class="cls-4" d="M851.07,718.37c-12.57,0-24.52-5.56-32.79-15.25-8.21-9.63-11.63-21.89-9.61-34.52l12.6-78.86c1.04-6.51-1.19-13.11-5.96-17.65l-57.82-55.08c-11.92-11.35-16.27-28.17-11.37-43.88,4.91-15.71,18.06-27.06,34.32-29.61l78.89-12.39c6.51-1.02,12.1-5.18,14.94-11.12l34.52-72.01c7.21-15.03,22.04-24.37,38.72-24.37s30.91,9,38.27,23.49l36.16,71.2c2.98,5.88,8.66,9.9,15.2,10.78l79.16,10.58c16.32,2.18,29.72,13.22,34.99,28.82,5.27,15.6,1.3,32.5-10.36,44.13l-56.55,56.39c-4.67,4.65-6.74,11.3-5.55,17.78l14.4,78.55c2.31,12.59-1.02,25.38-9.13,35.11-8.27,9.93-20.33,15.63-33.08,15.63-6.78,0-13.36-1.61-19.56-4.77l-71.11-36.35c-2.81-1.44-5.96-2.19-9.11-2.19-3.31,0-6.6,.83-9.52,2.41l-70.26,37.97c-6.42,3.47-13.29,5.23-20.4,5.23Z"/>
    <path class="cls-8" d="M1036.34,700.77l-71.11-36.35c-9.22-4.72-20.18-4.59-29.29,.34l-70.26,37.97c-22.95,12.4-50.16-6.89-46.04-32.65l12.6-78.86c1.63-10.23-1.87-20.61-9.37-27.75l-57.82-55.08c-18.89-17.99-8.94-49.83,16.83-53.88l78.89-12.39c10.23-1.61,19.02-8.15,23.5-17.49l34.52-72.01c11.28-23.52,44.63-23.9,56.44-.65l36.16,71.2c4.69,9.24,13.63,15.57,23.89,16.94l79.16,10.58c25.86,3.46,36.53,35.06,18.06,53.48l-56.54,56.39c-7.33,7.31-10.6,17.77-8.73,27.96l14.4,78.55c4.7,25.66-22.06,45.57-45.28,33.7Z"/>
    <g>
      <path class="cls-13" d="M770.97,513.96c-18.57-17.57-4.36-47.63,20.98-51.58l73.92-13.85c10.06-1.57,22.36-6.22,26.76-15.34l33.95-70.34c9.11-18.88,28.96-28.65,43.5-18.3-14.48-15.03-41.11-12.12-50.95,8.4l-34.52,72.01c-4.48,9.34-13.27,15.88-23.5,17.49l-78.89,12.39c-25.77,4.05-35.71,35.89-16.83,53.88"/>
      <path class="cls-13" d="M1037.47,446.56l77.83,10.33c15.55,2.06,25.5,14.42,26.73,27.82,1.15-15.58-9.45-31.31-27.25-33.68l-79.16-10.58c-5.82-.78-11.22-3.16-15.65-6.75,4.78,6.34,10.94,12,17.49,12.87Z"/>
      <path class="cls-13" d="M1038.48,701.17l-69.92-35.5c-2.04-1.03-4.16-1.82-6.33-2.37,1.13,.42,2.24,.9,3.33,1.46l71.11,36.35c5.18,2.65,10.52,3.7,15.66,3.48-4.57-.04-9.28-1.1-13.86-3.42Z"/>
    </g>
    <path class="cls-1" d="M1076.29,560.9c-7.33,7.31-10.6,17.77-8.73,27.95l3.95,21.54,10.45,57.02c4.71,25.65-22.05,45.57-45.28,33.7l-55.96-28.61-15.15-7.75c-9.22-4.71-20.17-4.59-29.28,.33l-70.25,37.97c-22.96,12.41-50.16-6.89-46.05-32.65l1.85-11.6,.67,8.42c.13,2.76,.6,4.97,1.63,7.22,2.18,4.76,7.6,10.45,11.58,13.81,4.84,4.08,9.59,7.21,15.35,7.21,3.27,0,6.47-.84,9.51-2.48l70.26-37.97c6.25-3.38,13.31-5.16,20.41-5.16s12.72,1.99,19.54,4.71l9.72,4.97v-.04s41.18,13.73,59.7-.45c18.41-14.09,20.96-32.29,19.83-47.68l-3.75-20.43c-2.56-13.9,1.9-28.16,11.91-38.14l56.24-56.09c5.56-5.54,7.65-13.8,5.02-21.2-2.56-7.2-8.59-12.09-16.21-13.1l-71.66-9.58c-8.66-1.16-16.42-6-21.2-13.32-4.48-6.84-8.75-15.78-13.29-25.11l4.63,9.12c4.7,9.24,13.62,15.57,23.89,16.95l79.16,10.58c25.85,3.45,36.52,35.06,18.05,53.48l-56.54,56.39Z"/>
    <ellipse class="cls-13" cx="924.2" cy="401.03" rx="11.62" ry="8.6" transform="translate(114.8 1000.9) rotate(-60)"/>
    <circle class="cls-13" cx="912.25" cy="420.97" r="6.3"/>
    <polygon class="cls-13" points="809.01 477.68 803.12 480.9 799.9 486.79 796.68 480.9 790.79 477.68 796.68 474.45 799.9 468.56 803.12 474.45 809.01 477.68"/>
    <ellipse class="cls-5" cx="887.2" cy="499.5" rx="29.93" ry="37.35"/>
    <ellipse class="cls-6" cx="892.15" cy="498.83" rx="24.98" ry="33.75"/>
    <ellipse class="cls-10" cx="900.1" cy="486.53" rx="7.8" ry="10.05"/>
    <circle class="cls-10" cx="888.1" cy="503.78" r="4.2"/>
    <ellipse class="cls-5" cx="1007.51" cy="497.7" rx="29.93" ry="37.35"/>
    <ellipse class="cls-6" cx="1002.56" cy="497.03" rx="24.98" ry="33.75"/>
    <ellipse class="cls-10" cx="994.61" cy="484.73" rx="7.8" ry="10.05"/>
    <circle class="cls-10" cx="1006.61" cy="501.98" r="4.2"/>
    <ellipse class="cls-3" cx="874.3" cy="546.08" rx="25.35" ry="15.75"/>
    <ellipse class="cls-3" cx="1026.48" cy="544.73" rx="25.35" ry="15.75"/>
    <path class="cls-4" d="M949.94,566.94c-.42,0-.83,0-1.25-.02-12.71-.46-22.47-7.99-27.84-13.32-2.63-2.61-2.2-6.86,.91-8.93h0c2.45-1.64,5.79-1.35,7.86,.72,3.91,3.9,10.98,9.48,19.59,9.77,7.43,.26,14.98-3.49,22.5-11.14,2.19-2.23,5.8-2.45,8.28-.52h0c2.79,2.17,3.02,6.16,.55,8.67-9.69,9.82-19.96,14.78-30.61,14.78Z"/>
  </g>
  <path class="cls-8" d="M1215.23,523.44h0c-5.41,0-9.79-4.3-9.99-9.7-.95-25.71-5.68-50.9-14.1-75-35.97-103.16-133.58-172.47-242.91-172.47s-206.96,69.31-242.92,172.46c-8.42,24.11-13.15,49.3-14.1,75.01-.2,5.4-4.59,9.7-9.99,9.7h0c-5.64,0-10.21-4.65-10.01-10.28,1.01-27.76,6.11-54.97,15.21-81.01,38.76-111.18,143.98-185.88,261.81-185.88s223.04,74.7,261.8,185.88c9.09,26.04,14.2,53.25,15.21,81.01,.2,5.63-4.37,10.28-10.01,10.28Z"/>
  <polygon class="cls-8" points="706.45 576.49 690.45 585.24 681.7 601.24 672.94 585.24 656.94 576.49 672.94 567.74 681.7 551.73 690.45 567.74 706.45 576.49"/>
  <polygon class="cls-8" points="1242.81 571.77 1226.81 580.52 1218.06 596.53 1209.31 580.52 1193.3 571.77 1209.31 563.02 1218.06 547.02 1226.81 563.02 1242.81 571.77"/>
</svg>