<?xml version="1.0" encoding="UTF-8"?>
<svg id="Layer_1" data-name="Layer 1" xmlns="http://www.w3.org/2000/svg" xmlns:xlink="http://www.w3.org/1999/xlink" viewBox="0 0 1920 1080">
  <defs>
    <style>
      .cls-1 {
        fill: #4c235d;
      }

      .cls-2 {
        fill: #f39954;
      }

      .cls-3 {
        fill: #242652;
      }

      .cls-4 {
        fill: #f97864;
      }

      .cls-5 {
        fill: #f97d6b;
      }

      .cls-6 {
        fill: #5b386c;
      }

      .cls-7 {
        fill: #35336d;
      }

      .cls-8 {
        fill: #fbd554;
      }

      .cls-9 {
        fill: #dfe1e1;
      }

      .cls-10 {
        fill: #9decc4;
      }

      .cls-11 {
        fill: #d9a953;
      }

      .cls-12 {
        fill: url(#linear-gradient);
        stroke: #000;
        stroke-miterlimit: 10;
        stroke-width: 5px;
      }

      .cls-13 {
        fill: #fdf8d0;
      }
    </style>
    <linearGradient id="linear-gradient" x1="508.06" y1="540.54" x2="1343.7" y2="540.54" gradientUnits="userSpaceOnUse">
      <stop offset="0" stop-color="#20214b"/>
      <stop offset=".5" stop-color="#3a347b"/>
      <stop offset=".98" stop-color="#424c8b"/>
    </linearGradient>
  </defs>
  <path class="cls-12" d="M925.89,958.36c-111.61,0-216.54-43.46-295.45-122.38-78.92-78.91-122.38-183.84-122.38-295.44,0-47.18,7.81-93.5,23.22-137.65,58.43-167.58,217.01-280.18,394.61-280.18s336.16,112.6,394.6,280.2c15.4,44.14,23.22,90.45,23.22,137.63,0,111.6-43.46,216.52-122.38,295.44-78.92,78.92-183.84,122.38-295.44,122.38Z"/>
  <path class="cls-9" d="M925.89,924c-100.62,0-195.21-39.18-266.36-110.32-71.15-71.14-110.33-165.73-110.33-266.35,0-42.55,7.04-84.31,20.93-124.09,52.67-151.08,195.64-252.59,355.76-252.59s303.07,101.51,355.74,252.6c13.88,39.78,20.93,81.54,20.93,124.09,0,100.61-39.18,195.2-110.32,266.35s-165.73,110.32-266.35,110.32Z"/>
  <path class="cls-3" d="M1286.49,547.33c0,199.15-161.45,360.6-360.6,360.6s-360.62-161.45-360.62-360.6c0-41.63,7.05-81.59,20.03-118.8,49.09-140.79,183.03-241.82,340.59-241.82s291.49,101.03,340.57,241.82c12.99,37.21,20.03,77.17,20.03,118.8Z"/>
  <path class="cls-7" d="M1266.28,431.96c-49.08,142.19-182.95,244.2-340.39,244.2s-291.33-102.01-340.41-244.2c49.06-142.19,182.94-244.22,340.41-244.22s291.33,102.03,340.39,244.22Z"/>
  <g>
    <path class="cls-10" d="M734.71,365.93s-20.05,53.56,11.61,68.72c0,0,16.89-46.49-11.61-68.72Z"/>
    <path class="cls-10" d="M778.92,307.98s-33.39,46.07-8.5,69.09c0,0,28.5-40.13,8.5-69.09Z"/>
    <path class="cls-10" d="M835.96,275.72s-45.07,34.73-27.73,63.85c0,0,38.7-30.41,27.73-63.85Z"/>
    <path class="cls-10" d="M897.55,299.47s-56.87-1.82-61.98,31.69c0,0,49.21,1.11,61.98-31.69Z"/>
    <path class="cls-10" d="M861.71,347.87s-54.43-16.58-68.1,14.44c0,0,47.22,13.89,68.1-14.44Z"/>
    <path class="cls-10" d="M821.08,371.33s-57.83-.02-58.89,37.6c0,0,49.98-.5,58.89-37.6Z"/>
    <path class="cls-10" d="M794.85,411.02s-56.31,17.32-41.85,56.33c0,0,48.45-15.51,41.85-56.33Z"/>
    <path class="cls-10" d="M706.2,434.32s-8.59,58.28,32.84,62.01c0,0,6.85-50.41-32.84-62.01Z"/>
    <path class="cls-10" d="M711.87,527.13s28.48,61.4,68.19,45.85c0,0-25.15-52.84-68.19-45.85Z"/>
  </g>
  <g>
    <path class="cls-10" d="M1114.45,362.65s20.05,53.56-11.61,68.72c0,0-16.89-46.49,11.61-68.72Z"/>
    <path class="cls-10" d="M1070.23,304.69s33.39,46.07,8.5,69.09c0,0-28.5-40.13-8.5-69.09Z"/>
    <path class="cls-10" d="M1013.2,272.44s45.07,34.73,27.73,63.85c0,0-38.7-30.41-27.73-63.85Z"/>
    <path class="cls-10" d="M951.6,296.19s56.87-1.82,61.98,31.69c0,0-49.21,1.11-61.98-31.69Z"/>
    <path class="cls-10" d="M987.44,344.59s54.43-16.58,68.1,14.44c0,0-47.22,13.89-68.1-14.44Z"/>
    <path class="cls-10" d="M1028.08,368.05s57.83-.02,58.89,37.6c0,0-49.98-.5-58.89-37.6Z"/>
    <path class="cls-10" d="M1054.3,407.74s56.31,17.32,41.85,56.33c0,0-48.45-15.51-41.85-56.33Z"/>
    <path class="cls-10" d="M1142.95,431.03s8.59,58.28-32.84,62.01c0,0-6.85-50.41,32.84-62.01Z"/>
    <path class="cls-10" d="M1137.28,523.85s-28.48,61.4-68.19,45.85c0,0,25.15-52.84,68.19-45.85Z"/>
  </g>
  <g>
    <path class="cls-6" d="M981.47,786.41c-6.75,0-13.14-2.62-18.56-7.62-10.59-9.77-18-29.05-22.66-58.96-3.22-20.64-3.87-38.66-3.89-39.42l12.99-.45-.75-13.79,62.87-3.43,1.34,11.12c.09,.78,2.28,19.25,2.31,40.6,.03,31.05-4.45,51.45-13.69,62.37-5,5.9-11.48,9.2-18.73,9.54-.4,.02-.81,.03-1.21,.03Zm-20.67-96.94c1.95,27.09,8.2,62.4,18.34,71.74,1.43,1.32,2.14,1.29,2.45,1.27,.25-.01,.67-.03,1.58-1.1,8.39-9.91,9.13-46.21,6.99-73.52l-29.35,1.6Z"/>
    <path class="cls-8" d="M948.31,680s3.29,95.84,33.83,94.43c30.54-1.41,18.79-99.13,18.79-99.13l-51.68,2.82"/>
    <path class="cls-6" d="M887.67,788.28c-6.75,0-13.14-2.62-18.56-7.62-10.59-9.77-18-29.05-22.66-58.96-3.22-20.64-3.87-38.66-3.89-39.42l12.99-.45-.75-13.79,62.87-3.43,1.34,11.12c.09,.78,2.28,19.25,2.31,40.6,.03,31.05-4.45,51.45-13.69,62.37-5,5.9-11.48,9.2-18.73,9.54-.4,.02-.81,.03-1.21,.03Zm-20.67-96.94c1.95,27.09,8.2,62.4,18.34,71.74,1.43,1.32,2.14,1.29,2.45,1.27,.25-.01,.67-.03,1.58-1.1,8.39-9.91,9.13-46.21,6.99-73.52l-29.35,1.6Z"/>
    <path class="cls-8" d="M909.33,718.42c-.16,26.87-4.1,57.11-20.99,57.89-13.39,.62-21.53-17.43-26.46-37.91-6.33-26.26-7.37-56.52-7.37-56.52l.94-1.88,51.68-2.82s2.35,19.52,2.21,41.25Z"/>
    <path class="cls-6" d="M1021.11,573.31l36.02-9.97,.31-.07c9.56-2.11,58.41-12.11,80.97-1.58,10.58,4.94,13.36,13,14.07,17.37,1.75,10.67-1.34,21.18-8.93,30.39-16.24,19.7-51.44,31.32-99.14,32.74l-1.2,.04-34.34-5.92,12.24-63Z"/>
    <path class="cls-8" d="M1044.06,630.24l-21.12-3.64,8.5-43.74,3.2-.88,25.39-7.03s38.15-8.42,62.02-5.35c10.02,1.29,17.52,4.59,18.64,11.4,3.76,23.02-26.69,47.16-96.63,49.25Z"/>
    <path class="cls-6" d="M832.49,575.4l-36.09-9.73-.31-.07c-9.58-2.05-58.49-11.73-80.98-1.05-10.55,5.01-13.28,13.09-13.96,17.46-1.68,10.68,1.48,21.17,9.13,30.33,16.36,19.59,51.65,30.99,99.35,32.09l1.2,.03,34.3-6.14-12.65-62.92Z"/>
    <path class="cls-8" d="M793.59,577.3s-77-16.48-80.62,6.57c-3.62,23.04,27,46.99,96.95,48.61l21.09-3.78-8.78-43.68-28.63-7.72Z"/>
    <path class="cls-11" d="M1122.49,569.71l-76.27,60.33s-12.86-14.3-12.8-14.79c.04-.33,.74-19.84,1.21-33.27l25.39-7.03s38.6-8.31,62.47-5.24Z"/>
    <path class="cls-11" d="M729,572.78l84.16,59.54s12.76-14.38,12.7-14.88c-.04-.33-.87-19.84-1.43-33.26l-25.43-6.86s-46.15-7.76-70.01-4.54Z"/>
    <path class="cls-11" d="M909.33,718.42l-47.46,19.97c-6.33-26.26-7.37-56.52-7.37-56.52l.94-1.88,51.68-2.82s2.35,19.52,2.21,41.25Z"/>
    <path class="cls-11" d="M951.6,713.71l50.44,22.34c6.33-26.26,7.37-56.52,7.37-56.52l-.94-1.88-71.2-5.99s11.98,20.55,14.33,42.05Z"/>
    <path class="cls-6" d="M824.45,740.54c-13.13,0-25.6-5.8-34.23-15.92-8.57-10.05-12.14-22.85-10.03-36.04l13.15-82.33c1.09-6.79-1.24-13.68-6.22-18.43l-60.36-57.51c-12.44-11.85-16.99-29.41-11.87-45.81,5.12-16.4,18.85-28.25,35.83-30.92l82.36-12.93c6.8-1.07,12.63-5.41,15.6-11.61l36.04-75.18c7.52-15.69,23.01-25.44,40.42-25.44s32.27,9.4,39.95,24.52l37.75,74.34c3.11,6.13,9.04,10.34,15.86,11.25l82.64,11.04c17.03,2.28,31.03,13.8,36.53,30.09,5.5,16.28,1.35,33.93-10.81,46.07l-59.03,58.87c-4.87,4.86-7.04,11.8-5.8,18.56l15.03,82.01c2.41,13.14-1.06,26.5-9.53,36.66-8.64,10.37-21.23,16.31-34.53,16.31-7.08,0-13.95-1.68-20.42-4.98l-74.24-37.95c-2.93-1.5-6.22-2.29-9.51-2.29-3.46,0-6.89,.87-9.94,2.51l-73.35,39.64c-6.71,3.62-13.87,5.46-21.3,5.46Z"/>
    <path class="cls-8" d="M1017.87,722.16l-74.24-37.95c-9.63-4.92-21.06-4.79-30.58,.35l-73.35,39.64c-23.96,12.95-52.36-7.2-48.07-34.09l13.15-82.33c1.71-10.68-1.95-21.51-9.78-28.97l-60.36-57.51c-19.72-18.78-9.34-52.02,17.57-56.25l82.36-12.93c10.68-1.68,19.86-8.5,24.53-18.26l36.04-75.18c11.77-24.56,46.59-24.96,58.92-.67l37.75,74.34c4.9,9.64,14.22,16.26,24.94,17.69l82.64,11.04c26.99,3.61,38.13,36.6,18.85,55.83l-59.03,58.88c-7.66,7.64-11.07,18.55-9.12,29.19l15.03,82.01c4.91,26.79-23.03,47.58-47.27,35.18Z"/>
    <g>
      <path class="cls-13" d="M740.83,527.14c-19.39-18.35-4.55-49.72,21.9-53.85l77.17-14.46c10.5-1.64,23.34-6.49,27.94-16.01l35.44-73.44c9.51-19.72,30.24-29.91,45.41-19.1-15.12-15.69-42.92-12.65-53.19,8.77l-36.04,75.18c-4.67,9.75-13.85,16.58-24.53,18.26l-82.36,12.93c-26.9,4.22-37.28,37.46-17.57,56.25"/>
      <path class="cls-13" d="M1019.05,456.78l81.25,10.78c16.24,2.15,26.62,15.05,27.91,29.04,1.2-16.26-9.86-32.68-28.45-35.17l-82.64-11.04c-6.08-.81-11.71-3.3-16.34-7.05,4.99,6.61,11.43,12.53,18.26,13.44Z"/>
      <path class="cls-13" d="M1020.11,722.58l-72.99-37.06c-2.12-1.08-4.34-1.9-6.6-2.48,1.18,.44,2.34,.94,3.47,1.52l74.24,37.95c5.4,2.76,10.99,3.87,16.35,3.64-4.78-.04-9.69-1.14-14.47-3.57Z"/>
    </g>
    <path class="cls-2" d="M1059.58,576.14c-7.65,7.64-11.07,18.55-9.12,29.18l4.12,22.49,10.91,59.53c4.91,26.78-23.02,47.57-47.27,35.18l-58.42-29.86-15.82-8.09c-9.62-4.92-21.06-4.79-30.57,.35l-73.35,39.64c-23.97,12.95-52.37-7.19-48.07-34.09l1.93-12.11,.7,8.79c.13,2.88,.63,5.19,1.7,7.54,2.27,4.97,7.93,10.91,12.09,14.41,5.05,4.26,10.01,7.53,16.03,7.53,3.41,0,6.75-.87,9.93-2.59l73.35-39.64c6.52-3.52,13.89-5.39,21.31-5.39s13.28,2.07,20.4,4.91l10.15,5.19v-.05s42.99,14.33,62.33-.47c19.21-14.71,21.89-33.71,20.7-49.78l-3.91-21.33c-2.67-14.51,1.99-29.4,12.43-39.82l58.72-58.56c5.81-5.79,7.99-14.41,5.24-22.14-2.68-7.52-8.97-12.62-16.92-13.68l-74.82-10c-9.04-1.21-17.14-6.27-22.14-13.9-4.67-7.14-9.14-16.48-13.87-26.21l4.83,9.52c4.9,9.64,14.22,16.26,24.94,17.69l82.65,11.04c26.98,3.61,38.13,36.6,18.84,55.84l-59.03,58.87Z"/>
    <ellipse class="cls-13" cx="900.8" cy="409.24" rx="12.13" ry="8.98" transform="translate(95.99 984.74) rotate(-60)"/>
    <circle class="cls-13" cx="888.33" cy="430.06" r="6.58"/>
    <polygon class="cls-13" points="780.55 489.26 774.4 492.62 771.03 498.77 767.67 492.62 761.52 489.26 767.67 485.9 771.03 479.75 774.4 485.9 780.55 489.26"/>
    <ellipse class="cls-4" cx="848.71" cy="560.67" rx="26.47" ry="16.44"/>
    <ellipse class="cls-4" cx="1007.58" cy="559.26" rx="26.47" ry="16.44"/>
    <path class="cls-6" d="M848.12,528.36c-3.38,.58-6.64-1.42-6.92-4.28-.67-6.66-.44-18.17,7.1-26.39,5.23-5.7,12.86-8.84,22.7-9.35,9.47-.49,17.31,1.82,23.24,6.86,9.35,7.94,11.19,20.75,11.42,27.95,.09,2.87-2.81,5.17-6.25,4.94h0c-2.92-.2-5.22-2.19-5.3-4.63-.21-6.36-1.9-16.23-8.15-21.53-3.52-2.99-8.17-4.28-14.25-3.98-6.41,.33-11.06,2.15-14.2,5.56-5.25,5.7-5.32,14.51-4.79,19.7,.25,2.44-1.71,4.65-4.59,5.14h-.02Z"/>
    <path class="cls-6" d="M951.49,525.9c-3.38,.58-6.64-1.42-6.92-4.28-.67-6.66-.44-18.17,7.1-26.39,5.23-5.7,12.86-8.84,22.7-9.35,9.47-.49,17.31,1.82,23.24,6.86,9.35,7.94,11.19,20.75,11.42,27.95,.09,2.87-2.81,5.17-6.25,4.94h0c-2.92-.2-5.22-2.19-5.3-4.63-.21-6.36-1.9-16.23-8.15-21.53-3.52-2.99-8.17-4.28-14.25-3.98-6.41,.33-11.06,2.15-14.2,5.56-5.25,5.7-5.32,14.51-4.79,19.7,.25,2.44-1.71,4.65-4.59,5.14h-.02Z"/>
    <path class="cls-1" d="M929.12,558.38s22.55-2.11,29.6-3.52c7.05-1.41,18.09,3.05,17.15,13.62s-.23,21.38-17.85,32.65c-17.62,11.28-34.06,10.34-45.81,5.17-11.75-5.17-25.37-15.5-29.13-33.59-3.76-18.09,14.8-18.09,26.54-16.21,11.75,1.88,19.5,1.88,19.5,1.88Z"/>
    <path class="cls-5" d="M899.29,590.72c-.75-.64,27.56-28.81,63.27-2.66,0,0-26,34.61-63.27,2.66Z"/>
  </g>
</svg>