<?xml version="1.0" encoding="UTF-8"?>
<svg id="Layer_1" data-name="Layer 1" xmlns="http://www.w3.org/2000/svg" xmlns:xlink="http://www.w3.org/1999/xlink" viewBox="0 0 1920 1080">
  <defs>
    <style>
      .cls-1 {
        fill: #4c235d;
      }

      .cls-2 {
        fill: #f39954;
      }

      .cls-3 {
        fill: #f97864;
      }

      .cls-4 {
        fill: #f97d6b;
      }

      .cls-5 {
        fill: url(#radial-gradient);
      }

      .cls-6 {
        fill: #5b386c;
      }

      .cls-7 {
        fill: #fef8d2;
      }

      .cls-8 {
        fill: #4e245d;
      }

      .cls-9 {
        fill: #fbd554;
      }

      .cls-10 {
        fill: none;
      }

      .cls-11 {
        fill: #fefeef;
      }

      .cls-12 {
        fill: #fdf8d0;
      }
    </style>
    <radialGradient id="radial-gradient" cx="965.11" cy="536.94" fx="965.11" fy="536.94" r="439.66" gradientUnits="userSpaceOnUse">
      <stop offset="0" stop-color="#80cfab"/>
      <stop offset="1" stop-color="#80d0ab"/>
    </radialGradient>
  </defs>
  <rect class="cls-5" x="525.45" y="97.28" width="879.32" height="879.32" rx="194.55" ry="194.55"/>
  <g>
    <path class="cls-6" d="M502.5,330.81l.51,5.71-.43-4.48c-.08-.9-.15-1.8-.19-2.69,.03,.49,.07,.97,.11,1.46Z"/>
    <path class="cls-6" d="M1316.25,908.45c-16.27,39.06-52.59,65-94.81,67.7l-5.69,.36c-1.84,.05-3.68,.08-5.53,.08h-490.22c-23.42,0-45.88-4.14-66.68-11.74-38.49-14.03-71.3-39.88-94.05-73.15-21.34-31.22-33.82-68.98-33.82-109.66V291.83c0-8.61,.56-17.09,1.64-25.4,.07-.5,.13-.99,.21-1.49,1.94-14.06,5.38-27.65,10.17-40.58,33.72-15.43,72.75-12.98,104.7,7.24l173.4,109.8c14.31,9.06,32.15,10.49,47.73,3.84l188.75-80.6c39.41-16.83,83.9-9.72,116.12,18.55,31.38,27.54,44.45,69.78,34.1,110.25l-50.84,198.85c-4.19,16.41-.05,33.82,11.09,46.57l134.99,154.61c27.82,31.87,35,75.93,18.74,114.98Z"/>
    <path class="cls-9" d="M1273.84,919.74c-13.19,14.45-31.85,24.36-54.36,25.8l-204.83,13.09c-17.01,1.09-32.99,7.49-45.86,17.96h-248.79c-23.42,0-45.88-4.14-66.68-11.74-38.49-14.03-71.3-39.88-94.05-73.15-21.34-31.22-33.82-68.98-33.82-109.66V291.83c0-8.61,.56-17.09,1.64-25.4,.07-.5,.13-.99,.21-1.49,25.23-23.77,65.1-31.18,99.03-9.69l173.41,109.8c22.49,14.24,50.55,16.5,75.04,6.05l188.76-80.6c53.95-23.04,110.52,16.81,112.69,70.64,.01,.22,.02,.43,.02,.65,.25,7.49-.56,15.24-2.58,23.13l-50.69,198.28c-.05,.2-.1,.4-.16,.6-2.2,8.62-2.94,17.41-2.29,26.05,1.29,17.21,8.08,33.8,19.73,47.15l134.99,154.62c12.7,14.55,19.01,31.47,19.95,48.29,.01,.18,.02,.37,.03,.55,.02,.18,.03,.36,.03,.53,.91,21.57-6.95,42.89-21.42,58.75Z"/>
    <g>
      <path class="cls-12" d="M502.5,330.81l.51,5.71-.43-4.48c-.08-.9-.15-1.8-.19-2.69,.03,.49,.07,.97,.11,1.46Z"/>
      <path class="cls-12" d="M1176.27,361.86s-.01-.05-.02-.07c-10.57-44.57-65.43-59.33-115.02-38.31l-184.82,78.35c-23.97,10.16-55.6-1.7-77.7-15.73l-166.27-98.54c-35.76-22.69-80.9-16.78-106.99,7.69v-3.42c0-8.61,.56-17.09,1.64-25.4,25.21-23.97,65.26-31.53,99.32-9.96l173.41,109.8c22.49,14.24,50.55,16.51,75.04,6.05l188.76-80.6c53.54-22.87,109.64,16.21,112.61,69.42,.02,.24,.03,.48,.04,.72Z"/>
      <path class="cls-12" d="M1133.53,673.17l132.85,151.88c26.55,30.35,24.82,71.07,4.49,99.06,28.64-28.14,34.81-76.49,4.45-111.27l-134.99-154.61c-9.93-11.37-16.32-25.11-18.79-39.57-1.5,20.34,.8,41.73,11.98,54.52Z"/>
    </g>
    <path class="cls-2" d="M652.16,961.94l1.16,2.91c-38.49-14.03-71.3-39.88-94.05-73.15l14.94,3.41c17.79,4.07,34.46,12.58,48.18,24.62,13.06,11.46,21.21,25.4,29.77,42.21Z"/>
    <path class="cls-2" d="M1295.39,866.07c0,.45,0,.89-.01,1.34-.02,.75-.04,1.5-.08,2.25,0,.1-.01,.2-.02,.29-.03,.55-.06,1.09-.1,1.64,0,.17-.02,.34-.04,.5-.04,.53-.09,1.06-.14,1.58-.01,.07-.01,.13-.02,.2-.13,1.32-.3,2.64-.51,3.95-.1,.67-.21,1.34-.33,2.01-.12,.67-.24,1.33-.38,2-.13,.66-.28,1.32-.43,1.98-.3,1.32-.63,2.64-1,3.94-.19,.66-.38,1.31-.58,1.95s-.4,1.29-.62,1.93c-.21,.64-.44,1.28-.67,1.91-.22,.62-.45,1.23-.69,1.84-.02,.06-.05,.12-.06,.17-.21,.52-.42,1.04-.63,1.55-.07,.16-.14,.32-.2,.48-.2,.47-.4,.93-.6,1.38-.06,.13-.12,.26-.18,.39-.22,.51-.45,1-.69,1.5-.04,.08-.08,.15-.11,.23-.25,.52-.5,1.02-.76,1.53-.34,.68-.69,1.36-1.05,2.03-.3,.56-.61,1.11-.92,1.66-.35,.6-.7,1.2-1.05,1.79-.27,.45-.55,.9-.83,1.34-.39,.61-.77,1.21-1.17,1.8-.34,.52-.69,1.03-1.05,1.54-.32,.46-.64,.91-.97,1.36-.06,.08-.11,.15-.17,.22-.31,.44-.63,.87-.96,1.29-.07,.09-.13,.17-.2,.25-.3,.4-.61,.8-.94,1.19-.32,.4-.64,.8-.97,1.2-.22,.27-.45,.54-.69,.81-.28,.33-.57,.67-.87,1-1.22,1.37-2.49,2.71-3.8,4-12.95,12.74-30.51,21.34-51.36,22.68l-204.82,13.1c-16.33,1.05-31.7,6.99-44.3,16.73h-40.4c19.15-26.93,49.53-43.98,82.83-46.12l203.74-13.03c20.13-1.28,38.17-13.69,45.64-32.45,7.25-18.25,3.9-37.92-9.09-52.78l-122.21-139.99c-14.76-16.93-21.54-39.42-18.39-61.66,2-14.13,5.83-29.99,10.28-46.76,.06-.2,.11-.4,.16-.6,2.06-7.72,4.25-15.64,6.45-23.67l-6.53,25.46c-2.1,8.22-2.86,16.61-2.37,24.86,.18,2.97,.52,5.91,1.02,8.82,.07,.45,.15,.9,.24,1.34,.16,.91,.35,1.81,.56,2.7,.29,1.35,.62,2.68,1,4,.12,.44,.24,.88,.38,1.32,.12,.44,.25,.88,.4,1.31,.27,.87,.56,1.74,.87,2.61,.35,1.01,.73,2.02,1.13,3.02,.28,.71,.57,1.41,.88,2.11,.17,.43,.36,.85,.56,1.27,.56,1.26,1.16,2.5,1.8,3.73,.63,1.23,1.29,2.45,2,3.65,.46,.8,.94,1.6,1.44,2.38,.73,1.18,1.51,2.34,2.32,3.48,.8,1.15,1.63,2.27,2.51,3.38,.28,.37,.58,.74,.88,1.1,.29,.37,.59,.73,.9,1.09,.3,.36,.6,.72,.91,1.07l119.81,137.21,15.2,17.41c.86,.99,1.7,1.99,2.5,3,1.61,2.02,3.11,4.08,4.48,6.18,1.04,1.57,2.01,3.17,2.91,4.77,.61,1.08,1.18,2.16,1.73,3.24,.82,1.63,1.58,3.28,2.28,4.94,.7,1.66,1.34,3.33,1.91,5.01,.58,1.68,1.1,3.37,1.55,5.06h0c1.03,3.82,1.75,7.67,2.19,11.53,0,.05,0,.1,.01,.16,.12,1.06,.22,2.12,.3,3.18,.08,1.06,.13,2.12,.16,3.18,0,.1,0,.19,0,.29,.02,.61,.03,1.22,.03,1.82,0,.29,0,.57,0,.86Z"/>
    <ellipse class="cls-12" cx="991.9" cy="393.22" rx="29.86" ry="22.12" transform="translate(-73.74 339.42) rotate(-18.73)"/>
    <circle class="cls-12" cx="935.01" cy="411.5" r="16.19"/>
    <polygon class="cls-12" points="639.46 346.04 622.62 342.28 606.41 348.2 610.17 331.35 604.25 315.14 621.09 318.91 637.3 312.99 633.54 329.83 639.46 346.04"/>
    <ellipse class="cls-7" cx="753.51" cy="520.74" rx="95.99" ry="76.91" transform="translate(-134.88 743.67) rotate(-48.73)"/>
    <ellipse class="cls-8" cx="764.22" cy="527.82" rx="86.74" ry="64.19" transform="translate(-136.57 754.13) rotate(-48.73)"/>
    <ellipse class="cls-11" cx="800.43" cy="517.54" rx="25.83" ry="20.05" transform="translate(-116.51 777.85) rotate(-48.73)"/>
    <circle class="cls-11" cx="748" cy="530.52" r="10.79"/>
    <ellipse class="cls-7" cx="988.97" cy="721.18" rx="95.99" ry="76.91" transform="translate(-205.39 988.9) rotate(-48.73)"/>
    <ellipse class="cls-8" cx="980.55" cy="711.49" rx="86.74" ry="64.19" transform="translate(-200.97 979.27) rotate(-48.73)"/>
    <ellipse class="cls-11" cx="986.04" cy="674.25" rx="25.83" ry="20.05" transform="translate(-171.11 970.72) rotate(-48.73)"/>
    <circle class="cls-11" cx="979.98" cy="727.92" r="10.79"/>
    <ellipse class="cls-3" cx="649.64" cy="588.85" rx="40.48" ry="65.15" transform="translate(-221.44 688.79) rotate(-48.73)"/>
    <ellipse class="cls-3" cx="945.91" cy="844.19" rx="40.48" ry="65.15" transform="translate(-312.51 998.42) rotate(-48.73)"/>
    <path class="cls-1" d="M801.29,721.14s45.16,32.7,60.49,41.54c15.33,8.83,28.51,35.02,9.61,53.05-18.9,18.03-35.14,39.17-86.05,31.43s-79.81-36.18-93.15-64.81c-13.34-28.63-21.77-69.88,.64-109.45,22.41-39.57,56.75-9.44,75.43,13.11,18.68,22.55,33.03,35.13,33.03,35.13Z"/>
    <path class="cls-4" d="M693.58,732.54c-.34-2.41,97.79-8.57,121.39,97.8,0,0-104.3,21.83-121.39-97.8Z"/>
  </g>
  <line class="cls-10" x1="570.53" y1="74.96" x2="104.83" y2="-274.32"/>
  <path class="cls-6" d="M593.91,857.11c-15.74,7.94-33.09,10.14-50.16,7.41-4.08-8.7-7.54-17.74-10.3-27.09h0c-1.28-4.3-2.41-8.65-3.38-13.06-3.03-13.63-4.62-27.79-4.62-42.33v-125.63c38.96-3.56,80.62,20.67,101.99,63.03,26.77,53.08,11.73,114.84-33.53,137.67Z"/>
  <path class="cls-9" d="M586.44,834.11c-.52,.31-1.06,.62-1.6,.91-.54,.3-1.08,.59-1.64,.87-8.15,4.11-16.92,6.06-25.83,6.06-.5,0-1-.01-1.5-.02-.37-.01-.74-.02-1.11-.04-.3-.01-.6-.02-.9-.04-.26-.01-.52-.03-.77-.05-.57-.04-1.14-.09-1.71-.14-.36-.03-.71-.07-1.06-.11-.27-.03-.54-.06-.8-.1-1.75-.22-3.5-.51-5.24-.87-.34-.07-.67-.14-1-.21-.36-.09-.72-.17-1.08-.25-.34-.08-.68-.17-1.02-.25-1.6-.42-3.19-.88-4.77-1.4-.5-.17-.99-.34-1.48-.51-.49-.17-.99-.35-1.48-.53h0c-1.28-4.3-2.41-8.65-3.38-13.06-3.03-13.63-4.62-27.79-4.62-42.33v-101.76c30.06-4.02,63.42,15.5,80.76,49.87,20.22,40.08,11.25,85.67-19.77,103.96Z"/>
  <path class="cls-12" d="M592.87,736.88c20.17,39.98,14.06,84.04-13.27,100.65,1.21-.51,2.41-1.05,3.6-1.64,33.61-16.96,43.92-64.29,23.01-105.74-20.9-41.44-65.1-61.29-98.71-44.34-1.19,.6-2.33,1.24-3.46,1.91,29.6-12.1,68.67,9.17,88.83,49.15Z"/>
  <path class="cls-2" d="M586.44,834.11c-.52,.31-1.06,.62-1.6,.91-.54,.3-1.08,.59-1.64,.87-8.15,4.11-16.92,6.06-25.83,6.06-.5,0-1-.01-1.5-.02-.37-.01-.74-.02-1.11-.04-.3-.01-.6-.02-.9-.04-.26-.01-.52-.03-.77-.05-.57-.04-1.14-.09-1.71-.14-.36-.03-.71-.07-1.06-.11-.27-.03-.54-.06-.8-.1-1.75-.22-3.5-.51-5.24-.87-.34-.07-.67-.14-1-.21-.36-.09-.72-.17-1.08-.25-.34-.08-.68-.17-1.02-.25-1.6-.42-3.19-.88-4.77-1.4-.5-.17-.99-.34-1.48-.51-.5-.17-.99-.35-1.48-.54-1.28-4.29-2.41-8.64-3.38-13.05,18.23,12.77,38.93,16.99,56.37,9.74Z"/>
  <path class="cls-6" d="M802.09,971.85c-.58,1.61-1.2,3.19-1.87,4.74h-80.22c-28.31,0-55.2-6.05-79.46-16.92-5.9-2.64-11.65-5.57-17.22-8.77-10.19-5.84-19.79-12.58-28.72-20.11-.63-10.61,.78-21.31,4.49-31.66,17.09-47.72,76.53-70.24,132.5-50.2,55.97,20.05,87.59,75.19,70.5,122.92Z"/>
  <path class="cls-9" d="M780.83,960.31c-.14,.47-.28,.94-.42,1.41-.09,.29-.19,.58-.29,.87-.13,.42-.27,.83-.42,1.24-1.64,4.59-3.84,8.85-6.52,12.76h-53.18c-28.31,0-55.2-6.05-79.46-16.92-5.9-2.64-11.65-5.57-17.22-8.77-5.94-14.16-6.98-29.44-1.85-43.75,.2-.55,.4-1.09,.61-1.62,.03-.08,.06-.15,.09-.22,.21-.54,.43-1.07,.66-1.59,14.33-33.03,58.48-47.55,100.74-32.41,42.26,15.14,67.15,54.38,57.26,89Z"/>
  <path class="cls-12" d="M718.53,885.38c42.16,15.1,68.07,51.25,59.7,82.12,.53-1.2,1.03-2.42,1.47-3.67,12.7-35.44-12.44-76.86-56.13-92.51-43.7-15.65-89.41,.39-102.11,35.83-.45,1.25-.84,2.51-1.19,3.77,13.13-29.16,56.1-40.64,98.26-25.54Z"/>
  <path class="cls-2" d="M640.54,959.67c-5.9-2.64-11.65-5.57-17.22-8.77-5.94-14.16-6.98-29.44-1.85-43.75,.2-.55,.4-1.09,.61-1.62,.03-.08,.06-.15,.09-.22,.21-.54,.43-1.07,.66-1.59-5.17,18.64,2.02,39.2,17.71,55.95Z"/>
  <path class="cls-2" d="M780.83,960.31c-.14,.47-.28,.94-.42,1.41-.09,.29-.19,.58-.29,.87-.13,.42-.27,.83-.42,1.24-1.64,4.59-3.84,8.85-6.52,12.76h-4.4c5.16-4.57,9.28-10.03,12.05-16.28Z"/>
</svg>