<?xml version="1.0" encoding="UTF-8"?>
<svg id="Layer_1" data-name="Layer 1" xmlns="http://www.w3.org/2000/svg" viewBox="0 0 1920 1080">
  <defs>
    <style>
      .cls-1 {
        fill: #4c235d;
      }

      .cls-2 {
        fill: #f39954;
      }

      .cls-3 {
        fill: #f97864;
      }

      .cls-4 {
        fill: #f97d6b;
      }

      .cls-5 {
        fill: #5b386c;
      }

      .cls-6 {
        fill: #fef8d2;
      }

      .cls-7 {
        fill: #4e245d;
      }

      .cls-8 {
        fill: #fbd554;
      }

      .cls-9 {
        fill: #fc7a61;
      }

      .cls-10 {
        fill: #fefeef;
      }

      .cls-11 {
        fill: #d9a953;
      }

      .cls-12 {
        fill: #fdf8d0;
      }

      .cls-13 {
        fill: #5d3670;
      }
    </style>
  </defs>
  <g>
    <path class="cls-13" d="M797.06,187.81l309.27-1.53c18.66-.09,30.75,19.66,22.18,36.23l-46.16,89.25c-4.21,8.14-12.55,13.29-21.71,13.42l-54.03,.74-166.02,2.29c-9.71,.13-18.61-5.41-22.77-14.18l-43.05-90.74c-7.79-16.42,4.13-35.38,22.31-35.47Z"/>
    <polygon class="cls-9" points="1105.12 211.92 1059.8 299.55 1006.25 300.28 903.93 301.7 840.74 302.57 798.46 213.44 905.94 212.91 1006.25 212.42 1105.12 211.92"/>
    <polygon class="cls-8" points="1006.25 212.42 1006.25 300.28 903.93 301.7 905.94 212.91 1006.25 212.42"/>
    <path class="cls-13" d="M951.77,959.99c-91.85,0-178.2-35.77-243.14-100.71-64.95-64.94-100.71-151.29-100.71-243.13,0-38.82,6.43-76.94,19.12-113.28,48.08-137.91,178.58-230.58,324.74-230.58s276.64,92.67,324.73,230.6c12.68,36.33,19.11,74.44,19.11,113.26,0,91.84-35.77,178.19-100.71,243.13-64.94,64.94-151.29,100.71-243.13,100.71Z"/>
    <path class="cls-8" d="M951.77,935.43c-85.29,0-165.47-33.21-225.78-93.52-60.31-60.3-93.52-140.49-93.52-225.77,0-36.06,5.97-71.45,17.75-105.19,44.65-128.06,165.83-214.11,301.55-214.11s256.89,86.05,301.54,214.12c11.77,33.73,17.74,69.12,17.74,105.18,0,85.28-33.21,165.46-93.52,225.77-60.31,60.31-140.49,93.52-225.77,93.52Z"/>
    <path class="cls-9" d="M1232.52,616.15c0,155.05-125.7,280.75-280.75,280.75s-280.76-125.7-280.76-280.75c0-32.41,5.49-63.52,15.6-92.49,38.22-109.61,142.5-188.27,265.17-188.27s226.94,78.66,265.15,188.27c10.11,28.97,15.59,60.08,15.59,92.49Z"/>
  </g>
  <g>
    <path class="cls-5" d="M1004.9,849.1c-6.91,0-13.46-2.68-19.01-7.8-10.84-10-18.44-29.76-23.22-60.4-3.3-21.14-3.96-39.61-3.99-40.38l13.31-.46-.77-14.12,64.4-3.51,1.37,11.4c.1,.8,2.34,19.72,2.36,41.59,.03,31.81-4.56,52.71-14.02,63.89-5.12,6.05-11.76,9.43-19.19,9.77-.41,.02-.83,.03-1.24,.03Zm-21.18-99.3c2,27.75,8.4,63.92,18.78,73.49,1.46,1.35,2.2,1.32,2.51,1.3,.26-.01,.69-.03,1.62-1.12,8.59-10.15,9.36-47.33,7.16-75.31l-30.06,1.64Z"/>
    <path class="cls-8" d="M970.93,740.1s3.37,98.18,34.65,96.73c31.28-1.44,19.25-101.54,19.25-101.54l-52.94,2.89"/>
    <path class="cls-5" d="M908.81,851.03c-6.91,0-13.46-2.68-19.01-7.8-10.84-10-18.44-29.76-23.22-60.4-3.3-21.14-3.96-39.61-3.99-40.38l13.31-.46-.77-14.12,64.4-3.51,1.37,11.4c.1,.8,2.34,19.72,2.36,41.59,.03,31.81-4.56,52.71-14.02,63.89-5.12,6.05-11.76,9.43-19.19,9.77-.41,.02-.83,.03-1.24,.03Zm-21.18-99.3c2,27.75,8.4,63.92,18.78,73.49,1.46,1.35,2.2,1.32,2.51,1.3,.26-.01,.69-.03,1.62-1.12,8.59-10.15,9.36-47.33,7.16-75.31l-30.06,1.64Z"/>
    <path class="cls-8" d="M931,779.46c-.16,27.53-4.2,58.5-21.51,59.3-13.71,.63-22.05-17.86-27.1-38.84-6.48-26.9-7.55-57.89-7.55-57.89l.96-1.92,52.94-2.89s2.4,20,2.26,42.25Z"/>
    <path class="cls-5" d="M1044.79,646.2l29.11-24.87,.26-.2c7.96-6.11,48.97-36.56,74.46-36.56,11.96,0,18.04,6.28,20.59,10.02,6.25,9.15,7.93,20.24,4.88,32.08-6.53,25.32-34.17,51.37-77.82,73.36l-1.1,.55-34.44,9.39-15.94-63.78Z"/>
    <path class="cls-8" d="M1090.76,689.09l-21.18,5.78-11.07-44.28,2.58-2.21,20.52-17.53s31.76-24.35,55.25-31.85c9.86-3.15,18.26-3.34,22.24,2.5,13.47,19.73-4.34,55.34-68.34,87.59Z"/>
    <path class="cls-5" d="M850.25,646.2l-29.11-24.87-.26-.2c-7.96-6.11-48.97-36.56-74.46-36.56-11.96,0-18.04,6.28-20.59,10.02-6.25,9.15-7.93,20.24-4.88,32.08,6.53,25.32,34.17,51.37,77.82,73.36l1.1,.55,34.44,9.39,15.94-63.78Z"/>
    <path class="cls-8" d="M813.42,630.86s-64.01-49.09-77.48-29.36c-13.48,19.73,4.33,55.34,68.34,87.59l21.18,5.78,11.07-44.28-23.1-19.73Z"/>
    <path class="cls-11" d="M1137.32,598.91l-44.63,89.06s-18.13-7.7-18.29-8.18c-.1-.32-7.92-18.74-13.3-31.4l20.52-17.53s32.22-24.44,55.71-31.94Z"/>
    <path class="cls-11" d="M755.64,598.29l51.71,92.08s18.13-7.7,18.29-8.18c.1-.32,7.92-18.74,13.3-31.4l-20.52-17.53s-39.29-27.47-62.78-34.97Z"/>
    <path class="cls-11" d="M931,779.46l-48.61,20.46c-6.48-26.9-7.55-57.89-7.55-57.89l.96-1.92,52.94-2.89s2.4,20,2.26,42.25Z"/>
    <path class="cls-11" d="M974.29,774.63l51.67,22.89c6.48-26.9,7.55-57.89,7.55-57.89l-.96-1.92-72.93-6.14s12.27,21.05,14.68,43.07Z"/>
    <path class="cls-5" d="M844.05,802.12c-13.45,0-26.23-5.94-35.07-16.31-8.78-10.3-12.43-23.41-10.27-36.92l13.47-84.33c1.11-6.96-1.27-14.01-6.37-18.88l-61.84-58.91c-12.75-12.14-17.4-30.12-12.16-46.93,5.25-16.8,19.31-28.94,36.7-31.67l84.37-13.25c6.96-1.09,12.94-5.54,15.98-11.89l36.92-77.01c7.71-16.08,23.57-26.06,41.41-26.06s33.05,9.63,40.92,25.12l38.67,76.15c3.19,6.28,9.27,10.59,16.25,11.53l84.65,11.31c17.45,2.33,31.79,14.14,37.42,30.82,5.63,16.68,1.39,34.76-11.08,47.19l-60.47,60.31c-4.99,4.98-7.21,12.09-5.94,19.02l15.4,84.01c2.47,13.46-1.09,27.15-9.76,37.55-8.85,10.62-21.74,16.71-35.38,16.71-7.25,0-14.29-1.72-20.92-5.11l-76.04-38.87c-3-1.54-6.37-2.35-9.74-2.35-3.54,0-7.06,.89-10.18,2.57l-75.13,40.6c-6.87,3.71-14.21,5.59-21.82,5.6Z"/>
    <path class="cls-8" d="M1042.19,783.29l-76.04-38.87c-9.86-5.04-21.58-4.91-31.32,.36l-75.13,40.61c-24.54,13.26-53.64-7.37-49.24-34.92l13.47-84.34c1.75-10.94-2-22.04-10.02-29.68l-61.84-58.91c-20.2-19.24-9.56-53.29,18-57.62l84.37-13.25c10.94-1.72,20.34-8.71,25.13-18.7l36.92-77.01c12.06-25.16,47.73-25.56,60.36-.69l38.67,76.15c5.02,9.88,14.57,16.65,25.55,18.12l84.65,11.31c27.65,3.7,39.06,37.49,19.31,57.19l-60.47,60.31c-7.84,7.82-11.34,19-9.34,29.9l15.4,84c5.03,27.44-23.59,48.74-48.43,36.04Z"/>
    <g>
      <path class="cls-12" d="M758.39,583.51c-19.86-18.79-4.66-50.93,22.44-55.16l79.05-14.81c10.76-1.68,23.91-6.65,28.62-16.4l36.31-75.23c9.75-20.2,30.97-30.64,46.51-19.57-15.49-16.07-43.97-12.96-54.49,8.98l-36.92,77.01c-4.79,9.99-14.19,16.98-25.13,18.7l-84.37,13.25c-27.56,4.33-38.19,38.38-17.99,57.62"/>
      <path class="cls-12" d="M1043.39,511.44l83.23,11.04c16.63,2.21,27.27,15.42,28.59,29.75,1.23-16.66-10.1-33.48-29.14-36.02l-84.65-11.31c-6.23-.83-11.99-3.38-16.74-7.22,5.11,6.78,11.7,12.83,18.71,13.76Z"/>
      <path class="cls-12" d="M1044.48,783.72l-74.77-37.97c-2.18-1.11-4.45-1.94-6.77-2.54,1.21,.45,2.4,.97,3.56,1.56l76.04,38.87c5.53,2.83,11.25,3.96,16.75,3.72-4.89-.04-9.93-1.17-14.82-3.65Z"/>
    </g>
    <path class="cls-2" d="M1084.91,633.71c-7.84,7.82-11.34,19-9.34,29.89l4.22,23.03,11.18,60.98c5.03,27.43-23.58,48.73-48.42,36.04l-59.85-30.59-16.2-8.28c-9.86-5.04-21.57-4.91-31.32,.36l-75.13,40.6c-24.55,13.27-53.64-7.37-49.24-34.92l1.98-12.4,.71,9c.14,2.95,.64,5.32,1.74,7.72,2.33,5.09,8.13,11.17,12.39,14.77,5.18,4.36,10.25,7.71,16.42,7.71,3.5,0,6.92-.9,10.17-2.65l75.14-40.61c6.68-3.61,14.23-5.52,21.83-5.52s13.61,2.12,20.89,5.03l10.4,5.32v-.05s44.04,14.68,63.85-.48c19.68-15.06,22.42-34.53,21.21-50.99l-4.01-21.85c-2.73-14.86,2.04-30.11,12.73-40.79l60.15-59.99c5.95-5.93,8.18-14.76,5.37-22.68-2.74-7.7-9.19-12.93-17.33-14.01l-76.64-10.24c-9.26-1.24-17.56-6.42-22.68-14.24-4.79-7.31-9.36-16.88-14.21-26.85l4.95,9.75c5.02,9.88,14.57,16.65,25.55,18.12l84.66,11.31c27.64,3.69,39.06,37.49,19.3,57.2l-60.47,60.31Z"/>
    <ellipse class="cls-12" cx="922.26" cy="462.74" rx="12.43" ry="9.2" transform="translate(60.38 1030.07) rotate(-60)"/>
    <circle class="cls-12" cx="909.49" cy="484.08" r="6.74"/>
    <polygon class="cls-12" points="799.08 544.71 792.78 548.16 789.33 554.46 785.89 548.16 779.59 544.71 785.89 541.27 789.33 534.97 792.78 541.27 799.08 544.71"/>
    <ellipse class="cls-6" cx="882.7" cy="568.05" rx="32" ry="39.94"/>
    <ellipse class="cls-7" cx="887.99" cy="567.33" rx="26.71" ry="36.09"/>
    <ellipse class="cls-10" cx="896.49" cy="554.18" rx="8.34" ry="10.75"/>
    <circle class="cls-10" cx="883.66" cy="572.63" r="4.49"/>
    <ellipse class="cls-6" cx="1011.35" cy="566.13" rx="32" ry="39.94"/>
    <ellipse class="cls-7" cx="1006.06" cy="565.41" rx="26.71" ry="36.09"/>
    <ellipse class="cls-10" cx="997.55" cy="552.25" rx="8.34" ry="10.75"/>
    <circle class="cls-10" cx="1010.39" cy="570.7" r="4.49"/>
    <ellipse class="cls-3" cx="868.9" cy="617.86" rx="27.11" ry="16.84"/>
    <ellipse class="cls-3" cx="1031.64" cy="616.42" rx="27.11" ry="16.84"/>
    <path class="cls-1" d="M952.64,617.62s23.1-2.17,30.32-3.61c7.22-1.44,18.53,3.13,17.57,13.96-.96,10.83-.24,21.9-18.29,33.45-18.05,11.55-34.89,10.59-46.92,5.29-12.03-5.29-25.99-15.88-29.84-34.41-3.85-18.53,15.16-18.53,27.19-16.6,12.03,1.93,19.97,1.93,19.97,1.93Z"/>
    <path class="cls-4" d="M922.08,650.75c-.77-.66,28.23-29.52,64.81-2.73,0,0-26.63,35.45-64.81,2.73Z"/>
  </g>
</svg>