<?xml version="1.0" encoding="UTF-8"?>
<svg id="Layer_1" data-name="Layer 1" xmlns="http://www.w3.org/2000/svg" viewBox="0 0 1920 1080">
  <defs>
    <style>
      .cls-1 {
        fill: #fb886b;
      }

      .cls-2 {
        fill: #fff;
      }

      .cls-3 {
        fill: #493d5d;
      }

      .cls-4 {
        fill: #fefeff;
        opacity: .23;
      }

      .cls-5 {
        fill: #8c8398;
      }

      .cls-6 {
        fill: #766b7e;
      }

      .cls-7 {
        fill: #aba3b6;
      }
    </style>
  </defs>
  <path class="cls-3" d="M1363.2,272.91v388.28c0,47.77-38.86,86.63-86.66,86.63H631.63c-47.77,0-86.63-38.86-86.63-86.63V272.91c0-47.77,38.86-86.63,86.63-86.63h644.91c47.8,0,86.66,38.86,86.66,86.63Z"/>
  <path class="cls-6" d="M725.49,90.93h457.21c13.94,0,25.26,11.32,25.26,25.26V817.91c0,13.94-11.32,25.25-25.25,25.25h-457.21c-13.94,0-25.25-11.32-25.25-25.25V116.19c0-13.94,11.32-25.26,25.26-25.26Z" transform="translate(1421.14 -487.05) rotate(90)"/>
  <rect class="cls-1" x="613.45" y="248.66" width="681.29" height="436.78" rx="12.26" ry="12.26"/>
  <path class="cls-3" d="M1325.9,805.32c-6.88,0-14.2-.59-21.77-1.75H594.64c-2.3,0-56.66-.4-87.04-35.21-16.23-18.6-22.43-42.9-18.43-72.23l1.61-11.8h923.18l.97,12.6c.16,2.09,3.59,51.52-25.69,83.14-15.52,16.75-36.82,25.25-63.33,25.25Z"/>
  <path class="cls-7" d="M502.69,697.98h898.64s8.36,108.67-96.13,91.95H594.64s-104.49,0-91.95-91.95Z"/>
  <path class="cls-5" d="M1305.19,763.83H594.64s-91.19,0-92.96-53.71c-2.11,79.81,92.96,79.81,92.96,79.81h710.55c91.5,14.64,96.47-66.86,96.29-87.36-.16,16.52-7.29,71.46-96.29,61.26Z"/>
  <path class="cls-3" d="M848.91,691.01h207.59v26.04c0,8.31-6.75,15.06-15.06,15.06h-177.46c-8.31,0-15.06-6.75-15.06-15.06v-26.04h0Z"/>
  <path class="cls-2" d="M787.96,437.35l-27.89-27.89c-4.46-4.46-4.46-11.69,0-16.15h0c4.46-4.46,11.69-4.46,16.15,0l11.21,11.21c4.56,4.56,12,4.44,16.41-.26l48.96-52.22c4.31-4.6,11.54-4.83,16.14-.52h0c4.6,4.31,4.84,11.54,.52,16.14l-65.1,69.44c-4.41,4.71-11.85,4.83-16.41,.26Z"/>
  <path class="cls-2" d="M786.57,575.28l-27.89-27.89c-4.46-4.46-4.46-11.69,0-16.15h0c4.46-4.46,11.69-4.46,16.15,0l11.21,11.21c4.56,4.56,12,4.44,16.41-.26l48.96-52.22c4.31-4.6,11.54-4.83,16.14-.52h0c4.6,4.31,4.84,11.54,.52,16.14l-65.1,69.44c-4.41,4.71-11.85,4.83-16.41,.26Z"/>
  <rect class="cls-2" x="906.73" y="379.62" width="317.66" height="23.69" rx="4.34" ry="4.34"/>
  <rect class="cls-2" x="904.64" y="515.46" width="317.66" height="23.69" rx="4.34" ry="4.34"/>
  <circle class="cls-3" cx="959.67" cy="229.85" r="11.15"/>
  <path class="cls-4" d="M1376.03,262.18v309.92c-4.53,.98-9.06,1.88-13.64,2.67-11.62,2.05-23.46,3.49-35.47,4.28-7.59,.52-15.28,.79-23,.79-71.65,0-138.09-22.4-192.65-60.6-10.5-7.31-20.55-15.25-30.12-23.71-35.01-30.97-63.55-69.11-83.27-112.14-3.55-7.72-6.79-15.63-9.77-23.68-13.37-36.26-20.65-75.44-20.65-116.34,0-4.88,.11-9.77,.33-14.62,.49-11.98,1.64-23.82,3.38-35.47,.68-4.58,1.45-9.14,2.32-13.64h319.99c45.54,0,82.56,37.02,82.56,82.53Z"/>
</svg>