<?xml version="1.0" encoding="UTF-8"?>
<svg id="Layer_1" data-name="Layer 1" xmlns="http://www.w3.org/2000/svg" viewBox="0 0 1920 1080">
  <defs>
    <style>
      .cls-1 {
        fill: #aeaeef;
      }

      .cls-2 {
        fill: #493d5d;
      }

      .cls-3 {
        fill: #d3e0fc;
      }

      .cls-4 {
        fill: #f9d9b5;
      }
    </style>
  </defs>
  <path class="cls-2" d="M959.5,907.64c-1.42,0-2.87-.03-4.33-.08-52.1-1.93-80.38-35.06-90.57-50.07l-294.64-52.05c-2.68,.13-5.32,.2-7.87,.2-27.85,0-49.09-7.82-63.12-23.23-19.5-21.42-17.05-49.98-16.12-56.86,.07-18.99,.94-288.73-3.37-348.8-1.77-24.63,3.45-43.18,15.5-55.15,8.99-8.92,21.74-13.84,35.9-13.84,4.33,0,7.92,.46,10.17,.85,26.68,.24,367.38,3.26,604.77,3.26,185.58,0,223.67-1.83,229.85-2.92,4.73-.99,9.46-1.51,13.97-1.51,31.44,0,45.09,23.99,47.92,36.67l.38,1.71-.04,1.75c-.07,3.06-6.73,306.63-1.19,370.44,2.61,30.09-3.21,52.97-17.3,67.99-12,12.78-26.13,15.47-30.91,16.02l-339.42,58.7c-10.41,14.57-39.17,46.91-89.59,46.91Z"/>
  <path class="cls-1" d="M539.25,324.07s-47.67-11.59-43.13,51.64c4.54,63.23,3.41,350.93,3.41,350.93,0,0-12.49,68.5,71.51,63.23l304.21,53.75s23.84,46.37,80.59,48.48c56.76,2.11,82.86-45.32,82.86-45.32l347.34-60.07s39.73-2.11,34.05-67.45c-5.68-65.34,1.14-372.01,1.14-372.01,0,0-6.81-30.56-42-23.18s-839.98,0-839.98,0Z"/>
  <path class="cls-2" d="M950.41,847.01c-3.14-.7-314.72-69.65-366.02-75.55-21.93-2.52-38.28-10.72-48.58-24.37-12.87-17.04-11.18-36.21-10.33-41.83,.78-16.62,11.54-250.86,5.13-312.22-3.23-30.95,1.09-52.29,13.2-65.24,9.6-10.27,20.92-11.8,26.81-11.8,1.2,0,2.25,.06,3.11,.14,31.97-.13,732.3-3.03,772.01-3.03,22.03,0,34.15,8.67,40.44,15.95,11.95,13.83,11.09,31.29,10.33,37.41,.86,24.06,10.12,284.74,8.46,336.39-1.92,59.82-42.7,62.85-50.86,62.85-.82,0-1.57-.02-2.25-.06l-397.86,82.14-3.6-.8Z"/>
  <path class="cls-4" d="M572.74,332.27s-32.35-6.07-25.54,59.16c6.81,65.22-5.11,315.49-5.11,315.49,0,0-8.51,42.47,44.27,48.54,52.78,6.07,367.78,75.84,367.78,75.84l396.72-81.91s35.76,6.07,37.46-47.02c1.7-53.09-8.51-336.73-8.51-336.73,0,0,6.81-36.4-34.05-36.4s-773.01,3.03-773.01,3.03Z"/>
  <path class="cls-2" d="M945.36,827.27c-5.21,0-10.19-1.96-14.03-5.51-50.57-46.86-311.39-130.25-338.03-135.58-15.76-3.15-20.48-18.64-22.98-75.3-1.42-32.23-1.82-77.37-1.17-134.15,1.13-99.38,5.1-207.22,6.75-248.97,.7-17.53,15.05-31.27,32.68-31.27,144.91,.85,324.41,108.54,344.4,120.81,6.14,3.76,9.84,10.33,9.89,17.56l3.31,471.44c.04,5.59-2.1,10.85-6.03,14.8-3.89,3.92-9.29,6.17-14.8,6.17h0Z"/>
  <path class="cls-3" d="M944.26,331.51c-20.2-12.41-195.46-117.52-335.59-118.35-8.63-.05-15.78,6.64-16.12,15.26-3.1,78.17-16.22,437.36,4.01,441.41,21.56,4.31,290.79,88.45,346.09,139.69,2.62,2.43,6.88,.47,6.86-3.1l-3.31-471.44c0-1.42-.73-2.72-1.94-3.47Z"/>
  <path class="cls-2" d="M951.44,327.99l7.73-4.86c7.82-4.92,193.21-120.49,344.89-122.09h.36c18.32,0,33.24,14.32,33.96,32.61,1.66,41.94,5.62,150.18,6.72,249.31,.62,56.34,.21,101.11-1.22,133.07-2.52,56.19-7.24,71.55-22.96,74.69-31.96,6.4-326.35,100.15-353.18,140.86l-22.4-4.31,6.09-499.28Z"/>
  <path class="cls-3" d="M968.05,337.24s187.48-117.96,336.19-119.53c9.36-.1,17.12,7.24,17.49,16.59,3.19,80.85,16.05,436.04-4.07,440.06-22.7,4.54-320.1,97.62-353.02,147.56l3.41-484.69Z"/>
  <path class="cls-2" d="M879.53,407.15c-61.53-65.19-183.55-79.8-215.8-82.57-4.46-.38-7.79-4.22-7.58-8.69v-.04c.22-4.71,4.28-8.3,8.98-7.92,34.28,2.78,160.28,17.57,226.49,87.75,3.28,3.48,2.96,9.01-.68,12.1h0c-3.37,2.86-8.38,2.59-11.41-.63Z"/>
  <path class="cls-2" d="M873.86,518.4c-61.53-65.19-183.55-79.8-215.8-82.57-4.46-.38-7.79-4.22-7.58-8.69v-.04c.22-4.71,4.28-8.3,8.98-7.92,34.28,2.78,160.28,17.57,226.49,87.75,3.28,3.48,2.96,9.01-.68,12.1h0c-3.37,2.86-8.38,2.59-11.41-.63Z"/>
  <path class="cls-2" d="M864.78,647.8c-61.53-65.19-183.55-79.8-215.8-82.57-4.46-.38-7.79-4.22-7.58-8.69v-.04c.22-4.71,4.28-8.3,8.98-7.92,34.28,2.78,160.28,17.57,226.49,87.75,3.28,3.48,2.96,9.01-.68,12.1h0c-3.37,2.86-8.38,2.59-11.41-.63Z"/>
  <path class="cls-2" d="M1038.29,398.07c61.53-65.19,183.55-79.8,215.8-82.57,4.46-.38,7.79-4.22,7.58-8.69v-.04c-.22-4.71-4.28-8.3-8.98-7.92-34.28,2.78-160.28,17.57-226.49,87.75-3.28,3.48-2.96,9.01,.68,12.1h0c3.37,2.86,8.38,2.59,11.41-.63Z"/>
  <path class="cls-2" d="M1038.29,497.96c61.53-65.19,183.55-79.8,215.8-82.57,4.46-.38,7.79-4.22,7.58-8.69v-.04c-.22-4.71-4.28-8.3-8.98-7.92-34.28,2.78-160.28,17.57-226.49,87.75-3.28,3.48-2.96,9.01,.68,12.1h0c3.37,2.86,8.38,2.59,11.41-.63Z"/>
  <path class="cls-2" d="M1050.77,634.18c61.53-65.19,183.55-79.8,215.8-82.57,4.46-.38,7.79-4.22,7.58-8.69v-.04c-.22-4.71-4.28-8.3-8.98-7.92-34.28,2.78-160.28,17.57-226.49,87.75-3.28,3.48-2.96,9.01,.68,12.1h0c3.37,2.86,8.38,2.59,11.41-.63Z"/>
</svg>