<?xml version="1.0" encoding="UTF-8"?>
<svg id="Layer_1" data-name="Layer 1" xmlns="http://www.w3.org/2000/svg" viewBox="0 0 1920 1080">
  <defs>
    <style>
      .cls-1 {
        fill: #ea6f63;
      }

      .cls-2 {
        fill: #5fc39c;
      }

      .cls-3 {
        fill: #d0ddff;
      }

      .cls-4 {
        fill: #fb8067;
      }

      .cls-5 {
        fill: #50445e;
      }

      .cls-6 {
        fill: #78edc8;
      }

      .cls-7 {
        fill: #4e415d;
      }

      .cls-8 {
        fill: #eb846f;
      }
    </style>
  </defs>
  <polygon class="cls-7" points="1125.39 852.05 1103.61 800.27 1098.73 770.94 1242.58 778.24 1186.73 857.56 1125.39 852.05"/>
  <polygon class="cls-1" points="1120.83 795.29 1137.64 835.28 1178.09 838.92 1209.44 794.38 1119.92 789.84 1120.83 795.29"/>
  <polygon class="cls-7" points="1263.54 841.14 1241.76 789.37 1236.88 760.03 1380.72 767.34 1324.88 846.66 1263.54 841.14"/>
  <polygon class="cls-1" points="1258.98 784.39 1275.79 824.38 1316.24 828.01 1347.59 783.48 1258.07 778.93 1258.98 784.39"/>
  <polygon class="cls-7" points="747.29 828.42 725.52 776.64 720.63 747.31 864.48 754.61 808.63 833.93 747.29 828.42"/>
  <polygon class="cls-1" points="742.74 771.66 759.55 811.65 799.99 815.29 831.35 770.75 741.83 766.21 742.74 771.66"/>
  <polygon class="cls-7" points="623.68 835.69 601.91 783.92 597.02 754.58 740.87 761.88 685.03 841.21 623.68 835.69"/>
  <polygon class="cls-1" points="619.13 778.93 635.94 818.92 676.39 822.56 707.74 778.02 618.22 773.48 619.13 778.93"/>
  <polygon class="cls-7" points="505.53 815.7 483.76 763.92 478.87 734.59 622.72 741.89 566.87 821.21 505.53 815.7"/>
  <polygon class="cls-1" points="500.97 758.94 517.79 798.93 558.23 802.56 589.59 758.03 500.06 753.48 500.97 758.94"/>
  <path class="cls-7" d="M1485.34,538.12l49.93,1.93,3.31,12.83c1.41,5.48,33.71,134.56-39.56,169.56l-3.16,1.51-78.47,4.44,67.95-190.27Z"/>
  <path class="cls-4" d="M1497.71,556.41l23.63,.91s30.9,119.97-29.99,149.06l-48.17,2.73,54.53-152.69Z"/>
  <path class="cls-5" d="M826.48,362.45l-4.87-7.7c-22.85-36.13-49.34-105.17-3.72-134.73,6.55-4.24,13.95-6.4,22-6.4,53.43,0,126.13,108.14,140.17,129.82l19.16,29.59-172.73-10.59Z"/>
  <path class="cls-6" d="M836.65,345.25l128.45,7.88s-94.52-146.03-137.54-118.15c-43.02,27.87,9.09,110.28,9.09,110.28Z"/>
  <path class="cls-7" d="M1170.78,819.94c-8.17,0-16.19-.07-24.05-.19-6.9-.1-13.7-.25-20.32-.43-64.57-1.74-112.05-6.57-114.04-6.78l-.36-.04c-1.24-.15-125.48-15.37-237.61-15.37-30.37,0-57.36,1.12-80.23,3.32-15.38,1.48-30.46,2.23-44.82,2.23-91.13,0-144.89-28.94-192.31-54.48-5.75-3.1-11.39-6.14-17-9.06-22.55-11.76-30.15-27.79-32.55-39.16-5.43-25.68,9.44-51.15,22.87-67.99,5.42-6.83,9.8-11.17,10.28-11.65l5.53-5.42,21.12,.95,726.38,33.21,23.69,1.11,19.25,.87,258.09,24.72-29.45,71.48-.58,.77c-36.17,47.72-135.04,71.91-293.87,71.91Z"/>
  <path class="cls-3" d="M1477.7,691.82l-10.25,17.12-16.98,28.34c-43.25,57.06-191.66,66.39-303.47,64.68-6.83-.11-13.56-.25-20.11-.43-64.65-1.74-112.7-6.69-112.7-6.69,0,0-195.72-24.24-321.73-12.1-126.05,12.1-187.24-29.69-244.2-59.38-42.65-22.25-18.72-61.8-3.99-80.27,4.91-6.19,8.83-10.04,8.83-10.04l13.38,.6,726.37,33.21,23.67,1.1,18.83,.85,228.43,21.68,13.92,1.32Z"/>
  <path class="cls-7" d="M1486.28,694.52l-2.21,4.24-3.99,2.56c-4.13,2.67-8.33,5.2-12.64,7.62-83.12,47.35-201.16,57.56-287.59,57.56-4.16,0-8.26-.03-12.32-.07-7.01-.07-13.85-.21-20.43-.39-59.2-1.64-100.56-7.19-102.59-7.48l-1.42-.21-1.39-.43c-2.21-.68-220.74-67.21-339.35-67.21-6.98,0-13.49,.21-19.44,.68-9.11,.71-18.58,1.07-28.09,1.07-2.99,0-5.98-.04-8.94-.11-5.98-.14-11.89-.39-17.76-.82-97.36-6.44-177.95-45.57-181.66-47.35l-2.21-1.1-3.92-1.92-2.56-6.34c-18.65-46.7-24.28-117.44-18.65-185.43,.46-5.95,1.03-11.85,1.71-17.73,6.19-55.32,19.9-107.19,40.08-140.75,14.13-23.53,30.83-36.45,49.66-38.48,2.49-.28,5.02-.43,7.48-.43,69.95,0,96.29,102.2,101.85,128.26,10.04,10.86,24.14,16.16,42.9,16.16,77.89,0,193.94-88.64,195.11-89.53l.57-.43,.6-.39c4.88-3.17,10.89-4.7,18.37-4.7,41.12,0,150.76,51.26,196,73.26,14.95,7.3,146.81,71.98,170.66,100.31,13.81,16.45,100.46,28.59,178.7,31.4,5.13,.21,10.22,.36,15.27,.46l3.95,.07,3.52,1.74c.11,.04,.18,.11,.28,.14,27.94,13.74,46.67,34.49,55.6,61.58,18.87,57.03-13.78,121.46-15.16,124.16Z"/>
  <path class="cls-6" d="M603.37,388.27s-23.63-125.43-90.89-118.15-101.79,249.03-58.17,358.1c0,0,110.88,54.53,227.22,45.44,116.34-9.09,365.37,67.26,365.37,67.26,0,0,279.93,38.17,423.54-54.53,0,0,59.99-116.34-32.72-161.78,0,0-178.14-3.64-207.22-38.17-29.08-34.54-330.83-185.41-361.73-165.42,0,0-198.14,152.69-265.39,67.26Z"/>
  <path class="cls-2" d="M1470.44,623.47c-143.6,78.71-423.54,46.3-423.54,46.3,0,0-249.03-64.82-365.37-57.1-116.34,7.72-227.22-38.58-227.22-38.58-11.6-24.62-17.67-57.21-19.08-91.9-1.78,54.42,3.95,108.2,19.08,146.03,0,0,110.88,54.53,227.22,45.44,116.34-9.09,365.37,67.26,365.37,67.26,0,0,279.93,38.17,423.54-54.53,0,0,28.17-54.66,16.05-103.68-5.39,23.21-16.05,40.77-16.05,40.77Z"/>
  <path class="cls-7" d="M908.92,719.85c-59.66-12.5-149.37-30.12-162.02-30.12h-.2c-10.8,0-19.11-9.54-17.62-20.23l.02-.17c.28-1.92,7.26-47.4,33.82-93.32,36.3-62.74,91.41-95.91,159.36-95.91,35.11,0,74.06,8.9,115.77,26.44l.65,.27,.63,.32c47.63,24.63,130.39,65.3,149.7,69.57h0c7.67,1.69,13.32,8.21,13.9,16.04h0c.25,3.26,1.81,32.48-18.15,55.5-12.99,14.98-31.49,23.37-54.99,24.96h0c-3.71,.25-7.4-.66-10.56-2.62h0c-.57-.35-58.97-35.93-111.61-35.93-42.06,0-67.45,23.37-77.64,71.46h0c-2.03,9.61-11.45,15.75-21.05,13.73h-.01Z"/>
  <path class="cls-8" d="M746.7,671.93s37.46-252.88,284.45-148.98c0,0,125.25,64.78,154.04,71.14,0,0,4.29,57.26-56.59,61.36,0,0-182.21-112.65-216.02,46.98,0,0-146.44-30.69-165.87-30.49Z"/>
  <path class="cls-1" d="M1181.18,593c-6.38,10.64-20.31,21.49-50.5,22.54,0,0-183.67-84.66-215.2,31.17,0,0-115.53-19.24-155.14-23.67-10.48,27.63-13.64,48.88-13.64,48.88,19.43-.2,165.87,30.49,165.87,30.49,33.81-159.63,216.02-46.98,216.02-46.98,60.89-4.11,56.59-61.36,56.59-61.36-1.17-.26-2.54-.64-4.01-1.08Z"/>
  <path class="cls-7" d="M972.2,470.13c-5.24,0-10.41-1.39-14.96-4.01-6.93-4-11.88-10.46-13.96-18.19-2.07-7.73-1.01-15.8,2.99-22.73l43.4-75.18c5.34-9.24,15.28-14.98,25.95-14.98,5.24,0,10.41,1.39,14.96,4.01,6.93,4,11.88,10.46,13.96,18.19,2.07,7.73,1.01,15.8-2.99,22.73l-43.4,75.18c-5.33,9.24-15.28,14.98-25.95,14.98h0Z"/>
  <rect class="cls-8" x="978.06" y="343.33" width="31.71" height="118.52" rx="3.98" ry="3.98" transform="translate(334.45 -443.02) rotate(30)"/>
  <path class="cls-7" d="M1040.06,501.64c-5.24,0-10.41-1.39-14.96-4.01-6.93-4-11.88-10.46-13.96-18.19-2.07-7.73-1.01-15.8,2.99-22.73l43.4-75.18c5.34-9.24,15.28-14.98,25.95-14.98,5.24,0,10.41,1.39,14.96,4.01,6.93,4,11.88,10.46,13.96,18.19,2.07,7.73,1.01,15.8-2.99,22.73l-43.4,75.18c-5.33,9.24-15.28,14.98-25.95,14.98h0Z"/>
  <rect class="cls-8" x="1045.92" y="374.84" width="31.71" height="118.52" rx="3.98" ry="3.98" transform="translate(359.3 -472.73) rotate(30)"/>
  <path class="cls-7" d="M1109.14,540.42c-5.24,0-10.41-1.39-14.96-4.01-6.93-4-11.88-10.46-13.96-18.19-2.07-7.73-1.01-15.8,2.99-22.73l43.4-75.18c5.34-9.24,15.28-14.98,25.95-14.98,5.24,0,10.41,1.39,14.96,4.01,6.93,4,11.88,10.46,13.96,18.19,2.07,7.73,1.01,15.8-2.99,22.73l-43.4,75.18c-5.33,9.24-15.28,14.98-25.95,14.98h0Z"/>
  <rect class="cls-8" x="1115" y="413.61" width="31.71" height="118.52" rx="3.98" ry="3.98" transform="translate(387.94 -502.07) rotate(30)"/>
  <path class="cls-7" d="M1174.58,582.83c-5.24,0-10.41-1.39-14.96-4.01-6.93-4-11.88-10.46-13.96-18.19-2.07-7.73-1.01-15.8,2.99-22.73l43.4-75.18c5.34-9.24,15.28-14.98,25.95-14.98,5.24,0,10.41,1.39,14.96,4.01,6.93,4,11.88,10.46,13.96,18.19,2.07,7.73,1.01,15.8-2.99,22.73l-43.4,75.18c-5.33,9.24-15.28,14.98-25.95,14.98h0Z"/>
  <rect class="cls-8" x="1180.44" y="456.03" width="31.71" height="118.52" rx="3.98" ry="3.98" transform="translate(417.92 -529.11) rotate(30)"/>
  <path class="cls-7" d="M646.13,674.59c-2.31-121-91.34-221.1-207.39-240.57-5.91-1-11.89-1.78-17.91-2.35-.68,5.87-1.25,11.78-1.71,17.73,6.02,.53,12,1.35,17.87,2.38,106.76,18.51,188.63,110.6,191.34,221.95,.04,1.89,.07,3.77,.07,5.7,0,4.06-.11,8.12-.28,12.1,5.87,.43,11.78,.68,17.76,.82,.21-4.27,.32-8.58,.32-12.92,0-1.64,0-3.24-.07-4.84Z"/>
  <path class="cls-7" d="M1167.54,766.43c2.03-3.42,3.2-5.34,3.28-5.41l.57-.85,3.81-11.5,2.31-6.98,.07-1.21c.04-.61,2.74-39.48,38.94-72.51,19.93-18.19,50.02-34.6,95.37-41.86,56.89-9.11,93.55-27.84,108.96-55.67,9.9-17.87,8.12-34.6,6.05-43.22l2.88-2.81,16.05-15.63c-.11-.04-.18-.11-.28-.14l-3.52-1.74-3.95-.07c-5.05-.11-10.15-.25-15.27-.46l-16.55,16.13,.39,.89,1.99,4.7c.04,.14,6.37,16.2-3.35,33.75-12.46,22.46-45.74,38.62-96.22,46.7-58.88,9.43-94.62,33.43-116.23,58.35-27.23,31.36-32.14,64.22-32.89,71.27l-3.45,10.32-1.39,4.13c-1.14,1.85-3.99,6.59-8.01,13.46"/>
</svg>