<?xml version="1.0" encoding="UTF-8"?>
<svg id="Layer_1" data-name="Layer 1" xmlns="http://www.w3.org/2000/svg" viewBox="0 0 1920 1080">
  <defs>
    <style>
      .cls-1 {
        fill: #f8d757;
      }

      .cls-2 {
        fill: #f39954;
      }

      .cls-3 {
        fill: #5b386c;
      }

      .cls-4 {
        fill: #fbd554;
      }

      .cls-5 {
        fill: #79daec;
      }

      .cls-6 {
        fill: #fdf8d0;
      }
    </style>
  </defs>
  <path class="cls-5" d="M773.82,889.26c-27.24,0-53.12-12.01-70.98-32.95-17.83-20.9-25.24-47.48-20.87-74.84l21.54-134.85c.76-4.76-.87-9.58-4.36-12.91l-98.87-94.19c-25.82-24.6-35.25-61.02-24.63-95.06,10.63-34.04,39.12-58.62,74.35-64.15l134.91-21.18c4.76-.75,8.85-3.79,10.93-8.13l59.03-123.14c15.61-32.57,47.75-52.8,83.88-52.8s66.96,19.5,82.9,50.89l61.84,121.76c2.18,4.3,6.34,7.24,11.11,7.88l135.36,18.09c35.35,4.73,64.39,28.65,75.8,62.43,11.41,33.79,2.81,70.42-22.44,95.6l-96.7,96.44c-3.41,3.4-4.93,8.26-4.06,13l24.62,134.33c5,27.26-2.23,55-19.83,76.12-17.88,21.46-43.99,33.77-71.62,33.77-14.72,0-28.98-3.47-42.36-10.31l-121.6-62.16c-2.05-1.05-4.36-1.6-6.66-1.6-2.42,0-4.83,.61-6.96,1.76l-120.14,64.93c-13.87,7.5-28.75,11.3-44.2,11.3h0Z"/>
  <path class="cls-3" d="M773.82,869.67c-21.5,0-41.94-9.5-56.07-26.07-14.05-16.47-19.88-37.43-16.43-59.04l21.54-134.85c1.78-11.13-2.03-22.41-10.19-30.18l-98.88-94.2c-20.38-19.42-27.83-48.17-19.44-75.04,8.39-26.87,30.88-46.27,58.69-50.64l134.91-21.18c11.13-1.75,20.68-8.86,25.56-19.02l59.03-123.15c12.32-25.71,37.69-41.68,66.21-41.68s52.85,15.39,65.44,40.17l61.84,121.76c5.1,10.05,14.82,16.94,25.99,18.43l135.36,18.09c27.9,3.73,50.83,22.61,59.83,49.28s2.22,55.58-17.71,75.46l-96.7,96.44c-7.98,7.96-11.53,19.33-9.5,30.41l24.62,134.33c3.95,21.52-1.74,43.41-15.61,60.05-14.15,16.98-34.77,26.72-56.57,26.72-11.59,0-22.85-2.75-33.44-8.16l-121.6-62.16c-4.8-2.45-10.19-3.75-15.58-3.75-5.66,0-11.29,1.42-16.28,4.12l-120.14,64.93c-10.98,5.94-22.72,8.95-34.89,8.95Z"/>
  <path class="cls-4" d="M1090.64,839.57l-121.6-62.16c-15.77-8.06-34.5-7.85-50.09,.57l-120.14,64.93c-39.24,21.21-85.77-11.79-78.73-55.84l21.54-134.85c2.79-17.49-3.2-35.24-16.02-47.46l-98.88-94.2c-32.3-30.77-15.29-85.22,28.77-92.14l134.91-21.18c17.5-2.75,32.53-13.93,40.18-29.9l59.03-123.15c19.28-40.22,76.32-40.88,96.52-1.11l61.84,121.76c8.02,15.79,23.3,26.63,40.86,28.98l135.36,18.09c44.21,5.91,62.46,59.95,30.88,91.45l-96.69,96.44c-12.54,12.51-18.13,30.39-14.93,47.81l24.63,134.32c8.04,43.88-37.72,77.93-77.43,57.63Z"/>
  <g>
    <path class="cls-6" d="M636.85,520.12c-31.75-30.05-7.45-81.45,35.88-88.21l126.41-23.68c17.21-2.69,38.23-10.63,45.76-26.23l58.05-120.29c15.59-32.29,49.53-48.99,74.38-31.29-24.77-25.7-70.31-20.73-87.12,14.36l-59.03,123.15c-7.66,15.97-22.68,27.16-40.18,29.9l-134.91,21.18c-44.07,6.92-61.07,61.37-28.77,92.14"/>
    <path class="cls-6" d="M1092.57,404.87l133.09,17.66c26.59,3.53,43.6,24.65,45.72,47.57,1.97-26.64-16.16-53.53-46.6-57.6l-135.36-18.09c-9.96-1.33-19.18-5.4-26.76-11.55,8.18,10.83,18.71,20.52,29.92,22.01Z"/>
    <path class="cls-6" d="M1094.31,840.26l-119.56-60.71c-3.48-1.77-7.11-3.1-10.82-4.06,1.93,.72,3.83,1.54,5.69,2.49l121.6,62.16c8.85,4.52,18,6.33,26.78,5.95-7.82-.06-15.88-1.87-23.69-5.84Z"/>
  </g>
  <path class="cls-2" d="M1158.96,600.39c-12.54,12.51-18.13,30.38-14.93,47.8l6.75,36.83,17.87,97.5c8.05,43.87-37.71,77.93-77.43,57.63l-95.69-48.92-25.91-13.25c-15.76-8.06-34.5-7.85-50.08,.57l-120.14,64.92c-39.26,21.22-85.78-11.78-78.74-55.83l3.16-19.83,1.14,14.39c.22,4.71,1.03,8.5,2.78,12.34,3.72,8.14,12.99,17.87,19.81,23.61,8.28,6.98,16.4,12.33,26.25,12.33,5.59,0,11.06-1.43,16.26-4.23l120.15-64.94c10.68-5.77,22.76-8.83,34.9-8.83s21.75,3.4,33.41,8.05l16.62,8.5v-.08s70.42,23.48,102.09-.76c31.47-24.09,35.85-55.21,33.91-81.53l-6.4-34.93c-4.37-23.77,3.25-48.15,20.36-65.22l96.18-95.92c9.51-9.48,13.08-23.6,8.59-36.26-4.39-12.31-14.69-20.68-27.71-22.41l-122.55-16.38c-14.81-1.99-28.08-10.26-36.26-22.77-7.66-11.69-14.96-26.99-22.73-42.93l7.91,15.6c8.03,15.79,23.3,26.63,40.85,28.98l135.37,18.08c44.2,5.91,62.45,59.95,30.86,91.46l-96.69,96.43Z"/>
  <polygon class="cls-6" points="701.91 458.08 691.84 463.59 686.33 473.66 680.82 463.59 670.75 458.08 680.82 452.57 686.33 442.5 691.84 452.57 701.91 458.08"/>
  <polygon class="cls-1" points="1209.33 305.22 1200.34 289.73 1184.42 281.54 1199.91 272.55 1208.1 256.63 1217.09 272.12 1233.01 280.31 1217.52 289.29 1209.33 305.22"/>
  <polygon class="cls-1" points="1084.69 262.13 1075.7 246.64 1059.78 238.45 1075.27 229.47 1083.46 213.54 1092.45 229.03 1108.37 237.22 1092.88 246.21 1084.69 262.13"/>
  <polygon class="cls-1" points="1276.26 615.28 1267.28 599.79 1251.35 591.59 1266.84 582.61 1275.04 566.69 1284.02 582.17 1299.94 590.37 1284.46 599.35 1276.26 615.28"/>
  <polygon class="cls-1" points="1231.64 730.68 1222.65 715.19 1206.73 707 1222.22 698.02 1230.41 682.09 1239.4 697.58 1255.32 705.77 1239.83 714.76 1231.64 730.68"/>
  <polygon class="cls-1" points="648.26 742.8 639.27 727.31 623.35 719.12 638.84 710.13 647.03 694.21 656.02 709.7 671.94 717.89 656.45 726.88 648.26 742.8"/>
  <polygon class="cls-1" points="591.13 619.89 582.15 604.4 566.23 596.21 581.71 587.23 589.91 571.3 598.89 586.79 614.81 594.98 599.33 603.97 591.13 619.89"/>
  <polygon class="cls-1" points="679.42 355.03 670.43 339.55 654.51 331.35 670 322.37 678.19 306.45 687.18 321.93 703.1 330.13 687.61 339.11 679.42 355.03"/>
  <polygon class="cls-1" points="778.09 270.21 769.11 254.72 753.18 246.53 768.67 237.54 776.86 221.62 785.85 237.11 801.77 245.3 786.28 254.29 778.09 270.21"/>
  <g>
    <path class="cls-3" d="M912.42,657.77c-8.58,0-16.73-3.25-22.96-9.15l-66.18-62.69c-8.34-7.9-13.11-18.58-13.42-30.07-.31-11.49,3.87-22.41,11.77-30.75l6.52-6.89c8.09-8.54,19.47-13.43,31.24-13.43,11.05,0,21.56,4.19,29.59,11.79l21.7,20.55,98.48-101.04c8.17-8.38,19.11-12.99,30.81-12.99s21.95,4.34,30.03,12.21l6.79,6.62c16.99,16.56,17.34,43.85,.78,60.84l-141.25,144.92c-6.34,6.5-14.83,10.08-23.91,10.08Z"/>
    <path class="cls-6" d="M902.93,634.4l-66.18-62.69c-9.4-8.9-9.8-23.73-.9-33.13l6.52-6.89c8.9-9.4,23.73-9.8,33.13-.9l35.72,33.84,111.97-114.88c9.03-9.27,23.87-9.46,33.14-.43l6.79,6.62c9.27,9.03,9.46,23.87,.43,33.14l-141.25,144.92c-5.27,5.4-13.9,5.57-19.37,.39Z"/>
  </g>
  <rect class="cls-5" x="929.5" y="832.84" width="32.32" height="85.42" rx="7.15" ry="7.15"/>
  <rect class="cls-5" x="1227.31" y="603.14" width="32.32" height="85.42" rx="7.15" ry="7.15" transform="translate(441.14 1794.59) rotate(-82.51)"/>
  <rect class="cls-5" x="628.23" y="608.91" width="32.32" height="85.42" rx="7.15" ry="7.15" transform="translate(140.39 1417.01) rotate(-101.95)"/>
  <rect class="cls-5" x="727.5" y="266.08" width="32.32" height="85.42" rx="7.15" ry="7.15" transform="translate(-23.57 553.2) rotate(-40.22)"/>
  <rect class="cls-5" x="1107.26" y="261.46" width="32.32" height="85.42" rx="7.15" ry="7.15" transform="translate(1822.66 1234.59) rotate(-142.08)"/>
</svg>