<?xml version="1.0" encoding="UTF-8"?>
<svg id="Layer_1" data-name="Layer 1" xmlns="http://www.w3.org/2000/svg" viewBox="0 0 1920 1080">
  <defs>
    <style>
      .cls-1 {
        fill: #fff;
      }

      .cls-2 {
        fill: #ffc755;
      }

      .cls-3 {
        fill: #fc7a61;
      }

      .cls-4 {
        fill: #fff2bf;
      }

      .cls-5 {
        fill: #5d3670;
      }
    </style>
  </defs>
  <path class="cls-5" d="M894.84,943.6c-6.06,0-17.23-.23-24.52-1.72l-.42-.05c-1.36-.17-3.65-.45-6.3-1.25-27.05-8.12-263.39-85.28-235.74-292.65,11.57-86.81,33.68-153.98,65.7-199.64,22.16-31.6,47.32-48.64,59.74-48.64h19.89l.85,8.96c2.62-17.44,9.52-35.13,20.45-51.99,16.64-25.66,41.06-47.1,66.99-58.81,25.13-11.35,11.7-79.32,1.71-108.59l-14.24-41.73,41.83,13.93c143.72,47.91,170.82,164.5,185.38,227.14,2.17,9.33,4.72,20.29,7.01,27.26,4.67-3.64,9.8-11.42,14.15-21.8,4.94-11.79,16.39-19.41,29.16-19.41s23.87,7.43,28.88,18.94c32.57,74.75,100.24,263.05,25.43,396.84-81.55,145.85-252.52,153.23-285.96,153.23Z"/>
  <path class="cls-3" d="M883.87,182.13s38.5,112.15-13.39,135.58c-43.44,19.62-85.7,74.43-73.77,124.16,5.75,23.97-29.81,33.91-37.53,10.5-2.62-7.95-4.66-18.07-5.87-30.88,0,0-77,28.46-103.78,229.32-25.28,189.57,195.44,261.35,220.35,268.83,1.54,.46,3.14,.46,4.71,.8,21.56,4.6,205.71,4.9,287.14-140.74,71.08-127.12,1.52-313.4-26.39-377.45-3.42-7.86-14.54-7.7-17.86,.2-7.33,17.47-20.47,38.44-41.12,37.46-35.15-1.67-1.67-194.17-192.49-257.77Z"/>
  <path class="cls-2" d="M897.13,372.39s-.01,0-.01,0c.17,.49,26.68,78.11-9.32,94.37-30.24,13.65-59.66,51.8-51.35,86.43,4,16.68-20.75,23.6-26.12,7.31-1.82-5.53-3.25-12.58-4.09-21.5,0,0-53.59,19.81-72.24,159.62-17.59,131.95,136.04,181.92,153.37,187.12,1.07,.32,2.18,.32,3.28,.56,15.01,3.21,143.18,3.41,199.87-97.96,49.42-88.39,1.15-217.87-18.31-262.59-2.4-5.51-10.2-5.45-12.53,.09-5.11,12.14-14.24,26.66-28.58,25.98-24.47-1.17-1.17-135.14-133.97-179.42Z"/>
  <path class="cls-4" d="M908.62,526.53c-.46-.16-.92,.26-.77,.72,2.23,7.06,13.46,45.75-5.85,54.48-17.81,8.04-35.14,30.51-30.24,50.9,2.36,9.83-12.22,13.9-15.38,4.3-1.07-3.26-1.91-7.41-2.41-12.66,0,0-31.57,11.67-42.55,94.01-10.36,77.72,80.12,107.15,90.34,110.21,.63,.19,1.29,.19,1.93,.33,8.84,1.89,84.33,2.01,117.72-57.7,28.56-51.08,1.73-125.47-10.12-153.13-1.63-3.8-6.95-3.82-8.67-.05-3.11,6.81-8.32,14.25-16.21,13.87-14.34-.68-.82-78.84-77.78-105.3Z"/>
  <path class="cls-5" d="M875.39,722.84l-7.24-10.7c-3.41-5.04-10.82-5.05-14.24-.02l-7.31,10.74c-1.6,2.36-4.27,3.77-7.12,3.77h-39.06c-6.92,0-11.01-7.75-7.1-13.46l34.42-50.37c2-2.93,2-6.78,0-9.71l-32.92-48.25c-3.9-5.71,.19-13.46,7.11-13.46h39.05c2.85,0,5.52,1.41,7.12,3.77l5.84,8.61c3.41,5.03,10.83,5.03,14.24,0l5.84-8.61c1.6-2.36,4.27-3.78,7.12-3.78h38.9c6.91,0,11.01,7.74,7.11,13.46l-32.92,48.25c-2,2.93-2,6.78,0,9.71l34.42,50.37c3.9,5.71-.19,13.46-7.1,13.46h-39.07c-2.86,0-5.53-1.42-7.13-3.79Z"/>
  <path class="cls-1" d="M848.02,657.92l-30.74-45.06c-1.39-2.04,.07-4.79,2.53-4.79h16.18c1.02,0,1.97,.5,2.54,1.34l20.01,29.5c1.22,1.79,3.86,1.79,5.08,0l20.01-29.5c.57-.84,1.52-1.35,2.54-1.35h16.03c2.46,0,3.92,2.76,2.53,4.79l-30.74,45.06c-.71,1.04-.71,2.42,0,3.46l32.24,47.17c1.39,2.04-.07,4.8-2.53,4.8h-16.18c-1.02,0-1.97-.51-2.54-1.35l-21.37-31.61c-1.21-1.8-3.86-1.8-5.08,0l-21.51,31.62c-.57,.84-1.52,1.34-2.54,1.34h-16.18c-2.47,0-3.92-2.76-2.53-4.8l32.24-47.17c.71-1.04,.71-2.42,0-3.46Z"/>
  <path class="cls-5" d="M946.39,722.61v-129.25c0-1.65,1.34-2.99,2.99-2.99h67.48c8.43,0,16.15,1.72,22.94,5.11,7.29,3.64,13.05,8.95,17.14,15.79,4,6.7,6.03,14.32,6.03,22.65v13.99c0,8.57-2.1,16.37-6.23,23.18-4.17,6.88-10.03,12.25-17.41,15.98-6.94,3.51-14.91,5.29-23.67,5.29h-15.57c-1.65,0-2.99,1.34-2.99,2.99v27.25c0,1.65-1.34,2.99-2.99,2.99h-44.72c-1.65,0-2.99-1.34-2.99-2.99Zm65.87-81.24h0c0-1.65-1.34-3-2.99-3h-9.17c-1.65,0-2.99,1.34-2.99,2.99h0c0,1.65,1.34,2.99,2.99,2.99h9.17c1.65,0,2.99-1.34,2.99-2.99Z"/>
  <path class="cls-1" d="M961.37,606.64c0-1.65,1.34-2.99,2.99-2.99h52.51c6.12,0,11.53,1.18,16.24,3.53,4.71,2.36,8.37,5.71,10.98,10.08,2.61,4.36,3.91,9.35,3.91,14.97v13.99c0,5.82-1.35,10.96-4.06,15.42-2.71,4.46-6.49,7.92-11.36,10.38-4.86,2.46-10.5,3.69-16.92,3.69h-30.55c-1.65,0-2.99,1.34-2.99,2.99v27.25c0,1.65-1.34,2.99-2.99,2.99h-14.77c-1.65,0-2.99-1.34-2.99-2.99v-99.29Zm54,51c3.51,0,6.37-1.13,8.57-3.38,2.2-2.26,3.31-5.24,3.31-8.95v-12.18c0-3.51-.98-6.29-2.93-8.35-1.96-2.05-4.54-3.08-7.75-3.08h-31.45c-1.65,0-2.99,1.34-2.99,2.99v29.96c0,1.65,1.34,2.99,2.99,2.99h30.25Z"/>
</svg>