<?xml version="1.0" encoding="UTF-8"?>
<svg xmlns="http://www.w3.org/2000/svg" xmlns:xlink="http://www.w3.org/1999/xlink" viewBox="0 0 1920 1080">
  <defs>
    <style>
      .cls-1 {
        fill: #4c235d;
      }

      .cls-2 {
        fill: #f39954;
      }

      .cls-3 {
        isolation: isolate;
      }

      .cls-4 {
        fill: #f97864;
      }

      .cls-5 {
        fill: #5b386c;
      }

      .cls-6 {
        fill: #fef8d2;
      }

      .cls-7 {
        fill: #4e245d;
      }

      .cls-8 {
        fill: #fbd554;
      }

      .cls-9 {
        fill: #f47964;
      }

      .cls-10 {
        fill: #fefeef;
      }

      .cls-11 {
        fill: url(#radial-gradient);
        mix-blend-mode: screen;
        opacity: .48;
      }

      .cls-12 {
        fill: #d9a953;
      }

      .cls-13 {
        fill: #fdf8d0;
      }
    </style>
    <radialGradient id="radial-gradient" cx="936.66" cy="507.31" fx="936.66" fy="507.31" r="461.47" gradientTransform="translate(1213.38 1555.24) rotate(-135) scale(1 1.07)" gradientUnits="userSpaceOnUse">
      <stop offset="0" stop-color="#fff"/>
      <stop offset=".16" stop-color="#fdeeba"/>
      <stop offset=".41" stop-color="#fbd554"/>
      <stop offset=".65" stop-color="#907a30"/>
      <stop offset=".89" stop-color="#29220d"/>
      <stop offset="1" stop-color="#000"/>
    </radialGradient>
  </defs>
  <g class="cls-3">
    <g id="Layer_1" data-name="Layer 1">
      <g>
        <path class="cls-5" d="M1293.61,899.86c-10.43,8.28-23.52,12.08-38.03,11.01-28.34-2.1-63.46-22.8-107.37-63.29-30.3-27.94-53.42-55-54.39-56.14l19.53-16.63-18.08-20.38,92.94-82.45,15.72,15.55c1.1,1.08,27.16,26.95,53.38,59.9,38.15,47.95,56.26,84.96,55.38,113.17-.48,15.26-6.44,28.3-17.24,37.72-.6,.53-1.22,1.04-1.84,1.53Zm-150.9-124.42c36.26,39.46,89.25,86.35,116.37,88.36,3.83,.28,4.89-.64,5.34-1.04,.38-.33,1-.87,1.09-3.63,.8-25.61-42.59-82.61-79.42-122.17l-43.38,38.49Z"/>
        <path class="cls-8" d="M1111.79,776.14s122.69,144.06,168.15,104.41c45.46-39.65-92.6-176.24-92.6-176.24l-76.4,67.77"/>
        <path class="cls-5" d="M874.92,1022.55c-13.03-2.74-24.32-10.39-32.75-22.24-16.48-23.16-22.97-63.41-19.83-123.05,2.16-41.16,8.23-76.23,8.49-77.7l25.27,4.41,4.14-26.93,122.79,18.9-1.93,22.02c-.13,1.54-3.4,38.11-12.03,79.33-12.55,59.97-29.47,97.55-51.75,114.88-12.05,9.37-25.9,13.11-40.04,10.81-.79-.13-1.57-.27-2.35-.44Zm-.58-195.58c-7.22,53.1-9.48,123.82,6.29,145.98,2.23,3.13,3.62,3.35,4.21,3.45,.49,.08,1.31,.21,3.49-1.48,20.22-15.73,36.39-85.52,43.33-139.13l-57.32-8.82Z"/>
        <path class="cls-8" d="M945.1,896.44c-11.21,51.83-31.1,108.61-64.04,103.26-26.1-4.24-34.5-42.4-35.71-83.95-1.56-53.27,8.71-112.13,8.71-112.13l2.57-3.24,100.94,15.52s-3.39,38.65-12.48,80.54Z"/>
        <path class="cls-5" d="M739.17,586.64l-71.9-16.42-.61-.11c-19.04-3.31-116.23-18.64-159.74,4.14-20.41,10.69-25.17,26.83-26.19,35.5-2.49,21.19,4.54,41.63,20.33,59.1,33.77,37.37,104.21,57.13,198.36,55.65l2.37-.04,67.16-14.74-29.78-123.08Z"/>
        <path class="cls-8" d="M662.62,593.37s-153.09-26.57-158.45,19.14,56.84,90.57,194.88,88.4l41.3-9.07-20.67-85.45-57.05-13.03Z"/>
        <g>
          <path class="cls-5" d="M1128.66,480.8l49.92-54.29,.44-.43c13.81-13.52,85.18-81.25,133.94-87.15,22.88-2.77,35.94,7.83,41.7,14.4,14.06,16.05,19.86,36.87,16.75,60.21-6.63,49.93-53.46,106.14-131.85,158.3l-1.98,1.31-63.69,25.93-45.24-118.27Z"/>
          <path class="cls-8" d="M1226.5,552.19l-39.16,15.95-31.42-82.11,4.43-4.81,35.18-38.27s55.1-53.92,98.28-73.7c18.12-8.3,34.14-10.6,43.11-.37,30.32,34.62,4.51,106.83-110.42,183.31Z"/>
          <path class="cls-12" d="M1294.67,368.97l-64.75,180.63s-36.46-10.53-36.87-11.41c-.27-.59-19.47-34-32.69-56.98l35.18-38.27s55.97-54.19,99.14-73.97Z"/>
        </g>
        <path class="cls-12" d="M534.92,589.42l170.52,110.94s24.06-29.34,23.91-30.31c-.11-.64-3.23-39.05-5.37-65.47l-50.68-11.58s-91.6-11.76-138.38-3.58Z"/>
        <path class="cls-12" d="M945.1,896.44l-99.74,19.31c-1.56-53.27,8.71-112.13,8.71-112.13l2.57-3.24,100.94,15.52s-3.39,38.65-12.48,80.54Z"/>
        <path class="cls-12" d="M1158.24,824.19l105.35-27.37c-22.44-48.34-57.97-96.38-57.97-96.38l-3.75-1.75-117.37,78.1s43.73,17.06,73.74,47.39Z"/>
        <path class="cls-5" d="M846.01,933.46c-24.85,7.29-51.7,3.24-73.66-11.13-21.82-14.27-35.67-36.53-39.01-62.67l-20.83-163.19c-1.72-13.47-9.95-25.22-22.01-31.43l-146.24-75.36c-30.14-15.53-48.5-46.24-47.91-80.15,.59-33.9,20-63.96,50.67-78.44l148.77-70.24c12.28-5.79,20.91-17.25,23.09-30.65l26.48-162.37c5.53-33.89,29.44-60.96,62.41-70.63,32.11-9.42,66.32-.13,89.26,24.24l112.77,119.78c9.3,9.88,22.87,14.55,36.29,12.49l162.6-24.99c33.52-5.15,66.42,8.9,85.87,36.68,19.45,27.77,21.41,63.5,5.11,93.23l-79.07,144.26c-6.52,11.9-6.77,26.25-.67,38.37l74.01,146.92c11.86,23.54,12.7,50.77,2.32,74.7-10.6,24.43-31.13,42.68-56.33,50.07-13.4,3.93-27.34,4.57-41.43,1.9l-161.64-30.62c-6.38-1.21-13.05-.88-19.28,.95-6.55,1.92-12.57,5.47-17.42,10.28l-116.86,115.79c-10.68,10.59-23.23,18.05-37.3,22.17Z"/>
        <path class="cls-8" d="M1202.04,791.24l-161.64-30.62c-20.97-3.97-42.54,2.63-57.7,17.65l-116.86,115.79c-38.17,37.82-103.14,15.46-109.95-37.85l-20.83-163.19c-2.7-21.17-15.65-39.65-34.61-49.42l-146.24-75.36c-47.77-24.62-46.57-93.32,2.02-116.26l148.77-70.23c19.3-9.11,32.87-27.13,36.31-48.19l26.48-162.37c8.65-53.04,74.36-73.13,111.19-34.01l112.77,119.78c14.63,15.54,35.96,22.88,57.05,19.64l162.6-24.99c53.11-8.16,92.53,48.12,66.7,95.24l-79.07,144.26c-10.26,18.71-10.65,41.27-1.05,60.33l74.01,146.92c24.18,47.99-17.17,102.87-69.97,92.87Z"/>
        <path class="cls-11" d="M1205.74,794.94l-161.64-30.62c-20.97-3.97-42.54,2.63-57.7,17.65l-116.86,115.79c-38.17,37.82-103.14,15.46-109.95-37.85l-20.83-163.19c-2.7-21.17-15.65-39.65-34.61-49.42l-146.24-75.36c-47.77-24.62-46.57-93.32,2.02-116.26l148.77-70.23c19.3-9.11,32.87-27.13,36.31-48.19l26.48-162.37c8.65-53.04,74.36-73.13,111.19-34.01l112.77,119.78c14.63,15.54,35.96,22.88,57.05,19.64l162.6-24.99c53.11-8.16,92.53,48.12,66.7,95.24l-79.07,144.26c-10.26,18.71-10.65,41.27-1.05,60.33l74.01,146.92c24.18,47.99-17.17,102.87-69.97,92.87Z"/>
        <g>
          <path class="cls-13" d="M569.16,575.85c-46.9-23.97-36.23-91.62,11.56-114.13l138.09-70.24c18.98-8.94,40.59-25.25,44-45.84l26.32-158.73c7.07-42.61,40.64-73.42,75.37-61.39-37.34-21.31-88.3-.12-95.84,46.14l-26.48,162.37c-3.43,21.06-17.01,39.08-36.31,48.19l-148.77,70.23c-48.59,22.94-49.79,91.65-2.02,116.26"/>
          <path class="cls-13" d="M1056.86,288.09l159.84-24.72c31.94-4.94,58.76,13.71,68.98,39.49-6.75-31.46-36.83-56.4-73.4-50.78l-162.6,24.99c-11.96,1.84-24,.26-34.85-4.27,13.12,9.75,28.59,17.38,42.04,15.3Z"/>
          <path class="cls-13" d="M1206.51,790.79l-158.79-29.63c-4.62-.86-9.27-1.18-13.88-1.02,2.47,.18,4.95,.49,7.42,.95l161.64,30.62c11.76,2.23,22.95,1.22,32.98-2.2-9.06,2.58-18.99,3.22-29.37,1.28Z"/>
        </g>
        <path class="cls-2" d="M1199.9,491.59c-10.25,18.71-10.65,41.27-1.05,60.32l20.29,40.29,53.72,106.65c24.18,47.98-17.16,102.86-69.96,92.87l-127.21-24.1-34.44-6.53c-20.96-3.97-42.54,2.62-57.69,17.64l-116.86,115.78c-38.18,37.84-103.15,15.46-109.95-37.84l-3.07-24,6.2,16.25c1.85,5.37,4.07,9.48,7.4,13.33,7.06,8.15,21.08,16.25,30.9,20.58,11.94,5.26,23.13,8.69,34.53,5.35,6.46-1.9,12.3-5.41,17.36-10.41l116.87-115.81c10.39-10.3,23.31-17.92,37.35-22.04,13.36-3.92,26.3-3.45,41.35-2.03l22.1,4.19-.03-.09s89.36,3.26,117.76-35.5c28.21-38.52,22.71-75.98,11.55-105.75l-19.25-38.21c-13.11-25.99-12.56-56.76,1.42-82.3l78.65-143.49c7.78-14.18,7.12-31.72-2.37-44.83-9.24-12.75-24-18.92-39.63-16.51l-147.21,22.62c-17.8,2.72-35.93-2.34-49.63-14.03-12.82-10.92-26.45-26.12-40.83-41.92l14.43,15.35c14.64,15.53,35.96,22.88,57.05,19.65l162.62-25c53.1-8.16,92.52,48.12,66.69,95.26l-79.07,144.26Z"/>
        <ellipse class="cls-13" cx="806.56" cy="263.77" rx="23.93" ry="17.73" transform="translate(359.89 985.3) rotate(-76.35)"/>
        <circle class="cls-13" cx="794.52" cy="310.12" r="12.98"/>
        <polygon class="cls-13" points="623.32 482.07 613.54 491.85 610.59 505.37 600.81 495.59 587.29 492.64 597.07 482.85 600.02 469.34 609.81 479.12 623.32 482.07"/>
        <polygon class="cls-13" points="1238.22 278.18 1209.67 306.75 1201.05 346.2 1172.48 317.66 1133.02 309.04 1161.57 280.46 1170.19 241.01 1198.76 269.55 1238.22 278.18"/>
        <polygon class="cls-13" points="1228.84 690.05 1205.38 713.53 1198.3 745.95 1174.82 722.49 1142.4 715.41 1165.86 691.93 1172.94 659.51 1196.42 682.97 1228.84 690.05"/>
        <ellipse class="cls-6" cx="790.53" cy="479.87" rx="61.65" ry="76.94" transform="translate(-103.11 241.93) rotate(-16.35)"/>
        <ellipse class="cls-7" cx="799.93" cy="475.67" rx="51.45" ry="69.53" transform="translate(-101.55 244.4) rotate(-16.35)"/>
        <circle class="cls-10" cx="792.47" cy="512.83" r="8.65"/>
        <ellipse class="cls-6" cx="1027.29" cy="406.55" rx="61.65" ry="76.94" transform="translate(-72.9 305.61) rotate(-16.35)"/>
        <ellipse class="cls-7" cx="1017.11" cy="408.09" rx="51.45" ry="69.53" transform="translate(-73.75 302.81) rotate(-16.35)"/>
        <circle class="cls-10" cx="1039.73" cy="432.83" r="8.65"/>
        <ellipse class="cls-4" cx="792.04" cy="579.42" rx="52.22" ry="32.45" transform="translate(-131.07 246.38) rotate(-16.35)"/>
        <ellipse class="cls-4" cx="1092.07" cy="488.51" rx="52.22" ry="32.45" transform="translate(-93.35 327.16) rotate(-16.35)"/>
        <polygon class="cls-10" points="809.35 498.66 790.79 476.11 763 467.14 785.55 448.58 794.52 420.79 813.08 443.34 840.87 452.31 818.32 470.87 809.35 498.66"/>
        <polygon class="cls-10" points="1016.54 435.16 997.98 412.61 970.19 403.64 992.74 385.08 1001.71 357.29 1020.27 379.84 1048.06 388.81 1025.51 407.37 1016.54 435.16"/>
        <path class="cls-1" d="M868.66,537.83c3.72-.89,129.34-47.87,129.34-47.87,0,0,34.99-1.69,33.29,75.02-1.7,76.71-44.49,88.52-44.49,88.52,0,0-51.12,27.97-101.02-37.57-49.9-65.53-17.12-78.1-17.12-78.1Z"/>
        <path class="cls-9" d="M908.42,616.52c.99-.58,30.46-68.88,105.63-36.78,0,0,4.18,44.48-36.83,59.82-41.01,15.34-68.81-23.04-68.81-23.04Z"/>
      </g>
    </g>
  </g>
</svg>