<?xml version="1.0" encoding="UTF-8"?>
<svg id="Layer_1" data-name="Layer 1" xmlns="http://www.w3.org/2000/svg" viewBox="0 0 1920 1080">
  <defs>
    <style>
      .cls-1 {
        fill: #4c235d;
      }

      .cls-2 {
        fill: #f39954;
      }

      .cls-3 {
        fill: #f97864;
      }

      .cls-4 {
        fill: #5b386c;
      }

      .cls-5 {
        fill: #fef8d2;
      }

      .cls-6 {
        fill: #4e245d;
      }

      .cls-7 {
        fill: #fbd554;
      }

      .cls-8 {
        fill: #fefeef;
      }

      .cls-9 {
        fill: #d9a953;
      }

      .cls-10 {
        fill: #fdf8d0;
      }
    </style>
  </defs>
  <path class="cls-4" d="M1033.33,926.89c-11.32,0-22.05-4.39-31.13-12.78-17.76-16.38-30.19-48.73-38.02-98.89-5.4-34.62-6.48-64.85-6.53-66.12l21.79-.75-1.26-23.12,105.45-5.75,2.24,18.66c.16,1.3,3.83,32.3,3.87,68.09,.05,52.08-7.46,86.3-22.96,104.61-8.39,9.9-19.25,15.43-31.42,16-.68,.03-1.36,.05-2.03,.05Zm-34.68-162.59c3.28,45.44,13.76,104.66,30.76,120.33,2.4,2.21,3.6,2.16,4.11,2.13,.42-.02,1.13-.05,2.65-1.84,14.07-16.62,15.32-77.5,11.72-123.31l-49.23,2.69Z"/>
  <path class="cls-7" d="M977.7,748.41s5.52,160.75,56.74,158.39c51.22-2.36,31.52-166.27,31.52-166.27l-86.68,4.73"/>
  <path class="cls-4" d="M875.99,930.04c-11.32,0-22.05-4.39-31.13-12.78-17.76-16.38-30.19-48.73-38.02-98.89-5.4-34.62-6.48-64.85-6.53-66.12l21.79-.75-1.26-23.12,105.45-5.75,2.24,18.66c.16,1.3,3.83,32.3,3.87,68.09,.05,52.08-7.46,86.3-22.96,104.61-8.39,9.9-19.25,15.43-31.42,16-.68,.03-1.36,.05-2.03,.05Zm-34.68-162.59c3.28,45.44,13.76,104.66,30.76,120.33,2.4,2.21,3.6,2.16,4.11,2.13,.42-.02,1.13-.05,2.65-1.84,14.07-16.62,15.32-77.5,11.72-123.31l-49.23,2.69Z"/>
  <path class="cls-7" d="M912.32,812.86c-.26,45.08-6.88,95.79-35.22,97.1-22.45,1.03-36.11-29.24-44.38-63.59-10.62-44.04-12.36-94.8-12.36-94.8l1.57-3.15,86.68-4.74s3.94,32.75,3.7,69.18Z"/>
  <path class="cls-9" d="M912.32,812.86l-79.6,33.5c-10.62-44.04-12.36-94.8-12.36-94.8l1.57-3.15,86.68-4.74s3.94,32.75,3.7,69.18Z"/>
  <path class="cls-9" d="M983.21,804.95l84.6,37.47c10.62-44.04,12.36-94.8,12.36-94.8l-1.57-3.15-119.42-10.05s20.09,34.48,24.03,70.53Z"/>
  <path class="cls-4" d="M769.95,849.96c-22.02,0-42.95-9.73-57.42-26.7-14.38-16.86-20.36-38.33-16.82-60.45l22.06-138.09c1.82-11.39-2.08-22.95-10.43-30.91l-101.25-96.46c-20.87-19.88-28.5-49.32-19.9-76.84,8.59-27.51,31.62-47.38,60.1-51.85l138.15-21.69c11.4-1.79,21.18-9.07,26.17-19.47l60.45-126.1c12.62-26.32,38.6-42.68,67.8-42.68s54.12,15.76,67.01,41.13l63.32,124.69c5.22,10.29,15.17,17.34,26.61,18.87l138.61,18.52c28.57,3.82,52.05,23.15,61.27,50.46s2.27,56.92-18.14,77.27l-99.02,98.75c-8.17,8.15-11.8,19.79-9.72,31.14l25.22,137.55c4.04,22.04-1.79,44.45-15.99,61.49-14.49,17.39-35.6,27.36-57.93,27.36-11.87,0-23.4-2.81-34.25-8.36l-124.52-63.65c-4.92-2.51-10.43-3.84-15.95-3.84-5.8,0-11.56,1.46-16.67,4.22l-123.03,66.49c-11.25,6.08-23.27,9.16-35.73,9.16Z"/>
  <path class="cls-7" d="M1094.38,819.13l-124.52-63.65c-16.15-8.26-35.33-8.04-51.29,.59l-123.03,66.49c-40.19,21.72-87.83-12.07-80.62-57.18l22.06-138.09c2.86-17.91-3.27-36.09-16.41-48.6l-101.25-96.46c-33.07-31.51-15.66-87.26,29.47-94.35l138.15-21.69c17.92-2.81,33.31-14.26,41.15-30.62l60.45-126.1c19.75-41.19,78.15-41.86,98.84-1.13l63.32,124.69c8.21,16.17,23.86,27.27,41.84,29.67l138.61,18.52c45.28,6.05,63.96,61.39,31.62,93.65l-99.02,98.75c-12.84,12.81-18.56,31.12-15.29,48.96l25.22,137.55c8.24,44.93-38.62,79.8-79.29,59.01Z"/>
  <g>
    <path class="cls-10" d="M629.69,492.01c-32.52-30.77-7.63-83.4,36.74-90.33l129.44-24.25c17.62-2.75,39.15-10.88,46.86-26.86l59.45-123.18c15.96-33.07,50.72-50.16,76.16-32.04-25.36-26.31-71.99-21.23-89.22,14.7l-60.45,126.1c-7.84,16.36-23.23,27.81-41.15,30.62l-138.15,21.69c-45.13,7.09-62.54,62.84-29.47,94.35"/>
    <path class="cls-10" d="M1096.35,373.99l136.29,18.08c27.23,3.61,44.65,25.25,46.81,48.71,2.02-27.28-16.54-54.82-47.72-58.98l-138.61-18.52c-10.2-1.36-19.64-5.53-27.41-11.82,8.37,11.09,19.16,21.01,30.63,22.54Z"/>
    <path class="cls-10" d="M1098.14,819.84l-122.43-62.17c-3.56-1.81-7.28-3.18-11.08-4.16,1.98,.74,3.92,1.58,5.83,2.55l124.52,63.65c9.06,4.63,18.43,6.49,27.43,6.1-8.01-.06-16.26-1.92-24.26-5.98Z"/>
  </g>
  <path class="cls-2" d="M1164.34,574.21c-12.84,12.81-18.56,31.11-15.29,48.95l6.91,37.72,18.3,99.84c8.24,44.92-38.61,79.8-79.29,59.01l-97.99-50.09-26.53-13.56c-16.14-8.26-35.32-8.04-51.28,.59l-123.02,66.48c-40.2,21.73-87.84-12.07-80.63-57.18l3.24-20.31,1.17,14.74c.22,4.83,1.05,8.7,2.85,12.64,3.81,8.34,13.31,18.29,20.29,24.18,8.48,7.15,16.79,12.62,26.88,12.62,5.73,0,11.33-1.47,16.65-4.34l123.04-66.5c10.94-5.91,23.3-9.04,35.74-9.04s22.28,3.48,34.21,8.24l17.02,8.7v-.08s72.11,24.04,104.55-.78c32.23-24.67,36.71-56.54,34.73-83.49l-6.56-35.77c-4.48-24.34,3.33-49.3,20.85-66.79l98.49-98.22c9.74-9.71,13.4-24.17,8.8-37.13-4.49-12.61-15.05-21.17-28.38-22.95l-125.49-16.77c-15.17-2.04-28.75-10.51-37.13-23.32-7.84-11.98-15.32-27.64-23.27-43.97l8.1,15.97c8.23,16.17,23.86,27.27,41.84,29.68l138.63,18.52c45.26,6.05,63.95,61.39,31.6,93.66l-99.01,98.75Z"/>
  <ellipse class="cls-10" cx="898.01" cy="294.26" rx="20.35" ry="15.07" transform="translate(194.17 924.83) rotate(-60)"/>
  <circle class="cls-10" cx="877.09" cy="329.19" r="11.03"/>
  <polygon class="cls-10" points="696.31 428.48 686 434.12 680.35 444.43 674.71 434.12 664.4 428.48 674.71 422.83 680.35 412.52 686 422.83 696.31 428.48"/>
  <ellipse class="cls-5" cx="833.23" cy="466.69" rx="52.4" ry="65.41"/>
  <ellipse class="cls-6" cx="841.9" cy="465.51" rx="43.73" ry="59.1"/>
  <ellipse class="cls-8" cx="855.82" cy="443.97" rx="13.66" ry="17.6"/>
  <circle class="cls-8" cx="834.8" cy="474.18" r="7.35"/>
  <ellipse class="cls-5" cx="1043.89" cy="463.54" rx="52.4" ry="65.41"/>
  <ellipse class="cls-6" cx="1050.2" cy="460.39" rx="43.73" ry="59.1"/>
  <ellipse class="cls-8" cx="1036.27" cy="438.85" rx="13.66" ry="17.6"/>
  <circle class="cls-8" cx="1057.29" cy="469.06" r="7.35"/>
  <ellipse class="cls-3" cx="810.64" cy="548.25" rx="44.39" ry="27.58"/>
  <ellipse class="cls-3" cx="1077.12" cy="545.89" rx="44.39" ry="27.58"/>
  <g>
    <path class="cls-4" d="M822.01,678.7c.64,3.47-.84,7.68,2.63,8.32l29.64,7.07,.36,.05c11.21,1.45,68.39,7.95,93.23-6.47,11.66-6.76,14.03-16.31,14.4-21.4,.92-12.44-3.71-24.21-13.38-34.02-20.68-20.98-61.23-23.75-116.2-20.5l-.96,.06c-.28,.02-.56,.05-.84,.09l-17.5,2.74c-4.72,.75-2.45,4.38-1.58,9.08l10.2,54.99Z"/>
    <path class="cls-7" d="M854.99,681.93s90.12,11.65,92.1-15.2c1.98-26.85-34.9-48.11-115.5-43.34l-20.46,2.33,10.19,50.04,33.66,6.17Z"/>
  </g>
  <g>
    <path class="cls-4" d="M1066.69,675.55c-.64,3.47,.84,7.68-2.63,8.32l-29.64,7.07-.36,.05c-11.21,1.45-68.39,7.95-93.23-6.47-11.66-6.76-14.03-16.31-14.4-21.4-.92-12.44,3.71-24.21,13.38-34.02,20.68-20.98,61.23-23.75,116.2-20.5l.96,.06c.28,.02,.56,.05,.84,.09l17.5,2.74c4.72,.75,2.45,4.38,1.58,9.08l-10.2,54.99Z"/>
    <path class="cls-7" d="M1033.71,678.77s-90.12,11.65-92.1-15.2c-1.98-26.85,34.9-48.11,115.5-43.34l20.46,2.33-10.19,50.04-33.66,6.17Z"/>
  </g>
  <path class="cls-1" d="M1093.86,398.73c-3.37,2.5-7.63,1.65-9.94-2.04-8.2-13.09-19.9-19.56-34.89-19.25-7.24,.15-13.74,1.85-18.25,3.41-3.75,1.3-7.59-1.02-8.98-5.38h0c-1.7-5.31,.86-11.43,5.44-13.01,5.57-1.92,13.44-3.94,22.18-4.12,19.84-.42,35.89,8.64,46.93,26.29,2.78,4.45,1.59,11.08-2.46,14.09h-.01Z"/>
  <path class="cls-1" d="M885.18,426.23c-3.78,1.81-7.81,.16-9.37-3.9-5.55-14.41-15.81-23-30.58-25.55-7.14-1.24-13.84-.81-18.57-.14-3.93,.56-7.25-2.44-7.79-6.99h0c-.66-5.54,3.03-11.06,7.82-11.73,5.84-.82,13.94-1.31,22.56,.18,19.55,3.38,33.58,15.33,41.05,34.76,1.88,4.9-.55,11.18-5.1,13.36h-.02Z"/>
  <path class="cls-1" d="M1001.32,545.2c-1.5,4.01-2.76,9.04-1.75,12.66,.12,.4,.25,.77,.42,1.11,1.08,2.16,1.19,4.67,.01,6.78l-.39,.69c-2.79,5-10.06,5.1-12.82,.1-.7-1.26-1.26-2.58-1.69-4l-80.09-.42c-.44,1.32-.99,2.56-1.65,3.73-2.83,4.99-10.09,4.81-12.83-.22l-.37-.69c-1.16-2.13-1.02-4.63,.07-6.79,.17-.34,.31-.7,.43-1.11,1.05-3.6-.15-8.66-1.62-12.67-1.22-3.41,.17-7.21,3.34-8.98l.43-.24c3.97-2.22,8.97-.35,10.52,3.92,.77,2.11,1.52,4.54,2.06,7.12l79.64,.42c.56-2.48,1.31-4.81,2.07-6.84,1.59-4.27,6.63-6.07,10.57-3.81l.42,.24c3.15,1.81,4.51,5.61,3.24,9.01Z"/>
  <circle class="cls-4" cx="1070.81" cy="255.11" r="18.91"/>
  <circle class="cls-4" cx="1114.94" cy="254.85" r="18.91"/>
  <circle class="cls-4" cx="1159.07" cy="255.11" r="18.91"/>
</svg>