<?xml version="1.0" encoding="UTF-8"?>
<svg id="Layer_1" data-name="Layer 1" xmlns="http://www.w3.org/2000/svg" xmlns:xlink="http://www.w3.org/1999/xlink" viewBox="0 0 1920 1080">
  <defs>
    <style>
      .cls-1 {
        fill: #80d3cc;
      }

      .cls-2 {
        fill: #f39954;
      }

      .cls-3 {
        fill: #fcf6cd;
      }

      .cls-4 {
        fill: #f97864;
      }

      .cls-5 {
        fill: url(#radial-gradient);
      }

      .cls-6 {
        fill: #5b386c;
      }

      .cls-7 {
        fill: #4e245d;
      }

      .cls-8 {
        fill: #f9d755;
      }

      .cls-9 {
        fill: #4b255d;
      }

      .cls-10 {
        fill: #fbd554;
      }

      .cls-11 {
        fill: url(#radial-gradient-2);
      }

      .cls-12 {
        fill: url(#radial-gradient-3);
      }

      .cls-13 {
        fill: #fefeef;
      }

      .cls-14 {
        fill: #d9a953;
      }

      .cls-15 {
        fill: #fdf8d0;
      }
    </style>
    <radialGradient id="radial-gradient" cx="1159.08" cy="291.95" fx="1159.08" fy="291.95" r="19.46" gradientUnits="userSpaceOnUse">
      <stop offset="0" stop-color="#80cfab"/>
      <stop offset="1" stop-color="#80d0ab"/>
    </radialGradient>
    <radialGradient id="radial-gradient-2" cx="1208.91" cy="268.28" fx="1208.91" fy="268.28" r="23.84" xlink:href="#radial-gradient"/>
    <radialGradient id="radial-gradient-3" cx="1269.96" cy="242.12" fx="1269.96" fy="242.12" r="31.17" xlink:href="#radial-gradient"/>
  </defs>
  <path class="cls-6" d="M1075.89,946.94c-11.93,0-23.24-4.63-32.81-13.47-18.72-17.27-31.82-51.36-40.07-104.24-5.69-36.49-6.84-68.36-6.88-69.69l22.97-.79-1.33-24.37,111.15-6.06,2.36,19.67c.17,1.37,4.04,34.04,4.08,71.77,.05,54.9-7.86,90.97-24.2,110.27-8.84,10.44-20.29,16.27-33.12,16.86-.71,.03-1.43,.05-2.14,.05Zm-36.55-171.38c3.45,47.89,14.51,110.32,32.42,126.84,2.53,2.33,3.79,2.27,4.33,2.25,.45-.02,1.19-.05,2.79-1.94,14.83-17.52,16.15-81.69,12.35-129.97l-51.88,2.83Z"/>
  <path class="cls-10" d="M1017.26,758.82s5.81,169.44,59.8,166.95c53.99-2.49,33.22-175.25,33.22-175.25l-91.36,4.98"/>
  <path class="cls-6" d="M910.05,950.26c-11.93,0-23.24-4.63-32.81-13.47-18.72-17.27-31.82-51.36-40.07-104.24-5.69-36.49-6.84-68.36-6.88-69.69l22.97-.79-1.33-24.37,111.15-6.06,2.36,19.67c.17,1.37,4.04,34.04,4.08,71.77,.05,54.9-7.86,90.97-24.2,110.27-8.84,10.44-20.29,16.27-33.12,16.86-.71,.03-1.43,.05-2.14,.05Zm-36.55-171.38c3.45,47.89,14.51,110.32,32.42,126.84,2.53,2.33,3.79,2.27,4.33,2.25,.45-.02,1.19-.05,2.79-1.94,14.83-17.52,16.15-81.69,12.35-129.97l-51.88,2.83Z"/>
  <path class="cls-10" d="M948.35,826.76c-.28,47.51-7.25,100.96-37.12,102.34-23.67,1.09-38.06-30.82-46.78-67.03-11.19-46.42-13.03-99.92-13.03-99.92l1.66-3.32,91.36-4.99s4.15,34.52,3.9,72.92Z"/>
  <path class="cls-14" d="M948.35,826.76l-83.9,35.31c-11.19-46.42-13.03-99.92-13.03-99.92l1.66-3.32,91.36-4.99s4.15,34.52,3.9,72.92Z"/>
  <path class="cls-14" d="M1023.07,818.42l89.17,39.5c11.19-46.42,13.03-99.92,13.03-99.92l-1.66-3.32-125.87-10.6s21.18,36.34,25.33,74.34Z"/>
  <path class="cls-6" d="M798.29,865.85c-23.21,0-45.27-10.26-60.52-28.14-15.16-17.77-21.46-40.4-17.73-63.72l23.25-145.55c1.92-12.01-2.19-24.19-11-32.58l-106.72-101.67c-22-20.96-30.04-51.99-20.98-80.99,9.06-29,33.33-49.94,63.34-54.66l145.61-22.86c12.01-1.89,22.33-9.56,27.58-20.53l63.72-132.92c13.3-27.75,40.68-44.98,71.47-44.98s57.05,16.61,70.63,43.36l66.74,131.42c5.51,10.84,15.99,18.28,28.05,19.89l146.1,19.52c30.11,4.02,54.86,24.41,64.58,53.19s2.39,59.99-19.12,81.45l-104.37,104.09c-8.61,8.59-12.44,20.86-10.25,32.82l26.58,144.98c4.26,23.23-1.88,46.85-16.85,64.81-15.27,18.33-37.53,28.84-61.06,28.84-12.51,0-24.66-2.97-36.1-8.81l-131.24-67.09c-5.18-2.65-11-4.05-16.82-4.05-6.11,0-12.19,1.54-17.57,4.44l-129.67,70.08c-11.86,6.41-24.53,9.66-37.66,9.66Z"/>
  <path class="cls-10" d="M1140.25,833.37l-131.24-67.09c-17.02-8.7-37.24-8.47-54.06,.62l-129.67,70.08c-42.36,22.89-92.58-12.72-84.98-60.27l23.25-145.55c3.02-18.88-3.45-38.03-17.29-51.22l-106.72-101.67c-34.86-33.21-16.51-91.98,31.06-99.45l145.61-22.86c18.89-2.97,35.11-15.04,43.37-32.28l63.72-132.92c20.81-43.42,82.37-44.12,104.18-1.19l66.74,131.42c8.66,17.05,25.15,28.74,44.1,31.27l146.1,19.52c47.72,6.38,67.42,64.71,33.33,98.71l-104.37,104.09c-13.54,13.5-19.56,32.8-16.12,51.6l26.58,144.98c8.68,47.36-40.71,84.11-83.58,62.2Z"/>
  <g>
    <path class="cls-15" d="M650.45,488.57c-34.27-32.44-8.04-87.91,38.73-95.21l136.44-25.56c18.57-2.9,41.26-11.47,49.39-28.31l62.66-129.83c16.82-34.86,53.46-52.87,80.28-33.77-26.73-27.74-75.88-22.37-94.04,15.5l-63.72,132.92c-8.26,17.24-24.48,29.31-43.37,32.28l-145.61,22.86c-47.56,7.47-65.92,66.24-31.06,99.45"/>
    <path class="cls-15" d="M1142.33,364.18l143.65,19.06c28.7,3.81,47.06,26.61,49.34,51.34,2.13-28.75-17.44-57.78-50.3-62.17l-146.1-19.52c-10.75-1.44-20.7-5.83-28.89-12.46,8.82,11.69,20.2,22.15,32.29,23.75Z"/>
    <path class="cls-15" d="M1144.2,834.11l-129.04-65.52c-3.76-1.91-7.68-3.35-11.68-4.38,2.08,.78,4.13,1.67,6.14,2.69l131.24,67.09c9.55,4.88,19.42,6.84,28.91,6.43-8.44-.07-17.14-2.02-25.57-6.31Z"/>
  </g>
  <path class="cls-2" d="M1213.98,575.21c-13.53,13.5-19.57,32.79-16.12,51.59l7.29,39.75,19.29,105.24c8.69,47.35-40.7,84.11-83.57,62.2l-103.29-52.8-27.96-14.3c-17.01-8.7-37.23-8.47-54.05,.62l-129.67,70.07c-42.37,22.9-92.58-12.72-84.99-60.26l3.42-21.41,1.23,15.54c.24,5.09,1.11,9.18,3,13.32,4.01,8.79,14.02,19.28,21.38,25.48,8.94,7.53,17.7,13.31,28.33,13.31,6.03,0,11.94-1.55,17.55-4.57l129.69-70.09c11.53-6.23,24.56-9.53,37.67-9.53s23.48,3.66,36.06,8.69l17.94,9.17v-.08s76,25.34,110.19-.82c33.97-26,38.69-59.59,36.6-88l-6.91-37.7c-4.72-25.65,3.51-51.97,21.97-70.4l103.81-103.53c10.26-10.23,14.12-25.47,9.27-39.14-4.73-13.29-15.86-22.32-29.91-24.19l-132.27-17.68c-15.99-2.15-30.3-11.08-39.14-24.58-8.26-12.62-16.15-29.13-24.53-46.34l8.54,16.83c8.67,17.05,25.15,28.74,44.1,31.28l146.11,19.52c47.71,6.38,67.41,64.7,33.31,98.72l-104.36,104.08Z"/>
  <ellipse class="cls-15" cx="933.27" cy="280.13" rx="21.44" ry="15.88" transform="translate(224.03 948.3) rotate(-60)"/>
  <circle class="cls-15" cx="911.22" cy="316.95" r="11.63"/>
  <polygon class="cls-15" points="720.67 421.6 709.8 427.55 703.85 438.42 697.91 427.55 687.03 421.6 697.91 415.66 703.85 404.78 709.8 415.66 720.67 421.6"/>
  <ellipse class="cls-4" cx="841.18" cy="547.85" rx="46.79" ry="29.07"/>
  <ellipse class="cls-4" cx="1122.05" cy="545.36" rx="46.79" ry="29.07"/>
  <path class="cls-13" d="M947.04,480.3c0,16.13-5.28,30.83-13.95,41.91-9.85,12.61-24.09,20.52-39.94,20.52s-29.8-7.76-39.64-20.14c-8.85-11.12-14.26-25.98-14.26-42.3,0-34.49,24.13-62.44,53.9-62.44s53.89,27.95,53.89,62.44Z"/>
  <ellipse class="cls-7" cx="893.07" cy="471.3" rx="53.98" ry="50.34"/>
  <path class="cls-8" d="M944.51,449.45c-39.78,20.65-88.25,27.89-108.44,30.13,.2-33.94,26.09-61.38,58-61.38,21.61,0,40.47,12.59,50.44,31.25Z"/>
  <path class="cls-2" d="M850.38,466.07c.16-25.42,20.9-46.16,47.08-47.76-1.12-.07-2.25-.11-3.39-.11-31.91,0-57.81,27.45-58,61.38,20.19-2.24,68.66-9.48,108.44-30.13-1-1.86-2.08-3.67-3.25-5.4-33.88,14.98-73.9,20.33-90.88,22.02Z"/>
  <path class="cls-9" d="M826.52,480.33h0c-.22-3.44,2.32-6.43,5.75-6.77,.94-.09,1.98-.2,3.11-.32,18.91-2.1,67.14-9.18,106.19-29.45,2.88-1.49,5.67-3.03,8.36-4.62,2.95-1.74,6.74-.85,8.6,2.03h0c1.98,3.05,1.02,7.13-2.11,8.98-2.89,1.71-5.89,3.37-8.97,4.96-40.95,21.26-91.04,28.63-110.67,30.81-1.18,.13-2.27,.24-3.25,.34-3.6,.36-6.77-2.34-7-5.95Z"/>
  <circle class="cls-3" cx="923.45" cy="489.26" r="8.29"/>
  <path class="cls-1" d="M933.09,521.23c-9.85,13.21-24.09,21.51-39.94,21.51s-29.8-8.13-39.64-21.11c5.15-3.46,11.34-11.85,20.05-5.77,14.31,10,29,4.02,35.45,.4,3.95-2.21,8.58-3.02,13.02-2.12,3.86,.78,8.08,2.71,11.06,7.09Z"/>
  <path class="cls-13" d="M1006.24,478.92c0,16.13,5.28,30.83,13.95,41.91,9.85,12.61,24.09,20.52,39.94,20.52s29.8-7.76,39.64-20.14c8.85-11.12,14.26-25.98,14.26-42.3,0-34.49-24.13-62.44-53.9-62.44s-53.89,27.95-53.89,62.44Z"/>
  <ellipse class="cls-7" cx="1060.22" cy="469.92" rx="53.98" ry="50.34"/>
  <path class="cls-8" d="M1008.78,448.07c39.78,20.65,88.25,27.89,108.44,30.13-.2-33.94-26.09-61.38-58-61.38-21.61,0-40.47,12.59-50.44,31.25Z"/>
  <path class="cls-2" d="M1102.91,464.69c-.16-25.42-20.9-46.16-47.08-47.76,1.12-.07,2.25-.11,3.39-.11,31.91,0,57.81,27.45,58,61.38-20.19-2.24-68.66-9.48-108.44-30.13,1-1.86,2.08-3.67,3.25-5.4,33.88,14.98,73.9,20.33,90.88,22.02Z"/>
  <path class="cls-9" d="M1126.77,478.94h0c.22-3.44-2.32-6.43-5.75-6.77-.94-.09-1.98-.2-3.11-.32-18.91-2.1-67.14-9.18-106.19-29.45-2.88-1.49-5.67-3.03-8.36-4.62-2.95-1.74-6.74-.85-8.6,2.03h0c-1.98,3.05-1.02,7.13,2.11,8.98,2.89,1.71,5.89,3.37,8.97,4.96,40.95,21.26,91.04,28.63,110.67,30.81,1.18,.13,2.27,.24,3.25,.34,3.6,.36,6.77-2.34,7-5.95Z"/>
  <circle class="cls-3" cx="1029.84" cy="487.87" r="8.29"/>
  <path class="cls-1" d="M1020.2,519.85c9.85,13.21,24.09,21.51,39.94,21.51s29.8-8.13,39.64-21.11c-5.15-3.46-11.34-11.85-20.05-5.77-14.31,10-29,4.02-35.45,.4-3.95-2.21-8.58-3.02-13.02-2.12-3.86,.78-8.08,2.71-11.06,7.09Z"/>
  <path class="cls-6" d="M983.21,535.39c-19.25,0-35.26,11.92-38.23,27.48-.48,2.54,2.19,4.8,5.62,4.8h0c2.81,0,5.21-1.54,5.6-3.61,2.17-11.46,13.46-20.21,27.01-20.21s24.83,8.76,27,20.21c.39,2.08,2.79,3.62,5.6,3.62h0c3.43,0,6.11-2.26,5.62-4.8-2.97-15.56-18.98-27.48-38.22-27.48Z"/>
  <g>
    <path class="cls-6" d="M854.29,649.64c-5.34,.85-11.73-1.59-12.84,3.7l-11.98,45.11-.09,.55c-2.66,17.11-14.85,104.42,6.25,143.04,9.9,18.12,24.43,22.12,32.22,22.89,19.02,1.89,37.22-4.73,52.62-19.16,32.94-30.85,38.77-92.85,35.95-177.16l-.05-1.48c-.01-.43-.05-.86-.11-1.29l-3.51-26.91c-.97-7.26-6.61-3.92-13.84-2.77l-84.61,13.47Z"/>
    <path class="cls-10" d="M848.06,700.03s-21.37,137.56,19.66,141.64c41.04,4.08,75.04-51.56,70.9-175.18l-2.77-31.42-77.03,13.65-10.77,51.32Z"/>
  </g>
  <g>
    <path class="cls-6" d="M1122.24,654.63c5.34,.85,11.73-1.59,12.84,3.7l11.98,45.11,.09,.55c2.66,17.11,14.85,104.42-6.25,143.04-9.9,18.12-24.43,22.12-32.22,22.89-19.02,1.89-37.22-4.73-52.62-19.16-32.94-30.85-38.77-92.85-35.95-177.16l.05-1.48c.01-.43,.05-.86,.11-1.29l3.51-26.91c.97-7.26,6.61-3.92,13.84-2.77l84.61,13.47Z"/>
    <path class="cls-10" d="M1128.47,705.01s21.37,137.56-19.66,141.64c-41.04,4.08-75.04-51.56-70.9-175.18l2.77-31.42,77.03,13.65,10.77,51.32Z"/>
  </g>
  <path class="cls-5" d="M1177.22,274.95v2.91c0,1.14-.41,2.11-1.24,2.91l-25.52,24.69h23.08c1,0,1.85,.35,2.55,1.05,.7,.7,1.05,1.55,1.05,2.55s-.35,1.85-1.05,2.55c-.7,.7-1.55,1.05-2.55,1.05h-28.92c-1.03,0-1.9-.35-2.61-1.05-.71-.7-1.07-1.55-1.07-2.55v-3.08c0-1.03,.64-2.17,1.93-3.42l25-24h-21.57c-1,0-1.85-.36-2.55-1.07-.7-.71-1.05-1.58-1.05-2.61,0-.94,.36-1.78,1.07-2.5,.71-.73,1.55-1.09,2.52-1.09h27.34c1,0,1.85,.36,2.55,1.09,.7,.73,1.05,1.59,1.05,2.59Z"/>
  <path class="cls-11" d="M1231.14,247.45v3.56c0,1.4-.51,2.59-1.52,3.56l-31.27,30.25h28.28c1.22,0,2.26,.43,3.12,1.28,.86,.86,1.29,1.9,1.29,3.12s-.43,2.26-1.28,3.12c-.86,.86-1.9,1.28-3.12,1.28h-35.44c-1.26,0-2.32-.43-3.2-1.28-.87-.86-1.31-1.9-1.31-3.12v-3.77c0-1.26,.79-2.66,2.36-4.19l30.63-29.41h-26.43c-1.22,0-2.26-.44-3.12-1.31-.86-.87-1.28-1.94-1.28-3.2,0-1.15,.44-2.18,1.31-3.07,.87-.89,1.9-1.34,3.09-1.34h33.5c1.22,0,2.26,.45,3.12,1.34,.86,.89,1.28,1.95,1.28,3.17Z"/>
  <path class="cls-12" d="M1299.03,214.87v4.66c0,1.83-.66,3.38-1.99,4.66l-40.89,39.56h36.98c1.6,0,2.96,.56,4.08,1.68,1.12,1.12,1.68,2.48,1.68,4.08s-.56,2.96-1.68,4.08c-1.12,1.12-2.48,1.68-4.08,1.68h-46.34c-1.64,0-3.04-.56-4.18-1.68-1.14-1.12-1.71-2.48-1.71-4.08v-4.94c0-1.65,1.03-3.47,3.08-5.48l40.06-38.46h-34.57c-1.6,0-2.96-.57-4.08-1.71-1.12-1.14-1.68-2.54-1.68-4.18,0-1.51,.57-2.84,1.71-4.01,1.14-1.17,2.49-1.75,4.04-1.75h43.81c1.6,0,2.96,.58,4.08,1.75,1.12,1.17,1.68,2.55,1.68,4.15Z"/>
</svg>