<?xml version="1.0" encoding="UTF-8"?>
<svg id="Layer_1" data-name="Layer 1" xmlns="http://www.w3.org/2000/svg" viewBox="0 0 1920 1080">
  <defs>
    <style>
      .cls-1 {
        fill: #f39954;
      }

      .cls-2 {
        fill: #f97864;
      }

      .cls-3 {
        fill: #5b386c;
      }

      .cls-4 {
        fill: #fef8d2;
      }

      .cls-5 {
        fill: #4e245d;
      }

      .cls-6 {
        fill: #fbd554;
      }

      .cls-7 {
        fill: #e6e7e6;
      }

      .cls-8 {
        opacity: .55;
      }

      .cls-9 {
        fill: #fefeef;
      }

      .cls-10 {
        fill: #d9a953;
      }

      .cls-11 {
        fill: #fdf8d0;
      }
    </style>
  </defs>
  <path class="cls-3" d="M1045.4,949.65c-11.97,0-23.32-4.64-32.92-13.51-18.78-17.32-31.93-51.53-40.2-104.58-5.71-36.61-6.86-68.58-6.9-69.93l23.05-.79-1.33-24.45,111.52-6.08,2.37,19.73c.17,1.38,4.05,34.15,4.09,72.01,.05,55.08-7.89,91.27-24.29,110.63-8.87,10.47-20.36,16.32-33.23,16.92-.72,.03-1.44,.05-2.15,.05Zm-36.67-171.95c3.46,48.05,14.55,110.69,32.53,127.26,2.54,2.34,3.8,2.28,4.34,2.26,.45-.02,1.2-.05,2.8-1.95,14.88-17.58,16.2-81.97,12.39-130.41l-52.06,2.84Z"/>
  <path class="cls-6" d="M986.57,760.9s5.83,170.01,60,167.51c54.17-2.5,33.33-175.84,33.33-175.84l-91.67,5"/>
  <path class="cls-3" d="M879,952.99c-11.97,0-23.32-4.64-32.92-13.51-18.78-17.32-31.93-51.53-40.2-104.58-5.71-36.61-6.86-68.58-6.9-69.93l23.05-.79-1.33-24.45,111.52-6.08,2.37,19.73c.17,1.38,4.05,34.15,4.09,72.01,.05,55.08-7.89,91.27-24.29,110.63-8.87,10.47-20.36,16.32-33.23,16.92-.72,.03-1.44,.05-2.15,.05Zm-36.67-171.95c3.46,48.05,14.55,110.69,32.53,127.26,2.54,2.34,3.8,2.28,4.34,2.26,.45-.02,1.2-.05,2.8-1.95,14.88-17.58,16.2-81.97,12.39-130.41l-52.06,2.84Z"/>
  <path class="cls-6" d="M917.43,829.07c-.28,47.67-7.28,101.3-37.24,102.69-23.75,1.09-38.19-30.93-46.94-67.26-11.23-46.58-13.07-100.25-13.07-100.25l1.66-3.33,91.67-5.01s4.16,34.63,3.92,73.16Z"/>
  <path class="cls-10" d="M917.43,829.07l-84.18,35.43c-11.23-46.58-13.07-100.25-13.07-100.25l1.66-3.33,91.67-5.01s4.16,34.63,3.92,73.16Z"/>
  <path class="cls-10" d="M992.4,820.7l89.47,39.63c11.23-46.58,13.07-100.25,13.07-100.25l-1.66-3.33-126.29-10.63s21.25,36.46,25.42,74.59Z"/>
  <path class="cls-3" d="M766.86,868.3c-23.28,0-45.42-10.29-60.73-28.24-15.21-17.83-21.53-40.54-17.79-63.93l23.33-146.04c1.93-12.05-2.2-24.27-11.04-32.69l-107.08-102.01c-22.07-21.03-30.14-52.16-21.05-81.26,9.09-29.1,33.44-50.11,63.55-54.84l146.1-22.94c12.06-1.89,22.4-9.59,27.68-20.6l63.93-133.36c13.34-27.84,40.82-45.13,71.71-45.13s57.24,16.67,70.87,43.5l66.97,131.86c5.53,10.88,16.04,18.34,28.14,19.96l146.59,19.59c30.21,4.04,55.04,24.49,64.79,53.37,9.75,28.88,2.4,60.19-19.18,81.72l-104.72,104.44c-8.64,8.62-12.48,20.93-10.28,32.93l26.67,145.47c4.27,23.31-1.89,47.01-16.91,65.03-15.32,18.39-37.65,28.94-61.26,28.94-12.56,0-24.74-2.98-36.22-8.84l-131.68-67.32c-5.2-2.66-11.03-4.06-16.87-4.06-6.13,0-12.23,1.54-17.63,4.46l-130.11,70.31c-11.9,6.43-24.61,9.69-37.78,9.69Z"/>
  <path class="cls-6" d="M1109.97,835.7l-131.68-67.32c-17.08-8.73-37.36-8.5-54.24,.62l-130.11,70.31c-42.5,22.97-92.89-12.77-85.27-60.47l23.33-146.04c3.03-18.94-3.46-38.16-17.35-51.39l-107.08-102.01c-34.98-33.32-16.56-92.28,31.16-99.78l146.1-22.94c18.95-2.98,35.22-15.09,43.52-32.38l63.93-133.36c20.88-43.56,82.65-44.27,104.52-1.2l66.97,131.86c8.69,17.1,25.23,28.84,44.25,31.38l146.59,19.59c47.88,6.4,67.64,64.93,33.44,99.04l-104.71,104.44c-13.58,13.55-19.63,32.91-16.17,51.78l26.67,145.47c8.71,47.52-40.84,84.39-83.86,62.41Z"/>
  <g>
    <path class="cls-11" d="M618.53,489.75c-34.39-32.54-8.07-88.2,38.86-95.52l136.89-25.65c18.63-2.91,41.4-11.51,49.56-28.41l62.87-130.27c16.88-34.97,53.63-53.05,80.55-33.89-26.82-27.83-76.14-22.45-94.35,15.55l-63.93,133.36c-8.29,17.3-24.57,29.41-43.52,32.38l-146.1,22.94c-47.72,7.49-66.14,66.46-31.16,99.78"/>
    <path class="cls-11" d="M1112.05,364.94l144.13,19.12c28.8,3.82,47.22,26.7,49.51,51.52,2.14-28.85-17.5-57.97-50.47-62.38l-146.59-19.59c-10.78-1.44-20.77-5.85-28.98-12.5,8.85,11.73,20.27,22.22,32.4,23.83Z"/>
    <path class="cls-11" d="M1113.94,836.44l-129.48-65.74c-3.77-1.91-7.7-3.36-11.72-4.39,2.09,.78,4.15,1.67,6.16,2.7l131.68,67.32c9.58,4.9,19.49,6.86,29.01,6.45-8.47-.07-17.19-2.03-25.66-6.33Z"/>
  </g>
  <path class="cls-1" d="M1183.95,576.67c-13.58,13.55-19.63,32.9-16.17,51.77l7.31,39.89,19.36,105.59c8.71,47.51-40.83,84.39-83.85,62.41l-103.63-52.98-28.05-14.35c-17.07-8.73-37.36-8.5-54.23,.62l-130.1,70.31c-42.51,22.98-92.89-12.76-85.27-60.47l3.43-21.48,1.24,15.59c.24,5.1,1.11,9.21,3.01,13.37,4.03,8.82,14.07,19.35,21.45,25.57,8.97,7.56,17.76,13.35,28.43,13.35,6.05,0,11.98-1.55,17.61-4.59l130.12-70.32c11.57-6.25,24.64-9.56,37.8-9.56s23.56,3.68,36.18,8.71l18,9.2v-.08s76.26,25.43,110.56-.83,38.82-59.79,36.73-88.3l-6.94-37.83c-4.73-25.74,3.53-52.14,22.05-70.63l104.16-103.88c10.3-10.27,14.17-25.56,9.3-39.27-4.75-13.33-15.91-22.39-30.01-24.27l-132.72-17.74c-16.04-2.15-30.4-11.11-39.27-24.66-8.29-12.66-16.21-29.23-24.61-46.5l8.57,16.89c8.7,17.1,25.23,28.84,44.24,31.38l146.6,19.58c47.87,6.4,67.63,64.92,33.42,99.05l-104.71,104.43Z"/>
  <ellipse class="cls-11" cx="902.3" cy="280.61" rx="21.52" ry="15.94" transform="translate(208.13 921.72) rotate(-60)"/>
  <circle class="cls-11" cx="880.18" cy="317.55" r="11.67"/>
  <polygon class="cls-11" points="688.99 422.56 678.08 428.52 672.11 439.43 666.14 428.52 655.23 422.56 666.14 416.59 672.11 405.68 678.08 416.59 688.99 422.56"/>
  <ellipse class="cls-4" cx="833.78" cy="462.97" rx="55.42" ry="69.17"/>
  <ellipse class="cls-5" cx="842.95" cy="461.72" rx="46.25" ry="62.5"/>
  <ellipse class="cls-9" cx="857.67" cy="438.95" rx="14.45" ry="18.61"/>
  <circle class="cls-9" cx="835.45" cy="470.89" r="7.78"/>
  <ellipse class="cls-4" cx="1056.57" cy="459.64" rx="55.42" ry="69.17"/>
  <ellipse class="cls-5" cx="1047.4" cy="458.39" rx="46.25" ry="62.5"/>
  <ellipse class="cls-9" cx="1032.68" cy="435.61" rx="14.45" ry="18.61"/>
  <circle class="cls-9" cx="1054.9" cy="467.56" r="7.78"/>
  <ellipse class="cls-2" cx="809.89" cy="549.23" rx="46.95" ry="29.17"/>
  <ellipse class="cls-2" cx="1091.71" cy="546.73" rx="46.95" ry="29.17"/>
  <path class="cls-8" d="M913.51,400.73l-9.48,2.13v-2.25h9.12c.12,.06,.24,.06,.36,.12Z"/>
  <path class="cls-8" d="M929.26,400.37v.24h-16.11c-.24-.12-.47-.18-.77-.24h16.88Z"/>
  <path class="cls-8" d="M997.43,401.08v4.97l-9.3-2.07c3.02-1.07,6.1-2.01,9.3-2.9Z"/>
  <path class="cls-8" d="M999.09,400.61c-.59,.12-1.13,.3-1.66,.47v-.47h1.66Z"/>
  <path class="cls-3" d="M913.51,400.73l-9.48,2.13v-2.25h9.12c.12,.06,.24,.06,.36,.12Z"/>
  <path class="cls-8" d="M997.43,401.08v4.97l-9.3-2.07c3.02-1.07,6.1-2.01,9.3-2.9Z"/>
  <path class="cls-3" d="M997.43,401.08v4.97l-9.3-2.07c3.02-1.07,6.1-2.01,9.3-2.9Z"/>
  <path class="cls-3" d="M1183.23,395.69v27.96l-15.75,10.07v24.52c0,41.04-33.29,74.27-74.33,74.27h-43.06c-41.04,0-74.33-33.23-74.33-74.27v-25.11h-46.49v27.01c0,41.04-33.23,74.27-74.27,74.27h-43.12c-40.99,0-74.27-33.23-74.27-74.27v-27.48l-19.13-12.26v-28.01s119.52-17.18,193.91,8c.3,.06,.53,.12,.77,.24h-9.12v2.25l9.48-2.13c-.12-.06-.24-.06-.36-.12h84.28v.47c-3.2,.89-6.28,1.83-9.3,2.9l9.3,2.07v-4.97c.53-.18,1.07-.36,1.66-.47,74.63-20.73,184.14-4.92,184.14-4.92Z"/>
  <path class="cls-7" d="M798.86,406.63l40.07-.25-49.15,103.84s-26.72-9.07-29.74-18.65l38.81-84.93Z"/>
  <path class="cls-7" d="M861.86,406.63l-53.18,106.61s6.3,5.04,23.19,4.54l46.47-111.33-16.48,.19Z"/>
  <path class="cls-7" d="M1042.7,405.88l-39.13,82.79s6.24,17.77,28.73,23.82l47.63-106.8-37.24,.19Z"/>
  <path class="cls-7" d="M1096.76,405.88l-44.61,105.29s7.75,2.08,24.01,1.13l47.63-106.23-27.03-.19Z"/>
  <path class="cls-3" d="M953.41,586.4c-.81,0-1.62-.02-2.43-.04-24.63-.9-43.54-15.47-53.94-25.8-5.09-5.06-4.26-13.3,1.76-17.31h0c4.75-3.18,11.21-2.61,15.23,1.4,7.58,7.56,21.27,18.37,37.96,18.93,14.4,.51,29.02-6.77,43.6-21.59,4.25-4.32,11.24-4.76,16.04-1.02h0c5.41,4.21,5.86,11.94,1.07,16.8-18.77,19.03-38.67,28.65-59.31,28.65Z"/>
  <g>
    <path class="cls-3" d="M819.16,685.69c.68,3.69-.9,8.17,2.79,8.85l31.52,7.52,.38,.05c11.92,1.54,72.74,8.45,99.17-6.88,12.4-7.19,14.92-17.35,15.32-22.77,.97-13.24-3.95-25.75-14.23-36.18-22-22.31-65.13-25.26-123.61-21.81l-1.02,.06c-.3,.02-.6,.05-.89,.1l-18.61,2.92c-5.02,.8-2.6,4.66-1.68,9.66l10.85,58.49Z"/>
    <path class="cls-6" d="M854.25,689.13s95.86,12.39,97.97-16.17c2.1-28.56-37.12-51.17-122.86-46.1l-21.76,2.48,10.84,53.23,35.81,6.56Z"/>
  </g>
  <g>
    <path class="cls-3" d="M1079.44,682.34c-.68,3.69,.9,8.17-2.79,8.85l-31.52,7.52-.38,.05c-11.92,1.54-72.74,8.45-99.17-6.88-12.4-7.19-14.92-17.35-15.32-22.77-.97-13.24,3.95-25.75,14.23-36.18,22-22.31,65.13-25.26,123.61-21.81l1.02,.06c.3,.02,.6,.05,.89,.1l18.61,2.92c5.02,.8,2.6,4.66,1.68,9.66l-10.85,58.49Z"/>
    <path class="cls-6" d="M1044.35,685.77s-95.86,12.39-97.97-16.17c-2.1-28.56,37.12-51.17,122.86-46.1l21.76,2.48-10.84,53.23-35.81,6.56Z"/>
  </g>
</svg>