<?xml version="1.0" encoding="UTF-8"?>
<svg id="Layer_1" data-name="Layer 1" xmlns="http://www.w3.org/2000/svg" viewBox="0 0 1920 1080">
  <defs>
    <style>
      .cls-1 {
        fill: #4c235d;
      }

      .cls-2 {
        fill: #f39954;
      }

      .cls-3 {
        fill: #f97864;
      }

      .cls-4 {
        fill: #f97d6b;
      }

      .cls-5 {
        fill: #5b386c;
      }

      .cls-6 {
        fill: #fef8d2;
      }

      .cls-7 {
        fill: #4e245d;
      }

      .cls-8 {
        fill: #fbd554;
      }

      .cls-9 {
        fill: #fefeef;
      }

      .cls-10 {
        fill: #d9a953;
      }

      .cls-11 {
        fill: #fdf8d0;
      }
    </style>
  </defs>
  <path class="cls-5" d="M1044.95,972.27c-12.67,0-24.67-4.91-34.83-14.29-19.87-18.33-33.78-54.52-42.54-110.65-6.04-38.73-7.26-72.56-7.3-73.98l24.38-.84-1.41-25.87,117.99-6.43,2.51,20.88c.18,1.46,4.29,36.14,4.33,76.19,.06,58.28-8.35,96.56-25.69,117.05-9.38,11.08-21.54,17.27-35.15,17.9-.76,.04-1.52,.05-2.27,.05Zm-38.8-181.93c3.67,50.84,15.4,117.11,34.41,134.64,2.68,2.47,4.02,2.41,4.59,2.39,.47-.02,1.26-.06,2.96-2.06,15.74-18.6,17.14-86.72,13.11-137.97l-55.08,3Z"/>
  <path class="cls-8" d="M982.71,772.57s6.17,179.87,63.48,177.22c57.31-2.65,35.27-186.04,35.27-186.04l-96.99,5.29"/>
  <path class="cls-5" d="M868.9,975.8c-12.67,0-24.67-4.91-34.83-14.29-19.87-18.33-33.78-54.52-42.54-110.65-6.04-38.73-7.26-72.56-7.3-73.98l24.38-.84-1.41-25.87,117.99-6.43,2.51,20.88c.18,1.46,4.29,36.14,4.33,76.19,.06,58.28-8.35,96.56-25.69,117.05-9.38,11.08-21.54,17.27-35.15,17.9-.76,.04-1.52,.05-2.27,.05Zm-38.8-181.93c3.67,50.84,15.4,117.11,34.41,134.64,2.68,2.47,4.02,2.41,4.59,2.39,.47-.02,1.26-.06,2.96-2.06,15.74-18.6,17.14-86.72,13.11-137.97l-55.08,3Z"/>
  <path class="cls-8" d="M909.55,844.69c-.29,50.44-7.7,107.18-39.4,108.64-25.12,1.16-40.4-32.72-49.66-71.16-11.88-49.28-13.83-106.07-13.83-106.07l1.76-3.52,96.99-5.3s4.4,36.64,4.14,77.41Z"/>
  <path class="cls-5" d="M1118.03,600.53l53.34-45.56,.47-.36c14.59-11.19,89.71-66.99,136.43-66.99,21.92,0,33.04,11.5,37.73,18.36,11.44,16.76,14.54,37.08,8.94,58.77-11.97,46.39-62.6,94.12-142.58,134.41l-2.02,1.02-63.1,17.21-29.21-116.85Z"/>
  <path class="cls-8" d="M1202.26,679.11l-38.8,10.58-20.29-81.12,4.73-4.04,37.59-32.12s58.19-44.62,101.22-58.36c18.06-5.77,33.45-6.11,40.75,4.58,24.67,36.16-7.94,101.39-125.2,160.48Z"/>
  <path class="cls-5" d="M761.61,600.53l-53.34-45.56-.47-.36c-14.59-11.19-89.71-66.99-136.43-66.99-21.92,0-33.04,11.5-37.73,18.36-11.44,16.76-14.54,37.08-8.94,58.77,11.97,46.39,62.6,94.12,142.58,134.41l2.02,1.02,63.1,17.21,29.21-116.85Z"/>
  <path class="cls-8" d="M694.14,572.42s-117.27-89.93-141.96-53.78c-24.69,36.15,7.94,101.4,125.2,160.47l38.8,10.58,20.28-81.12-42.32-36.15Z"/>
  <path class="cls-10" d="M1287.56,513.9l-81.78,163.16s-33.22-14.11-33.51-14.99c-.19-.59-14.5-34.33-24.36-57.53l37.59-32.12s59.03-44.78,102.06-58.52Z"/>
  <path class="cls-10" d="M588.29,512.76l94.73,168.71s33.22-14.11,33.51-14.99c.19-.59,14.5-34.33,24.36-57.53l-37.59-32.12s-71.99-50.33-115.02-64.07Z"/>
  <path class="cls-10" d="M909.55,844.69l-89.06,37.49c-11.88-49.28-13.83-106.07-13.83-106.07l1.76-3.52,96.99-5.3s4.4,36.64,4.14,77.41Z"/>
  <path class="cls-10" d="M988.88,835.83l94.66,41.93c11.88-49.28,13.83-106.07,13.83-106.07l-1.76-3.52-133.62-11.25s22.48,38.57,26.89,78.91Z"/>
  <path class="cls-5" d="M750.26,886.19c-24.64,0-48.05-10.89-64.25-29.87-16.09-18.87-22.78-42.89-18.82-67.64l24.68-154.51c2.04-12.75-2.33-25.68-11.68-34.58l-113.29-107.93c-23.35-22.25-31.89-55.19-22.27-85.97,9.61-30.78,35.38-53.02,67.24-58.02l154.58-24.27c12.75-2,23.7-10.15,29.28-21.79l67.64-141.1c14.12-29.45,43.19-47.75,75.87-47.75s60.56,17.64,74.98,46.03l70.85,139.51c5.85,11.51,16.98,19.4,29.77,21.12l155.09,20.73c31.97,4.27,58.24,25.91,68.55,56.46,10.32,30.56,2.54,63.69-20.29,86.46l-110.79,110.49c-9.14,9.12-13.21,22.14-10.88,34.84l28.21,153.91c4.52,24.66-2,49.73-17.89,68.8-16.21,19.46-39.84,30.62-64.81,30.62-13.28,0-26.18-3.15-38.32-9.36l-139.32-71.22c-5.5-2.81-11.67-4.3-17.85-4.3-6.49,0-12.94,1.63-18.65,4.72l-137.66,74.39c-12.59,6.8-26.04,10.25-39.98,10.25Z"/>
  <path class="cls-8" d="M1113.26,851.7l-139.32-71.22c-18.07-9.24-39.53-8.99-57.39,.66l-137.65,74.39c-44.96,24.3-98.27-13.51-90.21-63.98l24.68-154.51c3.2-20.04-3.66-40.38-18.36-54.38l-113.29-107.93c-37.01-35.25-17.52-97.64,32.97-105.57l154.58-24.27c20.05-3.15,37.27-15.96,46.04-34.26l67.64-141.1c22.09-46.09,87.44-46.84,110.59-1.27l70.85,139.51c9.19,18.1,26.7,30.51,46.81,33.2l155.09,20.73c50.66,6.77,71.57,68.69,35.38,104.78l-110.79,110.49c-14.37,14.33-20.77,34.82-17.11,54.78l28.21,153.91c9.22,50.27-43.21,89.29-88.72,66.03Z"/>
  <g>
    <path class="cls-11" d="M593.32,485.68c-36.38-34.43-8.54-93.32,41.11-101.07l144.83-27.13c19.71-3.08,43.8-12.18,52.43-30.06l66.52-137.83c17.86-37,56.75-56.13,85.22-35.85-28.38-29.44-80.55-23.75-99.83,16.45l-67.64,141.1c-8.77,18.3-25.99,31.11-46.04,34.26l-154.58,24.27c-50.49,7.93-69.97,70.31-32.97,105.57"/>
    <path class="cls-11" d="M1115.47,353.63l152.5,20.23c30.47,4.04,49.96,28.25,52.38,54.5,2.26-30.52-18.51-61.34-53.4-66l-155.09-20.73c-11.41-1.52-21.97-6.18-30.66-13.23,9.37,12.41,21.44,23.51,34.28,25.22Z"/>
    <path class="cls-11" d="M1117.47,852.49l-136.99-69.56c-3.99-2.03-8.15-3.56-12.39-4.65,2.21,.83,4.39,1.77,6.52,2.86l139.32,71.22c10.14,5.18,20.62,7.26,30.69,6.82-8.96-.07-18.19-2.15-27.15-6.7Z"/>
  </g>
  <path class="cls-2" d="M1191.54,577.65c-14.37,14.33-20.77,34.81-17.11,54.77l7.74,42.2,20.48,111.72c9.22,50.26-43.2,89.29-88.72,66.03l-109.64-56.05-29.68-15.18c-18.06-9.24-39.52-9-57.38,.66l-137.65,74.39c-44.98,24.31-98.28-13.5-90.22-63.97l3.63-22.72,1.31,16.49c.25,5.4,1.18,9.74,3.19,14.14,4.26,9.33,14.89,20.47,22.7,27.05,9.49,8,18.79,14.12,30.08,14.12,6.41,0,12.67-1.64,18.63-4.85l137.67-74.4c12.24-6.61,26.07-10.12,39.99-10.12s24.93,3.89,38.28,9.22l19.05,9.74v-.09s80.68,26.9,116.98-.88c36.06-27.6,41.07-63.26,38.86-93.42l-7.34-40.02c-5.01-27.23,3.73-55.17,23.33-74.73l110.2-109.9c10.9-10.86,14.99-27.04,9.84-41.54-5.02-14.11-16.84-23.69-31.75-25.68l-140.41-18.77c-16.97-2.28-32.17-11.76-41.54-26.09-8.77-13.4-17.15-30.93-26.04-49.19l9.07,17.87c9.2,18.1,26.69,30.51,46.81,33.2l155.11,20.72c50.64,6.77,71.55,68.69,35.36,104.79l-110.78,110.49Z"/>
  <ellipse class="cls-11" cx="893.55" cy="264.42" rx="22.76" ry="16.86" transform="translate(217.78 906.05) rotate(-60)"/>
  <circle class="cls-11" cx="870.14" cy="303.5" r="12.34"/>
  <polygon class="cls-11" points="667.86 414.6 656.32 420.91 650.01 432.45 643.7 420.91 632.15 414.6 643.7 408.28 650.01 396.74 656.32 408.28 667.86 414.6"/>
  <ellipse class="cls-6" cx="821.06" cy="457.36" rx="58.63" ry="73.18"/>
  <ellipse class="cls-7" cx="830.76" cy="456.04" rx="48.94" ry="66.13"/>
  <ellipse class="cls-9" cx="846.34" cy="431.94" rx="15.28" ry="19.69"/>
  <circle class="cls-9" cx="822.82" cy="465.74" r="8.23"/>
  <ellipse class="cls-6" cx="1056.77" cy="453.83" rx="58.63" ry="73.18"/>
  <ellipse class="cls-7" cx="1047.07" cy="452.51" rx="48.94" ry="66.13"/>
  <ellipse class="cls-9" cx="1031.5" cy="428.41" rx="15.28" ry="19.69"/>
  <circle class="cls-9" cx="1055.01" cy="462.21" r="8.23"/>
  <ellipse class="cls-3" cx="795.79" cy="548.62" rx="49.67" ry="30.86"/>
  <ellipse class="cls-3" cx="1093.95" cy="545.97" rx="49.67" ry="30.86"/>
  <path class="cls-1" d="M949.2,548.18s42.32-3.97,55.55-6.61c13.23-2.65,33.95,5.73,32.18,25.57-1.76,19.84-.44,40.12-33.51,61.28-33.06,21.16-63.92,19.4-85.97,9.7-22.04-9.7-47.61-29.1-54.67-63.04-7.05-33.95,27.77-33.95,49.82-30.42,22.04,3.53,36.59,3.53,36.59,3.53Z"/>
  <path class="cls-4" d="M893.21,608.87c-1.41-1.21,51.73-54.08,118.74-5,0,0-48.79,64.95-118.74,5Z"/>
</svg>